<?xml version="1.0" encoding="utf-8"?>
<!-- Generator: Adobe Illustrator 26.3.1, SVG Export Plug-In . SVG Version: 6.00 Build 0)  -->
<svg version="1.1" id="Athletics_running" xmlns="http://www.w3.org/2000/svg" xmlns:xlink="http://www.w3.org/1999/xlink" x="0px"
	 y="0px" viewBox="0 0 500 500" style="enable-background:new 0 0 500 500;" xml:space="preserve">
<path id="Athletics_running_4" d="M433.7,157.9c-0.3-3.6-0.7-25-2.4-25.5c-1.7-0.5-2,0.2-2,2.7c0,2.6-0.5,10-1.2,9.7
	c-0.7-0.3-1.5-18.5-4.3-18.4c-2.7,0.2-0.5,16.3-2,16.5c-1.5,0.2-1-18.9-2.7-18.9c-1.7,0-2.9-0.5-2.9,2.7c0,3.2,0.9,15.5-0.2,15.5
	s-3.7-14.3-5.1-14.5c-1.4-0.2-1.4,1.4-1,4.9c0.3,3.6,3.6,19.3,2.6,20.1c0,0-0.5,0.5-2.6-3.3c-2-3.7-5.1-2.6-5.1-2.6
	s-0.5,1.5,1.9,4.3c2.4,2.7,2.6,6.8,3.6,9.2c1,2.4,4.6,4.6,4.8,6.5c0.2,1.9,0.3,11.2-2.2,18.5c-2.6,7.3-8.7,20.4-8.7,20.4
	s-13.6-12.1-19.2-15.3c0,0-2.2-12.1-4.4-14.1c-2.2-2-18.9-13.4-16.3-17.4c2.6-3.9,7.1,6,9,6.8c1.9,0.9,15.7-7.5,15.7-7.5
	s4.9,1.7,6.5-0.9c1.5-2.6,1.5-6.3,3.9-8.2c2.4-1.9,8-5.6,8.7-16s0-28.4-23.8-28.4c-23.8,0-19.7,27-24,27.4c-4.3,0.3-6-3.1-7.1-9.7
	C351.7,116,330.9,98,330.9,98s-29.3-30.3-34.2-31.5c-4.9-1.2-53.8-3.6-72.6,1.2c-18.9,4.8-23.3-1.7-29.9-0.9
	c-6.6,0.9-22.8,17.2-22.6,18.4c0.2,1.2,4.4,0.2,6-0.7c1.5-0.9,8.5-1.7,8.5-1.7s-1.9,3.4-3.4,4.1c-1.5,0.7-8,5.8-6.8,7.1
	c1.2,1.4,4.6,0.9,10-2.2s12.1-4.4,14.5-2.9c2.4,1.5,2.9,1.5,2.6,3.7c-0.3,2.2-2.7,4.8-4.1,6.1c-1.4,1.4-2.2,2.7-1.7,6.1
	c0.5,3.4,1.4,2.9,2.2,2.9c0.9,0,1-2.2,3.1-4.4c2-2.2,3.4-4.4,9.2-7.8c5.8-3.4,4.3-10.4,9.9-12.8c5.6-2.4,33.3,4.4,44.7,4.8
	c11.4,0.3,16.8-1.4,18.2-0.3c1.4,1,5.6,3.2,7,8.7c1.4,5.4,9.2,17.2,12.4,20.4c3.2,3.2,11.1,7.8,8.8,11.1c-2.2,3.2-22.8,18-31.8,33
	c-9,15-16.8,25.5-19.9,27.6c-3.1,2-22.3,11.7-26.9,15.8c-4.6,4.1-12.9,14.8-15.5,27.7s-9,16.2-19.4,25.9
	c-10.4,9.7-18.5,36.1-21.4,38.6c-2.9,2.6-31.5,18.5-38.8,29.3c-7.3,10.7-37.4,43.6-39.5,44.2c-2,0.7-3.1-1.5-4.1-1.7
	c-1-0.2-20.6-2.4-20.6-2.4s-1,0-1.7,4.1c-0.7,4.1-2.4,12.9-1.5,19.1c0.9,6.1-0.9,11.9-2.4,15c-1.5,3.1-2.7,12.1-2.7,16.8
	c0,4.8,2.4,15.5,6.6,15.3c4.3-0.2,6.5-10.2,7-13.9s13.4-15.8,17.4-21.9c3.9-6.1,6.3-8.5,9.4-10.7c3.1-2.2,28.9-27.6,39.3-34.5
	c10.4-7,47.8-31.1,47.8-31.1s4.4,15.8,5.4,23.6c1,7.8,11.7,21.6,17.7,21.6c6,0,4.3-5.6,3.6-12.1c-0.7-6.5-1.5-9.9,0-11.6
	c1.5-1.7,1.7-6.8,2.2-10.2c0.5-3.4,8.2-8.2,8.2-9.7c0-1.5,0.9-1.7,0.9-1.7s87.6,4.9,106.8-7.1c19.2-12.1-12.2-48.1-12.2-48.1
	s-27.7-30.1-27.7-33.7s11.2-8.8,18.4-12.1c7.1-3.2,12.4-9.7,16.2-10.5c3.7-0.9,23.6-18,23.6-18s21.3,26.5,29.6,29.9
	c8.3,3.4,13.8,12.2,20.4,13.1c6.6,0.9,11.7-2.2,14.3-9.4c2.6-7.1,7.8-53.1,7.8-53.1S434,161.5,433.7,157.9z M259.1,301.7
	c-4.3,2.5-41.1,0.6-41.1,0.6s30.5-26.2,34-31.4c0,0,25.6,16.3,37.2,19.4C289.3,290.3,263.5,299.3,259.1,301.7z"/>
</svg>
