<?xml version="1.0" encoding="utf-8"?>
<!-- Generator: Adobe Illustrator 26.3.1, SVG Export Plug-In . SVG Version: 6.00 Build 0)  -->
<svg version="1.1" id="Athletics_pole_vault" xmlns="http://www.w3.org/2000/svg" xmlns:xlink="http://www.w3.org/1999/xlink"
	 x="0px" y="0px" viewBox="0 0 500 500" style="enable-background:new 0 0 500 500;" xml:space="preserve">
<path id="Athletics_pole_vault_00000118368931909271914680000016750865091786023853_" d="M430.8,341.4c-0.9-5.6-6.1-13.1-21.4-19.6
	c-15.3-6.5-19.8-16-25.7-16.4c-5.9-0.5-13.1,10.6-16.4,12.8c-3.4,2.3-40.1,7.4-56.1,14.9c-16,7.4-18,13.5-19.6,12.4
	c-1.1-0.8,0.9-22.2,2.2-39.2l14.1,16.8c0.7,0.8,1.7,1.2,2.6,1.2c0.8,0,1.6-0.3,2.2-0.8c1.5-1.2,1.7-3.4,0.4-4.9l-18.7-22.3
	c0.2-3.1,0.3-5.8,0.3-7.7c0-12.2,0.5-23.2-4.3-32c-4.7-8.8-11.3-41-12.8-52.5c-1.6-11.5-3.4-46.4-9.7-59.2
	c-6.3-12.8-28.4-18.2-31.3-23.7c-2.9-5.4,3.4-9.9,3.4-25.2s-11.3-24.3-26.1-24.3c-5,0-9,0.6-12.1,1.5c-5,1.4-8.4,6-8.3,11.2
	c0.1,5.4,0.1,12.4,0.1,15c0,4.5-3.6,10.8-2.7,11.5c0.9,0.7,4.1-0.2,4.1-0.2c0.9,4.1-0.7,18.9,5.2,19.4c5.9,0.5,12.8-1.4,14,0.9
	c1.1,2.3,5.4,4.1,7.2,7.4s-5.9,38.1-7,42.6c-0.4,1.5-0.4,3.1-0.4,4.8c0.1,3.7-2.2,6.9-5.3,8.2l-11.9-14.2c-0.2-0.7-0.4-1.5-0.6-2.3
	c-2-7.1-5.7-8.8-8.6-8.6L75.2,34.8c-1.2-1.5-3.4-1.7-4.9-0.4c-1.5,1.2-1.7,3.4-0.4,4.9l120.4,143.6c0.5,3.5-0.6,9.2,2.6,11.6
	c3.8,2.9,13.5,27.5,16.9,29.3c3.4,1.8,12.6-2,12.6-2s5.9,12.4,8.3,14.2s5.2,22.8-1.1,27c-6.3,4.3-57.4,60.8-60.4,67.1
	c-2.9,6.3-9.2,73.9-10.4,83.4c-1.1,9.5-2.3,16.7-6.5,16.7c-4.3,0-2.9,6.1-5.4,10.1c-2.5,4.1-16,3.2-22.8,3.4
	c-6.8,0.2-17.6-3.8-17.6,0.7c0,4.5,0.2,6.8,6.8,14.2c6.5,7.4,16.9,7.4,27.3,7.4c10.4,0,30.9-3.4,32.4-4.1c1.6-0.7,3.8-5.2,2-11.5
	c-1.8-6.3,0-11.9,0-11.9c23.4-56.1,26.1-94.8,26.1-94.8c10.8-3.2,45.3-32.4,45.3-32.4c5.2,32.4,25,69.8,34.5,69.8
	c9.5,0,86.1-44.2,90.1-45.3c4.1-1.1,10.4,0.2,10.4,0.2s1.1,4.3,2.5,4.7c1.4,0.5,26.1-1.1,30.6,0c4.5,1.1,8.1,5.2,11.3,8.8
	C429,353.1,431.7,347,430.8,341.4z"/>
</svg>
