<?xml version="1.0" encoding="utf-8"?>
<!-- Generator: Adobe Illustrator 26.3.1, SVG Export Plug-In . SVG Version: 6.00 Build 0)  -->
<svg version="1.1" id="Athletics_running" xmlns="http://www.w3.org/2000/svg" xmlns:xlink="http://www.w3.org/1999/xlink" x="0px"
	 y="0px" viewBox="0 0 500 500" style="enable-background:new 0 0 500 500;" xml:space="preserve">
<path id="Athletics_running_3" d="M287.2,100c0,0-7.4-2.1-14,1.6c-6.6,3.7-59.5,46.8-57.1,64.5c2.5,17.7,31.2,49.7,30.8,53.4
	c-0.4,3.7-6.2,22.2-5.3,39.8s1.6,58.7,0,59.1c-1.6,0.4-13.5-10.7-38.2-14.8s-26.3-5.7-28.7-8.2c-2.5-2.5-10.7-17.2-14.8-17.2
	c-4.1,0-44.3,36.5-45.6,48.9c-1.2,12.3,6.2,6.2,11.5,4.1s35.7-14,38.2-16c2.5-2.1,3.3-3.7,6.2-2.1c2.9,1.6,58.3,42.3,81.7,43.1
	c23.4,0.8,30.8-50.5,30.8-50.5s9.4,18.1,19.7,27.9c0,0-3.7,30.4,3.7,48.9s14.8,34.5,14,39.4s-2.7,13.5,0.1,20.1
	c2.8,6.6,13.9,8.2,29.1,8.2c15.2,0,37.8-10.3,37.8-12.7s-3.3-5.7-15.2-6.2c-11.9-0.4-18.9-2.1-20.1-2.9s-11.9-10.7-11.9-10.7
	s-6.2-92.8-7.4-97.7s-30.8-89.9-30.8-89.9l17.2-50.9c0,0,9.4-1.6,11.5,0.4c2.1,2.1,5.7,5.3,9.9,6.2s8.6-14.4,8.6-18.1
	c0-3.7-7.8-7.4-10.7-7s-19.3,2.5-19.3,2.5s-2.5-32-9-45.6s10.7-14.4,15.2-13.5c4.5,0.8,3.7-18.1,3.7-18.1s3.1-0.1,3.4-1.6
	c0.3-1.5-4.7-5.9-5.3-7.5c-0.7-1.6-2.5-27.6-20.4-27.8c-17.9-0.1-28.2,8.1-28.5,23.5S288.5,97.6,287.2,100z"/>
</svg>
