<?xml version="1.0" encoding="utf-8"?>
<!-- Generator: Adobe Illustrator 26.3.1, SVG Export Plug-In . SVG Version: 6.00 Build 0)  -->
<svg version="1.1" id="Athletics_shot_put" xmlns="http://www.w3.org/2000/svg" xmlns:xlink="http://www.w3.org/1999/xlink" x="0px"
	 y="0px" viewBox="0 0 500 500" style="enable-background:new 0 0 500 500;" xml:space="preserve">
<path id="Athletics_shot_put_1" d="M191.7,103.5c0,0-7.7,0.6-13.9,12.7s-49.1,32.7-53.4,51.3s15.4,15,23.7,13.5
	c8.3-1.4,29.5-8.7,30.5-11.1s11.3,5.7,16.2,17.2c4.9,11.5,17.8,33.2,18,45.7s-24.3,52.6-25.7,61c-1.4,8.5-2.4,8.1-2.4,8.1l5.3,3.4
	l-8.1,34.2c0,0-13.7,4.4-25.5,15c-11.7,10.5-29.9,30.5-32.5,30.9c-2.6,0.4-6.3-3.2-8.3,0s-10.9,7.7-13.5,8.3s-5.9,1.4-5.7,5.7
	c0.2,4.2,4,17,4,22.4c0,5.5,12.5,31.7,20.2,32.9c7.7,1.2,13.3,0.4,13.9-1.2c0.6-1.6,1.2-7.5-0.4-11.1c-1.6-3.6-4-25.3-1.6-29.9
	c2.4-4.6,4-7.7,3-9.9c-1-2.2,4.2-5.1,4.2-5.1s49.9-26.7,60.6-36.6c10.7-9.9,51.7-67.5,51.7-67.5l13.5,12.5h1.8
	c0,0,21.2,23.4,20.2,34.4c-1,10.9-6.9,15.8-5.9,32.7c1,17-9.3,29.3-10.3,32.5c-1,3.2-2.2,7.5,8.7,14.1c10.9,6.7,23.4,21.2,29.1,21.2
	c5.7,0,19.2,0.4,18.4-4.6c-0.8-5.1-7.7-7.3-14.4-14.6s-16.6-21.8-16.6-26.1c0-4.2,17.8-36.6,18-53.6c0.2-17-14.1-51.7-14.1-51.7
	l2-2.2l-23-56.8c0,0-3.6-11.7-3.4-23.2c0.2-11.5-1.2-35.4,1.4-44.1c2.6-8.7,32.3-40.4,35.8-45.7s10.9-3.2,30.1-21s21-24.5,26.7-25.5
	c5.7-1,16-0.8,19-2.2c3-1.4,9.1-3,8.1-4.4c-1-1.4-8.7,0.4-10.9-2s3.2-5.9,5.3-5.1s4.6,1.6,7.7,0.8c3-0.8,5.1-7.3,3.8-8.9
	c-1.2-1.6-6.9-7.3-17-2.6c-10.1,4.6-18,12.3-24.1,16c-6.1,3.6-27.7,10.3-40.4,20.8s-15.4,16.2-19.2,17.2c-3.8,1-45.5,16.8-49.7,19
	c-4.2,2.2-13.1-1-13.9-5.3c-0.8-4.2,2.2-5.7,3.6-7.5s-2.4-20.2-9.1-32.9c-6.7-12.7-11.7-17.8-23.2-16.4
	c-11.5,1.4-27.9,10.1-26.5,25.1S191.7,103.5,191.7,103.5z"/>
</svg>
