<?xml version="1.0" encoding="utf-8"?>
<!-- Generator: Adobe Illustrator 26.3.1, SVG Export Plug-In . SVG Version: 6.00 Build 0)  -->
<svg version="1.1" id="Athletics_long_jump" xmlns="http://www.w3.org/2000/svg" xmlns:xlink="http://www.w3.org/1999/xlink"
	 x="0px" y="0px" viewBox="0 0 500 500" style="enable-background:new 0 0 500 500;" xml:space="preserve">
<path id="Athletics_long_jump_3" d="M294,110.9c0,0-12.1-2.6-23.4,7.4c-11.3,10-18.2,18.6-16.9,20.8c1.3,2.2,3.2,5.2-0.2,5.2
	c-3.3,0-15.9-6.5-33.2-6.5s-70.5,30.7-79.2,32c-8.7,1.3-38.9,25.1-60.6,43.7c0,0-9.1,3-14.7,6.9s-14.7,10.8-14.7,13
	s9.1,16,16.9,13.8s12.1-13.4,24.2-22.5c12.1-9.1,53.2-29.9,58-35.1c4.8-5.2,16.9-2.6,16.9-2.6s-23.4,65.3-29.4,67.9
	c-6.1,2.6-13,2.2-16.4,0s-13-3.9-14.3-3.9c-1.3,0-9.5-1.2-3,5.7c6.5,6.9,21.6,18.6,24.2,18.6c2.6,0,13,2.2,30.3-20.3
	c0,0,0.4,28.1,6.1,39.4c5.6,11.3,22.9,20.3,50.2,19.9c27.3-0.4,81.4-16.4,87.4-10c6.1,6.5,10,22.9,27.3,32.9
	c17.3,10,48,33.8,51.1,39.8c3,6.1,7.4,13.4,15.1,13s10.4-10,14.7-13c4.3-3,22.1-15.1,26.4-20.8c4.3-5.6,12.6-10,11.7-14.3
	s-1.7-7.4-1.7-7.4s0.9-10-5.2-9.1c-6.1,0.9-30.3,17.3-38.5,16.4c-8.2-0.9-38.5-32.5-44.1-37.2s-33.3-34.6-36.8-38.5
	s-6.1-10-22.1-10.4c-16-0.4-73.6,7.5-78.3-5.6c-4.8-13.1,3.5-22.1,10.4-26.5c6.9-4.3,26-19.5,27.7-27.7c1.7-8.2,1.7-16.4,5.6-19
	c3.9-2.6,12.6,7.8,16.9,8.7c4.3,0.9,14.3-10,14.3-10s4.3,2.2,6.1,0c1.7-2.2,2.2-10.8,5.2-13c3-2.2,10.8-14.3,12.6-19
	C322.1,139,321.7,117.8,294,110.9z"/>
</svg>
