<?xml version="1.0" encoding="utf-8"?>
<!-- Generator: Adobe Illustrator 26.3.1, SVG Export Plug-In . SVG Version: 6.00 Build 0)  -->
<svg version="1.1" id="Athletics_shot_put" xmlns="http://www.w3.org/2000/svg" xmlns:xlink="http://www.w3.org/1999/xlink" x="0px"
	 y="0px" viewBox="0 0 500 500" style="enable-background:new 0 0 500 500;" xml:space="preserve">
<path id="Athletics_shot_put_2" d="M363.9,125.1c-2.8-3.9-11-19.5-26-17.2c-14.9,2.3-26.5,20-28,27.8c-1.5,7.7-6.9,10.8-8.5,9.8
	c-1.5-1-2.3-11-12.1-19.8s-41.9-33.4-43.2-33.4c-1.3,0-4.6,0-4.6,0S227,72.9,221.3,68.3c-5.7-4.6-27-8.7-33.7-15.9s-6.7-7.2-6.7-7.2
	s-5.1-22.4-23.4-22.4c-18.2,0-25.7,18.8-25.7,29s10.3,36.2,30.1,36.2s19.3-21.6,22.4-20c3.1,1.5,4.9,1.3,4.9,1.3s6.9,11,13.1,16.7
	c6.2,5.7,21.1,17.2,22.4,20.3c1.3,3.1,0.8,4.1,1.5,7.7c0.8,3.6,7.5,12.6,5.9,17.2c-1.5,4.6-10.3,5.4-19.8,17.2
	c-9.5,11.8-26.5,34.4-27,40.3c-0.5,5.9-1.8,6.9-4.4,8.5s-22.1,17.7-22.1,42.9s32.1,46,37.3,53.7c5.1,7.7,5.9,6.2,12.3,13.1
	s21.6,27.8,21.6,27.8s-15.7,7.7-31.1,31.9c-15.4,24.2-20.6,23.4-21.6,23.1c-1-0.3-12.3-1.3-13.9-1.3c-1.5,0-8.7-0.8-9.8,2.3
	c-1,3.1,0.3,15.4,1.8,17.2s3.6,4.1,3.6,9s5.1,30.1,11,37.8c5.9,7.7,13.9,5.4,13.6,0.3c-0.3-5.1,2.6-23.9,5.4-32.1
	c2.8-8.2,6.4-18.8,6.2-19.8c-0.3-1,4.1-9.3,11-13.6c6.9-4.4,45-41.6,52.2-42.9c0,0-10.3,11-12.6,32.6c-2.3,21.6-9.8,46.3-12.1,47.3
	c-2.3,1-4.6-3.1-7.5,5.4c-2.8,8.5-7.5,20-5.9,23.9c1.5,3.9,7.7,8,15.4,9.3c7.7,1.3,28.5,11.3,40.3,11.3s20.6-8,20.8-9.8
	c0.3-1.8-18.2-5.4-23.9-12.6c-5.7-7.2-14.9-24.9-17-25.7c-2.1-0.8-2.6-3.9-2.6-3.9s36.5-72.7,36.7-80.9c0.3-8.2,6.9-3.1,8.7-10.3
	c1.8-7.2,4.6-15.4,3.6-19c-1-3.6,0-51.9-4.4-59.9c-4.4-8-4.1-9.5-2.8-13.9c1.3-4.4,7.1-45.7,7.4-56c0.3-10.3,4.4-11.6,4.4-11.6
	l9.8-4.4c0,0-0.5,2.3,4.4,1.5c4.9-0.8,34.9-11.8,41.1-20.8C368.8,140.2,366.8,128.9,363.9,125.1z M289.7,304.4
	c-0.8,3.1-3.3,4.9-3.9,9.3c-0.5,4.4-4.1,11.8-4.1,11.8s-16.4-23.4-20.9-34.9c-4.5-11.6-28.9-59.4-28.9-59.4s11.8-12.6,13.6-13.6
	c1.8-1,14.6-4.9,16.2-3.1c1.5,1.8,6.7,23.1,9,25.2c2.3,2.1,4.4,5.9,4.6,8.5c0.3,2.6,0,13.6,2.8,22.6
	C280.9,279.8,290.4,301.3,289.7,304.4z"/>
</svg>
