<?xml version="1.0" encoding="utf-8"?>
<!-- Generator: Adobe Illustrator 26.3.1, SVG Export Plug-In . SVG Version: 6.00 Build 0)  -->
<svg version="1.1" id="Athletics_long_jump" xmlns="http://www.w3.org/2000/svg" xmlns:xlink="http://www.w3.org/1999/xlink"
	 x="0px" y="0px" viewBox="0 0 500 500" style="enable-background:new 0 0 500 500;" xml:space="preserve">
<path id="Athletics_long_jump_2" d="M247.6,142.5c0,0-9.9-18.9-9.5-26.9s-1.7-18.7,14.8-24.3c7.8-2.7,17.8-2.6,25.4,6.4
	s5.2,22.2,6.6,24.1s5.2,6.3,3,7.7c-2.2,1.4-1.4,2-1.1,5c0.3,3-1.4,6.9-2.7,8c-1.3,1.1,19.5,10.1,32.1,17.2
	c12.6,7.1,18.3,10.2,18.3,10.2s15.1-1.6,26.5,1.4c11.3,3,23.6,5.7,32.1,5.7s14.2,0.6,19.1-2.7s11.3-4.7,13.4-4.4
	c2,0.3,12,6.9,12,7.9s-9,2.2-9.9,3.3c-0.9,1.1-10.9,3-12.4,4.3c-1.6,1.3-9.1,3.3-12.1,2.8c-3-0.5-10.7-0.9-10.7-0.9
	s-25.4,4.6-39.4,3.8c-14-0.8-26.8-6.9-26.8-6.9s-38-16.1-39.5-13.5s1.6,28.4,0.5,39.1s-14.3,43.3-14.5,51.5
	c-0.2,8.2,1.9,15.1,3.5,15.1c1.6,0,25.8-7.4,43.6-7.1c17.8,0.3,31.8,0,34.7,6.1s27.1,40.6,37.3,59.2c10.2,18.6,16.7,29.1,26.6,29
	s26.2-19.2,31-16.2c4.9,3-1.3,13.1-2.8,16.2c-1.6,3.1-26.8,35-30.9,35s-15-15.9-14.8-16.9s0-3.2,0-3.2c-5.2-9.6-64.6-56.9-62.1-76.4
	c0,0-58.4,16.5-67.6,19.5c-9.1,3-16.5-1.1-26.8,23.8c-10.2,24.9-41.7,64.3-49.8,65.1s-87-32.6-88.9-32.6c-1.9,0-7.6,1.9-7.6,3
	c0,1.1-2.2,2.5-7.4,1.7c-5.2-0.8-11.8-2.2-18.7,2.2c-6.9,4.4-13.4,14-18.3,16.2s-5.7-0.8-5.7-2.5c0-1.7-1.9-13.4,1.9-18.1
	s31.5-37.5,37-36.7c5.5,0.8,17,17.2,19.5,18s4.9,2,4.9,2s37.5-4.3,53.7,4.7s20.5,9.1,20.5,9.1s11-36.9,23-52.3
	c0,0-5.4-27.6,0.6-43.3s15.3-18.1,16.2-26.9c0.9-8.8-2.5-60-2.5-60c-4.2,6.3-10.1,14.2-17.3,18.1c0,0-3.3,41.7-5.7,46.8
	c-2.4,5-13.5,23.2-16.9,23.3c-3.3,0.2-3.3-3-4.6-3.6c-1.3-0.6-2.8-3.6-4.1-4.4c-1.3-0.8-4.1-4.9-3.2-6.6c0.9-1.7,15-13.9,15-13.9
	s-1.3-40.6,2-49.2s36.2-53.6,42.5-56.9C237.2,145.4,248.3,149.8,247.6,142.5z"/>
</svg>
