<?xml version="1.0" encoding="utf-8"?>
<!-- Generator: Adobe Illustrator 26.3.1, SVG Export Plug-In . SVG Version: 6.00 Build 0)  -->
<svg version="1.1" id="Athletics_javelin_throw" xmlns="http://www.w3.org/2000/svg" xmlns:xlink="http://www.w3.org/1999/xlink"
	 x="0px" y="0px" viewBox="0 0 500 500" style="enable-background:new 0 0 500 500;" xml:space="preserve">
<path id="Athletics_javelin_throw_00000130647140200001792890000008533689464235136675_" d="M457.7,84.5c0.7-2.1-2-6.4-2-6.4
	s-0.1-1.7-1.7-3.6c-1.6-1.9-7.2-2.7-17.6-2.4c-10.4,0.3-17.8,8.5-17.8,8.5l-14.2,10.5c0,0-10.1,5.4-15.6,12
	c-5.6,6.7-15.8,12.5-21.9,15.3c-6.1,2.8-9.5,8.4-11.3,9.3c-1.8,0.9-6.5,0.6-8.6,2.1c-2.1,1.6-1.5,3.3-3.5,3.4
	c-2,0.1-1.4-2.7-1.4-2.7s0.6-12.6,0-16.8c-0.6-4.3-1.5-8.1-2.4-10c-0.9-1.9-0.2-4.8-1.5-8.3c-0.7-1.9-2.2-4.7-5.7-6.4
	c9.4-8.3,18.2-16.2,26-23.7c-9.4,6.7-19.4,14.3-29.9,22.4c-2.6-0.5-6-0.6-10.2,0.1c-14.6,2.4-19.4,21.5-19.4,21.5s0.3,0.6,0.7,1.4
	c-29.7,24.1-60.6,50.2-87,71.9c-0.5-0.6-1.3-1-3-0.9c-5.2,0.3-6.4,4.4-6.4,4.4c-3.1,0.4-4.1,3.9-4.1,3.9c-5.1,1.9-2.9,5.6-2.9,5.6
	s0.1,0,0.3,0.1C151.3,233.9,82,288.2,40,328.4c47.2-33.6,112.4-90.2,158.6-127.7c-2.9,2.9-1.5,5.4-1,5.9c0.6,0.5,4-2.6,6.3-2.8
	c2.3-0.2,5.2-3.7,9.3-6.8c4.1-3.1,4.8-1,9.3-1c4.4,0,23.5,6.3,31.5,5.7c8-0.6,17.9-2,20.8-4.1c3-2,6.4-1.9,15.1-2.3
	c8.7-0.5,18.4-7.4,18.4-7.4s23.5,25.3,27,28.3c3.5,3.1,4.6,22.4,4.6,22.4s-10.6,21.7-11.4,27.9c-0.7,6.2-1,12.5-1,21.4
	c0,8.9,2.3,16.3,2.3,16.3c0,9.5,7.6,36.2,7.6,36.2s-17.5,31.5-22.5,36.6c-5,5.2-5.6,2.2-13.1,4.8c-7.6,2.6-6.5,9.2-7.2,12.5
	c-0.7,3.3-8.3,11-12.1,14.2c-3.8,3.1-6.2,6.4-6,13.3c0.2,6.9,4.3,12,9.1,12c4.7,0,9-4.7,11.7-7.4c2.8-2.7,7.8-11.6,7.8-11.6
	s2.3-0.4,4.8-2.6c2.5-2.2,2.3-6.5,2.3-6.5s1.5-1.7,4.3-4.1s2.3-4.4,2.3-4.4l30.5-30.8c0,0,16.9,39.4,20,42.2c3.1,2.8,7.8,2.5,10.2,0
	c2.4-2.5,10.9-9.4,10.9-13.9c0-4.4-0.6-3.3-6.1-8c-5.6-4.7-11.1-11.4-14.7-20.5c-3.6-9.2-3.1-21.6-3.1-21.6s7.5-14.2,21.4-30.8
	c13.9-16.7,21.9-46.1,22.1-57.2c0.2-11.1-1.5-14.8-2.3-18.7c-0.8-3.9,1.1-7.5,0.7-12.4c-0.4-4.9-17.9-63.6-18.8-73.6
	c-0.8-10.1-3.5-14.2-3.5-14.2s12-9.1,13.6-12.5c1.6-3.4,6.4-8,10.4-11.1c4-3.1,12.3-12.7,12.3-12.7s4.3-9.5,7.6-9.8
	c3.3-0.3,5.6,2,11.5,1.8c5.8-0.3,5.9-3.6,5.9-3.6s4.1,2.3,6,2.3c1.9,0,3-2.2,3-2.2s2.3,0.8,3.2-0.7
	C460.4,87.5,457.7,84.5,457.7,84.5z M320.3,152.2c-0.5,0.6-14.7,0.6-18.7,3.9c-4,3.2-12.8,13.2-12.8,13.2
	c-13.6,5.8-19.2,12.6-20.4,13.4c-1.3,0.8-8.7,0.6-13,0.6c-4.3-0.1-28.9,1.2-36.4,1.9c-0.8,0.1-1.4,0.1-2,0.1
	c25.8-21.3,56.4-46,85-70.1c0.4,0.8,0.8,1.5,1,1.9c0.8,1.5,0.2,3.1,1.5,6.5c1.3,3.4,4.9,6.8,7.2,5.7c2.3-1,7.4,13.4,8.4,14.9
	C321.1,145.7,320.8,151.6,320.3,152.2z"/>
</svg>
