<?xml version="1.0" encoding="utf-8"?>
<!-- Generator: Adobe Illustrator 26.3.1, SVG Export Plug-In . SVG Version: 6.00 Build 0)  -->
<svg version="1.1" id="Athletics_long_jump" xmlns="http://www.w3.org/2000/svg" xmlns:xlink="http://www.w3.org/1999/xlink"
	 x="0px" y="0px" viewBox="0 0 500 500" style="enable-background:new 0 0 500 500;" xml:space="preserve">
<path id="Athletics_long_jump_1" d="M110.7,207.1c0,0-12.7,8-11.7,13c1.1,5,6.6,15.9,9.8,15.7s5.6-6.9,6.6-8s6.9-4.2,7.2-8.5
	c0.3-4.2,1.6-14.3,1.6-14.3s26.5-49.1,27.9-50.7s22.3-6.6,36.4-22.6c0,0,26.5,66.1,27.6,76.2s-10.3,32.6-8.8,48.3
	s17.5,22.3,18.8,29.5s-7.4,42.6-4.8,56.6c0,0-15.9-0.4-36.6,18.7c-20.7,19.1-35.6,38.2-40.6,37.9c-5-0.3-19.4-2.9-21.8,0
	c-2.4,2.9-0.8,17.8-2.4,26.8s-2.9,23.6-1.9,29.7c1.1,6.1,4,8.2,6.1,8.2s4.8-18.6,6.4-21.5s17.8-18,20.2-18.6
	c2.4-0.5,2.4-7.7,2.4-7.7s86.2-48.6,90-51.5c3.7-2.9,7.7-15.7,9.6-17.8c1.9-2.1,17-37.7,17-58.1c0,0,23.4,6.9,32.6,6.1
	c0,0,2.4,20.7,9,36.4c6.6,15.7,28.9,37.9,31.8,48c0,0-1.1,2.1,0,6.9s6.9,11.9,7.2,15.9c0.3,4,9.6,7.2,14.9,3.4
	c5.3-3.7,11.7-10.9,18.3-12.7c6.6-1.9,17.8-10.3,18.3-17c0.5-6.6-5.3-6.4-8-5.8c-2.7,0.5-5.8,5.6-11.7,6.6s-13.8,0.8-15.9-3.7
	c-2.1-4.5-5-5.3-6.4-5.3c-1.3,0-3.4-4.2-3.4-4.2s-24.4-53.9-26.5-68.7c-2.1-14.9-2.1-18.6-6.4-21.5c-4.2-2.9-49.9-32.4-50.9-33.2
	c-1.1-0.8,1.6-14.9-5-19.1l0.5-69.3c0,0,27.9,30.8,36.1,30.2c8.2-0.5,14.6-30.5,14.6-56c0,0,7.7-8,7.2-11.1
	c-0.5-3.2-7.7-13-10.9-13.5c-3.2-0.5-2.7,4.5-4.5,4.5s-3.2,0.8-3.2,3.2s1.3,11.7,1.1,13.5c-0.3,1.9-5.3,28.1-5.3,28.1
	s-31-41.4-36.9-43.5s-18.3,0-20.4-3.4c-2.1-3.4,1.1-6.9,2.4-6.9c1.3,0,8.5,0,9.3-2.4s0.8-10.1,1.3-11.4c0.5-1.3,3.2-0.5,3.2-1.9
	s-3.4-8-3.4-11.9c0-4,0.2-16.5-8.1-25.2c-8.3-8.8-27.7-4.5-33.6,5.8s-4.5,24.9,2.7,33.4s5,15.4,2.9,16.2c-2.1,0.8-24.4-2.4-31.6,2.7
	c-7.2,5-45.9,33.7-51.2,41.1S110.7,207.1,110.7,207.1z"/>
</svg>
