<?xml version="1.0" encoding="utf-8"?>
<!-- Generator: Adobe Illustrator 26.3.1, SVG Export Plug-In . SVG Version: 6.00 Build 0)  -->
<svg version="1.1" id="Athletics_running" xmlns="http://www.w3.org/2000/svg" xmlns:xlink="http://www.w3.org/1999/xlink" x="0px"
	 y="0px" viewBox="0 0 500 500" style="enable-background:new 0 0 500 500;" xml:space="preserve">
<path id="Athletics_running_2" d="M242.9,123.7c0,0,0.6-5-2.2-6.9c-2.8-1.9-7.2-8.3-7.2-24.8s6.3-25.9,19.6-25.9
	c13.2,0,20.4,14.9,21.5,21.8s2.2,4.1,1.7,9.9c-0.6,5.8-10.5,17.4-10.8,22.3c-0.3,5,2.5,8.8,6.3,9.1c3.9,0.3,6.6,2.5,10.8,0
	c4.1-2.5,11.9-6.6,19.9-7.2c8-0.6,18.5-7.4,20.1-12.7c1.7-5.2-2.5-30.1-2.2-43.3c0,0-3-8.3-7.4-10.2c-4.4-1.9-9.7-5.8-9.1-11.3
	c0.6-5.5,9.4-11.3,12.7-11.3c3.3,0,11,5.8,13,8.8s3.3,14.6,3,18.8s11.9,51.9,9.7,59.6s-42.5,40.8-44.7,46.3
	c-2.2,5.5-11,54.3-11.9,66.5s9.9,29.2,9.4,52.4c-0.6,23.2-16.5,48.8-17.1,55.2c-0.6,6.3,3,31.2,1.9,50.5
	c-1.1,19.3-14.3,34.5-13.2,41.4s0.8,19,2.5,21.2c1.7,2.2,4.1,8.3,1.4,10.2s-19.6,1.7-22.6,0c-3-1.7-1.7-7.7,0-11
	c1.7-3.3,1.1-25.1,4.4-30.1c3.3-5,1.9-6.3,0.8-20.4c-1.1-14.1-0.6-76.1-2.5-76.4c-1.9-0.3-5.2,20.1-8,28.7
	c-2.8,8.6-10.5,13.8-13.5,13.8s-17.4-5.2-19.6-30.6c-2.2-25.4-2.2-53,0-59c2.2-6.1,3.9-20.4,3.9-20.4s-1.7-90.5-0.8-93.8
	c0.8-3.3-30.1-25.9-30.1-25.9s-21.2-15.4-23.7-26.5s0-54.9,0-54.9s0.6-5.8-1.1-10.8c-1.7-5,3-7.7,6.1-9.7c3-1.9,12.1-3.6,15.2-0.3
	c3,3.3,2.2,7.4,2.8,8.8s-4.4,7.7-6.1,8.8s-4.7,2.5-4.4,8.8c0.3,6.3,1.7,31.2,1.7,34.8s0.3,5.5,5.5,8.3c5.2,2.8,20.1,18.5,25.4,19
	c5.2,0.6,19.9,5,23.4,6.9s12.7-0.6,14.3-2.5C243.2,127.8,242.9,123.7,242.9,123.7z"/>
</svg>
