<?xml version="1.0" encoding="utf-8"?>
<!-- Generator: Adobe Illustrator 26.3.1, SVG Export Plug-In . SVG Version: 6.00 Build 0)  -->
<svg version="1.1" id="Слой_1" xmlns="http://www.w3.org/2000/svg" xmlns:xlink="http://www.w3.org/1999/xlink" x="0px" y="0px"
	 viewBox="0 0 500 500" style="enable-background:new 0 0 500 500;" xml:space="preserve">
<path id="Badminton_1" d="M445.5,163.6c0,0,0.5-2.4,0.7-3.8c0.2-1.4-0.7-3.3-0.7-3.3s0.2-1.2,0-2.2c-0.2-1.1-1.6-0.6-1.6-0.6
	s0.1-3.1,0-4.7s-3.3-1.4-3.3-1.4s-0.9-2.9-2.1-4.5c-1.2-1.5-3.5-1.9-3.5-1.9l-13.4-21.4l-13-29.3c0,0,4-1.6,6.6-10.4
	c2.6-8.7-0.6-20.6-9.3-31.7c-8.7-11.1-18.1-7.3-18.1-7.3s-13.7,2.7-7.2,29.4C387,97.3,407,91.3,407,91.3l13.4,29l9.8,26
	c0,0-0.5,0.9-2.2,4.1c-1.8,3.2-0.1,14.8-1.1,16.3c-0.9,1.4-7.7,4.2-11.2,6.6s-16,5.9-22.1,7c-6.1,1.1-10.7,5.7-10.7,5.7
	c-3.5,0.2-21,0.2-26.6,0c-5.7-0.2-4.7-2.1-14.4-5.4c-9.7-3.3-14-1.9-21.1-2.4c-7.1-0.5-14.4-4.7-14.4-4.7s6.6-3.5,7.7-6.5
	c1.1-2.9-0.8-3.3-2.4-11.4c-1.5-8.1-4.9-12-6.5-13.2c-1.5-1.2-1.4-2.4-2.6-5.8c-1.2-3.4-9.4-7.3-10.2-7.9c-0.8-0.6-0.4-1.4,0.4-1.9
	c0.7-0.5,0-2.7,0-2.7c-17-4.2-36.6,2.1-36.6,19.6s16.6,25.4,16.6,25.4s-8.2,0.1-17.5,1.6c-9.3,1.5-21.8,9.3-24.7,13.3
	c-2.9,4-16.1,13.3-19.9,16.1c-3.8,2.8-4.5,5.7-5.2,5.9c-0.7,0.2-5.4,0.2-5.4,0.2c-8.4-3.4-14.6-20.4-14.6-20.4s-5.4-11.3-9.8-11.5
	c-4.4-0.2-7.4-3.9-9.8-4c-2.4-0.1-0.2,4.6-2.1,5.3c-1.9,0.7-1.4,5.4-1.1,6c0.4,0.6,0.5,4.2,0.8,4.7c0.4,0.5,0.7,2.8,1.2,3.1
	c0.5,0.2,0.8,2.5,1.2,2.7c0.4,0.2,4.5,1.4,7.3,1.4s5.7,3.9,6.4,4.5c0.7,0.6,2.6,9.8,4.4,15.8c1.8,6,11.3,15.9,11.7,15.9
	c0.4,0,5.4-0.1,7.8-1.9c2.4-1.8,32.9-10.8,32.9-10.8l-10,27l-18.3,16.4c0,0,0,0.9-4.6,7.2c-4.6,6.2-9.5,33.7-9.5,33.7
	c-13.8,11-29.9,32.5-33.6,35.7c-3.7,3.2-32.2,14.6-37.8,18.6c-5.7,4-23.8,26.4-23.8,26.4l-0.8,0.5c0,0-7.3,7.1-12.7,11.3
	c-5.4,4.2-9.5,3.2-9.5,3.2s-0.9-0.7-0.9-1.3c0-0.6-8.7-2.1-13.8-2.1c-5.1,0-7.9,6.5-8,13.4c-0.1,6.9,3.1,10.2,3.4,14.5
	c0.4,4.2-3.4,11.2-3.4,17.4s4.2,17.1,11.5,19.8c7.3,2.7,10.1-1.6,11-2.5c0.8-0.8-0.1-13.4,1.8-16.7c1.9-3.3,7.5-14.5,7.5-14.5
	s4.5-2,4.7-3.2c0.2-1.2-0.6-3.3-0.6-3.3c9.3-12,20.6-18.5,22-19.4s0.5-1.3,0.5-1.3l66.1-35.6c0,0,30.5-16,39-21.1
	c8.5-5.1,24.7-16.5,24.7-16.5s16.8,7.3,23.4,8c6.6,0.7,13.2,3.2,13.2,3.2s-1.3,20,0.9,29.1c2.2,9.1,6.4,17.1,12.3,26.6
	c5.9,9.5,13.1,29.4,13.1,29.4s-1.3,3.4-1.3,5.1s7.5,13.7,9.3,14.5c1.8,0.8,7.4-2.2,10.2-4.6c2.8-2.4,2.7-3.1,3.9-7.7
	c1.2-4.6,6.6-5.4,10.7-9.8c4.1-4.4,7.1-9.9,8-14.1c0.9-4.2-0.2-6.2-3.2-6.8c-2.9-0.6-8.4,3.9-11.1,6c-2.7,2.1-9.8,3.1-11,3.1
	c-1.2,0-7.7-8.8-10.2-14.6c-2.6-5.8-3.5-20.4-4.5-27c-0.9-6.6-3.9-20.4-4.7-26.3c-0.8-5.9,0.7-10.7-1.2-19.7c-1.9-9-28-28.9-31.1-30
	c-3.1-1.2-2.6-2.9-1.6-5.3c0.9-2.4,19.1-22.9,22.4-24.7c3.3-1.9,15-22.3,20.6-28.4c5.7-6.1,11.3-14.4,13.1-15.9
	c1.8-1.5,16.4-5.3,20-6.4c3.7-1.1,10.5,0.6,10.5,0.6s31.7,0.8,49.6-8c17.9-8.8,37.8-30.5,37.8-30.5s0.9,0.8,2,0.8s5.7-4.4,5.7-4.4
	L445.5,163.6z M406.1,89c0,0-18.2,5.5-24.1-18.8s6.5-26.8,6.5-26.8s8.6-3.4,16.5,6.6c7.9,10.1,10.8,20.9,8.5,28.8
	c-2.4,7.9-6,9.4-6,9.4L406.1,89z"/>
</svg>
