<?xml version="1.0" encoding="utf-8"?>
<!-- Generator: Adobe Illustrator 26.3.1, SVG Export Plug-In . SVG Version: 6.00 Build 0)  -->
<svg version="1.1" id="Слой_1" xmlns="http://www.w3.org/2000/svg" xmlns:xlink="http://www.w3.org/1999/xlink" x="0px" y="0px"
	 viewBox="0 0 500 500" style="enable-background:new 0 0 500 500;" xml:space="preserve">
<path id="Badminton_2" d="M395.1,405.2c-1.9-3.8-2.7-0.9-2.7-11.8s-2.4-49.9-8.7-59.4S367.2,311,367.2,311h4
	c0,0,18.1-58.9,15.8-79.9c-2.4-21-5.9-30.2-17-43.4c-11.1-13.2-35.1-49.5-35.1-49.5s-18.1-29-29.5-34.9c-11.3-5.9-23.1-6.1-22.6-9.4
	c0.5-3.3,10.4,2.1,10.4-11.8c0-13.9-12.7-15.5-12.7-15.5s-3.1-23.3-21.4-26.4c-14.8-2.5-25.1,0.4-32.2,10
	c-3.3,4.5-4.6,10.3-3.6,15.8c0.3,1.4,0.6,2.9,1,4.2c1.4,4.7-0.2,8.7,1.2,17c1.4,8.2,9.9,21.2,14.4,20.7c4.5-0.5,6.1-2.3,5.9,0
	c-0.2,2.3-14.1,3.3-11.7,20.3c2.5,17,25.3,51.6,25.3,51.6s-8,1.9-13.2,2.1c-5.2,0.2-14.8-2.6-20-1.9c-5.2,0.7-5.9,1.9-5.9,1.9
	l-59.8-29c0,0,7.3-17.4-16.3-34.4c-23.6-17-39.3-2.1-41.5,2.8c-2.1,4.9-3.5,19.6,12.7,35.1c16.3,15.5,36.8,7.8,43.4-1.2l59.1,28
	c0,0,0.7,7.3,3.8,8.2c3.1,0.9,5.9-0.2,6.6,0c0.7,0.2,31.1,17.4,31.1,17.4s4.5-6.1,2.8-8.2s-9.9-5.9-9.9-5.9s2.8-2.6,5.7-2.6
	c2.8,0,7.1-3.1,7.1,4.9c0,8-4.7,35.3-4.7,35.3s-9.4,7.5-11.8,11.8c-2.4,4.2-1.6,11.1,2.4,17c4,5.9,4.7,4.9,4.7,0c0-4.9,0-6.4,3.8-9
	c3.8-2.6,8.7-6.4,10.4-13.7c1.6-7.3,13-37.2,13-37.2l15.1,24.7c0,0-5.2,16.5-7.8,21.7c-2.6,5.2-35.8,57-37,72.6
	c-1.2,15.6,0,24.3-0.9,33c-0.9,8.7-2.4,69-2.4,69s-3.8-1.4-7.1,3.5c-3.3,4.9,0.2,4.2-4.9,7.8c-5.2,3.5-5.7,4.5-9,4.5
	c-3.3,0-13-0.9-14.8,0s-5.2,2.8-4.5,9.4c0.7,6.6,29.5,11.3,36,11.3c6.6,0,3.1,1.9,14.4,1.4c11.3-0.5,18.6-2.6,18.4-5.2
	c-0.2-2.6-4.7-24.5-5.9-24.7c-1.2-0.2-2.4-1.6-2.4-2.6c0-0.9,5.2-29,9.9-47.1c4.7-18.1,7.3-36.5,2.4-45l31.3-35.3
	c0,0,9.9-1.4,14.6,1.2c4.7,2.6,4.7,2.6,4.7,2.6s1.9,8.7,5.2,13c3.3,4.2,8.2,3.8,14.1,19.8c5.9,16,18.4,41.9,20.3,46.2
	c1.9,4.2,0.5,13.2,0,13.4c-0.5,0.2,0.5,5.7-1.9,7.3c-2.4,1.6-15.6,2.4-18.6,5.7c-3.1,3.3-3.5,10.4-0.7,12.3c2.8,1.9,21,1.2,27.1,4.5
	c6.1,3.3,10.2,2.4,16.8,1.4C401.7,426.6,397,409,395.1,405.2z M157,151.2l-1.5,2.1c-5.8,7.9-24,14.8-38.4,1
	c-14.4-13.8-13.2-26.7-11.3-31.1c1.9-4.4,15.9-17.5,36.7-2.5S157,151.2,157,151.2z"/>
</svg>
