<?xml version="1.0" encoding="utf-8"?>
<!-- Generator: Adobe Illustrator 26.3.1, SVG Export Plug-In . SVG Version: 6.00 Build 0)  -->
<svg version="1.1" id="Basketball" xmlns="http://www.w3.org/2000/svg" xmlns:xlink="http://www.w3.org/1999/xlink" x="0px" y="0px"
	 viewBox="0 0 500 500" style="enable-background:new 0 0 500 500;" xml:space="preserve">
<path id="Basketball_1" d="M241.1,63.7c0,0,4.2,4.2,5.4,5.1s2.4,0.9-4.2,5.7c-6.6,4.8-29,24.5-29.9,31.7s5.1,35.9,18.8,48.4
	c0,0-12.5,28.7-16.1,57.1c0,0-8.7-1.2-12.3-3c-3.6-1.8-7.2-11.7-7.2-11.7s-1.3-7.8,0-11.1c0,0,0.7-2.8-2.6-2.4
	c-3.4,0.4-3.3,9.3-2.7,12.3s-13.9-2.9-15.7-4.2c-1.8-1.3-5.8-3.4-6.6-2.2c-0.7,1.2,1.3,5.2,3.7,6.9c2.5,1.7,2.9,2.2,2.9,2.2
	s-8.8-4-9.3-0.7c-0.4,3.4,4.7,3.7,4.7,3.7s-2.4,0.8-2.2,2.8c0.2,1.9,5,4.1,5,4.1s-4.3,1-2.2,3.3c2,2.2,12.4,5.2,18.9,5.2
	c6.5,0,5.5-0.1,10.8,4.4c5.4,4.5,13.5,9.6,13.5,9.6s-0.8,12.4,2.8,18c3.6,5.6,4.9,7.4,3.4,11.4c-1.6,4-7.2,11.9-8.3,21.1
	c-1.1,9.2-11.7,10.1-15.2,21.7c-3.6,11.7,0.9,9.4-1.6,15.7c-2.5,6.3-4.7,3.6-4.7,12.5c0,9,0,71.7-6.7,84c0,0-5.4,2.7-6.3,8.1
	c-0.9,5.4-1.6,8.1-6.7,13c-5.2,4.9-11.4,11.9-18.4,15c-6.9,3.1-10.5,4-10.5,8.3c0,4.3,5.6,4.5,18.2,4.5c12.5,0,19.9-4,30.3-4.9
	c10.3-0.9,17.7-1.6,18.2-5.8c0.4-4.3-6.1-22.6-5.6-29.1c0.4-6.5-0.4-11-0.4-11s17.7-39.4,17.7-51.5s-3.8-18.8-3.8-18.8l11.2-14.6
	c0,0,20.4,42.4,23.5,45.5c3.1,3.1,13.9,7.8,21.5,13.4c7.6,5.6,35,18.6,55.8,43.7c0,0,0.4,3.6,4.3,8.3c3.8,4.7,4,31.6,7.6,31.8
	s10.8-9.2,12.5-19s-0.7-16.1,2-19.5c2.7-3.4,4-10.3,3.8-14.1s-1.8-6.9-3.8-6.9s-13.9,1.6-15.2,1.6c-1.3,0-4.9-1.8-5.6-1.8
	s-23.8-22-34.7-35.9c-11-13.9-26-19-26-19l-5.2-24.2l3.4-1.3c0,0-9-29.8-7.6-34.1s9.6-15.5,9.6-24.4c0-9-7.2-21.7-6.9-25.8
	c0.2-4,1.3-19.5,1.3-19.5s29.4-30.5,28.7-49.5c-0.7-19-17.7-21.7-17.7-21.7s-1.3-2.2,0.2-4c1.6-1.8,19-12.1,19-22.4s-7.8-23.5-19-22
	c-11.2,1.6-14.6,10.5-17.7,11c-3.1,0.4-4.7,1.3-3.9,3.1c0.8,1.9,0.1,3.1,0.1,3.1s-7.5,6.8-6.7,10c0.8,3.2,7.8,11.6,7.1,12.5
	s-4,0.4-5-2.2c-1-2.6-9-7.8-11.4-15.1c-2.5-7.3-4.5-14.3-9-18.7c0,0,19-28.8,31.9-36.7s13.7-23.9,13.7-26.5c0-2.6-4-20-21.5-20
	c-17.5,0-23.2,13.8-23.2,21.9S239.6,64.2,241.1,63.7z"/>
</svg>
