<?xml version="1.0" encoding="utf-8"?>
<!-- Generator: Adobe Illustrator 26.3.1, SVG Export Plug-In . SVG Version: 6.00 Build 0)  -->
<svg version="1.1" id="Basketball" xmlns="http://www.w3.org/2000/svg" xmlns:xlink="http://www.w3.org/1999/xlink" x="0px" y="0px"
	 viewBox="0 0 500 500" style="enable-background:new 0 0 500 500;" xml:space="preserve">
<path id="Basketball_2" d="M348.7,420.4c0-7.3-2.9-12.6-7.1-12.6c-4.2,0-8.9,3.1-8.9,3.1s-6.5,5-16.5-7.3
	c-9.9-12.3-17.8-16.2-17.8-16.2l3.7-15.2l6-2.6c0,0,6-36.9,8.1-53.1c2.1-16.2,3.1-33.2,2.4-43.2c-0.8-9.9,12.6-43.7,15.4-50.2
	c2.9-6.5,10.5-30.1,12.3-43.4c1.8-13.3,0-17.8-6.3-25.9c-6.3-8.1-23.3-2.9-23.3-2.9s-2.4-0.5,1-3.1c3.4-2.6,6.8-17.3,7.1-21.4
	c0.3-4.2,2.4-23.3-14.9-23.3c-17.3,0-19.4,20.1-19.4,20.1s-3.1,1.8-3.1,6.8c0,5,3.4,7.8,5,8.1c1.6,0.3,0.3,13.1,0,16.7
	c-0.3,3.7-4.7,3.4-11,4.4c-6.3,1-20.9,18.3-27.7,18.3c-6.8,0-34.5-29.8-34.5-29.8s2.4-0.8,2.4-13.3s-14.6-23.3-22-23.3
	c-7.3,0-27.7,2.4-25.9,23.8c1.8,21.4,13.3,21.2,13.3,21.2l6,6.8c7.3,40.8,18.3,60.2,20.9,62c2.6,1.8,39.8-12.3,39.8-12.3
	s-1.8,25.6-2.4,38.2c-0.5,12.6-20.4,25.4-20.4,25.4s-33.2,9.4-40,19.4c-6.8,9.9-28.5,23.3-31.9,31.7c-3.4,8.4,4.4,60.7,4.4,60.7
	c2.3,17.8-1.3,26.7-2.7,27.7c-1.4,1-1,6-4.4,13.3c-3.4,7.3-25.6,26.7-26.9,27.5c-1.3,0.8-2.1,7.1,9.4,7.1c11.5,0,22.8-5,25.1-6.8
	c2.4-1.8,3.9-6,10.7-7.1c6.8-1,17.5-6.3,18-10.7c0.5-4.4-9.2-12.6-9.9-18.3c-0.8-5.8-3.7-7.3-3.7-7.3s-0.8-3.9,0.5-14.1
	c1.3-10.2,7.6-27.2,7.6-37.7c0-10.5-1.6-21.2-1.6-21.2c3.7-0.3,23.8-6,23.8-6l7.3,4.2c0,0,31.1-13.1,33.2-12c2.1,1,7.6,39,7.6,39
	l9.9,6.3c0,0,1.8,26.9,4.4,32.2s38.7,19.9,39,22s6.5,6.5,8.1,8.4c1.6,1.8,3.7,13.9,1.8,23.8c-1.8,9.9-2.9,15.2,5.8,15.2
	c8.6,0,20.9-18,20.9-24.8c0-6.8-1.8-12-1.8-15.2C345.8,430.1,348.7,427.7,348.7,420.4z M225,199.9c-1-0.8-19.6-40.3-19.6-40.3
	l3.4,1.6l30,28.5C238.7,189.7,226,200.7,225,199.9z"/>
</svg>
