<?xml version="1.0" encoding="utf-8"?>
<!-- Generator: Adobe Illustrator 26.3.1, SVG Export Plug-In . SVG Version: 6.00 Build 0)  -->
<svg version="1.1" id="Basketball" xmlns="http://www.w3.org/2000/svg" xmlns:xlink="http://www.w3.org/1999/xlink" x="0px" y="0px"
	 viewBox="0 0 500 500" style="enable-background:new 0 0 500 500;" xml:space="preserve">
<path id="Basketball_3" d="M253.3,166.1c0,0-1.3-0.8-1.1-1.8s3.3-4.6,3.3-9.4c0-4.7-4.4-5.3-4.5-7.6c-0.1-2.4,0.9-22.7-20.9-22.7
	s-21.3,25-21.2,28s3.6,9.8,4.2,15.7c0.6,5.9,3.4,14.1,6.9,14.3s0.8,3-2,5.8c-2.8,2.8-13.8,15.2-13.8,33.3s2.6,20.2,1.5,23.6
	c-1.1,3.3-25.6,50.7-25.6,50.7l-35.3,39.6c0,0-14.6-0.6-15.5,0c-0.9,0.6-1.7,3-1.7,3s-17.7,7.6-17.7,30s17.9,29.6,28.4,29.6
	s31.7-4,31.7-30.4c0,0,0.7-12.6-9.5-23.8c0,0,42.9-38.3,46.6-43.6c3.7-5.3,23.5-52.2,24-52.5c0.4-0.3,15.8-1.7,16.7,1.6
	c0.9,3.3,2.9,12.9,4,14.6c1.1,1.7,1,2.6-1.3,7.5s-0.9,14.2-1.9,18.1c-1,3.9-18.9,16.2-17.2,18.9c1.7,2.7,3.9,2.3,1.4,4.4
	c-2.4,2.2-14.2,9.5-16.4,20.7c-2.2,11.2-2.7,54.1-5,63.3c-2.3,9.2-2.7,12.2-4.4,12.8c-1.7,0.6-2.6,3.4-2.6,5.3c0,1.9-1.9,6-4.6,7.8
	c-2.7,1.7-22.4,11.1-23.3,15.6c-0.9,4.6,11.5,18.2,16.7,18.4c5.2,0.1,16.4-7,20.7-6.6s9.2-11.5,10.6-18.8s-0.4-11.9-0.9-12.2
	s2.4-12.6,2.4-12.6s16.5-29.7,18.7-42.5c2.2-12.8,1.6-16.1,2.9-17.8c1.3-1.7,18.4-1.6,18.4-1.6l2,7.8h1.1c0,0-1.7,7.6,0.9,11.6
	c2.6,4,41.3,34.2,43.1,39s2.6,10,2.2,12.3c-0.4,2.3-3.7,16.5-9.8,25.8s-4.7,8.8-4,11.2c0.7,2.4,1.6,4.3,12.1,4.3s20.7-9.2,22.5-13.1
	c1.9-3.9,1.3-5.3,3.4-8.8c2.2-3.4,14.4-13.2,14.6-18.9s-5.9-11.2-10-13.9c-4.2-2.7-9.9-10.3-10.9-10.3c-1,0-2.3,0-2.3,0
	s-5.2-3.7-9.2-15.4c-4-11.6-20-20.4-20.1-22.1c-0.1-1.7,0.3-3.4,0.3-3.4s11.6,1,12.3-0.6c0.7-1.6,1.6-26.1,3-28
	c1.4-1.9,30.6-16.9,30.9-39.9c0.3-23-6.6-15.5-6.9-26.8c-0.3-11.3-7.9-14.6-8.9-21.4c-1-6.7-1.6-19.5-1.6-19.5s13.5-0.4,15.6,1.9
	s10.9,24.8,11.3,32.9c0.4,8,1.3,15.9,1.3,19.2s1.9,10.8-0.6,15.4c-2.4,4.6-3,13.1-3,13.1s1.5,1.4,4.3-1.7c2.8-3.2,4.1-8,6.2-7.2
	s5.6,15.1,8.8,15.5c3.2,0.4,3.6-2,2.9-3.4c-0.7-1.4-2.6-7.3-1.9-8.3c0.7-1,6.9,7,8.5,7.2c1.6,0.1,2.4-2.6,1.4-3.7
	c-1-1.1-2.7-3.4-2.3-4.6c0.4-1.1,5,4.2,6.2,2s0.1-2.9,0-3.6c-0.1-0.7-1.4-2.9-1.4-3.4c0-0.6,1.9,0.3,1.3-2.3
	c-0.6-2.6-1.9-6.3-6.2-10.5c-4.3-4.2-7.9-4.3-8.6-9.2s0.1-49.2-6-57.3c-6.2-8-19.4-23.4-59.1-30.7c0,0-28.3-9.2-42.1-9.2
	C253.6,166.5,254.4,167.9,253.3,166.1z"/>
</svg>
