<?xml version="1.0" encoding="utf-8"?>
<!-- Generator: Adobe Illustrator 26.3.1, SVG Export Plug-In . SVG Version: 6.00 Build 0)  -->
<svg version="1.1" id="Basketball" xmlns="http://www.w3.org/2000/svg" xmlns:xlink="http://www.w3.org/1999/xlink" x="0px" y="0px"
	 viewBox="0 0 500 500" style="enable-background:new 0 0 500 500;" xml:space="preserve">
<path d="M201.3,103.4c0,0-16.9,6.2-14.8,18.4c0,0,0.2,6.2,4.3,9.6c0,0,0.5,1.8-0.2,2.3c-0.7,0.5-2.7,2.6-2.7,2.6l-14.1-11.9
	c0,0,1.3-0.7,0-2.2c-1.3-1.5-8-9.4-16.4-13.8c0,0,2.7-5.1-5.2-12.9s-10.5-11.9-17.8-11.9s-25.4,8-23.3,19.6s8.4,18.5,15.5,17.4
	c7.1-1.1,7.6-3,8.5-2.4s4.3,2.4,6,2.4c1.7,0,12.3,13,13,13.7c0.7,0.7,1.9,0.5,1.9,0.5s4.6,4.3,7.1,9.6c2.5,5.3,14.2,20.4,20.7,20.2
	c6.5-0.2,25-12.8,26-12.7c1,0.1,16.1,21.9,17.1,31.6c1,9.8,2,16.7,3.3,22.8s2.4,14.4,2,17.7c-0.4,3.3-14.2,12-19.7,19.9
	c-5.5,7.9-2.4,7.7-5.5,9.1c-3,1.4-5.5,6.9-6.3,8.1c-0.8,1.2-4.1,2-5.7,5.5S177,295.9,177,295.9s-13,12.8-14,17.3
	c-1,4.5-2,10.2-4.3,13.4s-8.9,14.8-16.3,40.2c-7.3,25.4-10.4,28.3-10.4,28.3s-5.9,7.9-5.9,10.6c0,2.6-8.5,4.1-12.8,10
	c-4.3,5.9-10.8,10.2-15.4,12s-6.3,3.3-6.1,5.5c0.2,2.2,3.5,4.3,16.1,4.3s12.2-5.9,16.9-5.7c4.7,0.2,10.6,1.4,14.6-0.4
	c4.1-1.8,6.1-6.3,6.1-10.6s-2.2-7.1-0.8-10.4s8.1-18.3,8.1-19.1c0-0.8,4.1-10,9.3-15.4c5.2-5.5,14.1-16.1,15.7-27
	c1.6-11,24.8-31.1,24.8-31.1l19.9,6.1c0,0,30.9-32.5,35.8-33.5c4.9-1,10,8.9,13.2,9.4s16.5,33.9,16.5,33.9l3.3-0.8
	c0,0,4.5,7.3,7.3,9.4c2.8,2,8.5,4.9,10.8,8.3c2.2,3.5,9.1,10.6,13.8,12.6c4.7,2,5.5,4.1,6.9,6.1c1.4,2,5.1,9.8,17.3,19.5
	c12.2,9.8,16.1,15.2,16.9,17.3c0.8,2,0,2.8,1.8,4.7s5.7,10.6,6.1,13.2c0.4,2.6,3.3,10.8,3.3,15.7s-1.2,11-0.8,13
	c0.4,2-0.4,4.3,8.3,4.3s14.8-4.7,15.4-10c0.6-5.3-0.6-18.9-5.1-26.6s-13.6-23-14.2-23s-3-2.2-3.7-4.7s-13.2-31.1-24-41.5
	c-10.8-10.4-11.8-8.1-14.8-13s-4.7-9.8-4.7-9.8s0.6,0.6,0.4-1.6c-0.2-2.2-2.8-7.9-5.3-22.8s-8.5-36-9.1-39.6s-2.4-10.4-4.7-14
	s-2.2-14.4-3.3-17.5c-1-3-5.7-12.2-7.7-15.7s-1.8-45.5-1-49.8c0.8-4.3,1.2-21.3-3.7-34.8s-9.8-22.2-14-24.4
	c-4.3-2.2-14.6-2.2-17.9-4.1c-3.3-1.8-7.1-1.2-8.1-1.6c-1-0.4-1.6-2.4-1.6-2.4s2.8-3.9,2.8-9.6s-4.1-28.9-13.6-33.7
	c-9.4-4.9-27.1-2-35.2,4.9c-8.1,6.9-5.3,15-5.3,18.5c0,3.5-1.8,5.5-0.4,7.9c1.4,2.4,2.6,3.5,1.4,5.5S200,102.4,201.3,103.4z"/>
</svg>
