<?xml version="1.0" encoding="utf-8"?>
<!-- Generator: Adobe Illustrator 26.3.1, SVG Export Plug-In . SVG Version: 6.00 Build 0)  -->
<svg version="1.1" id="Basketball" xmlns="http://www.w3.org/2000/svg" xmlns:xlink="http://www.w3.org/1999/xlink" x="0px" y="0px"
	 viewBox="0 0 500 500" style="enable-background:new 0 0 500 500;" xml:space="preserve">
<path id="Boxing_2" d="M221.8,101.3c0,0,0.2-2.5,0-4.7c-0.2-2.1-2.1-11.2-2.1-11.2s-1.9-2.8-1.1-5.1c0.8-2.3,8.9-20.7,25.4-19.5
	c16.5,1.3,19.7,17.1,19.9,20.2s1.1,0.3,1.3,3.9c0.2,3.6-0.8,4.7,1.3,6.8c2.1,2.1,6.1,7.8,8.7,7.8s21.6,0.8,25.4,2.8
	c3.8,1.9,9.5-1.3,14.6,3c5.1,4.2,11.8,34.5,12.1,51.6c0.2,17.1-6.8,29-6.6,35.1c0.2,6.1,8.5,30.3,8.5,30.3s4.4,7.4,6.1,18.8
	c1.7,11.4,8.3,62.8,8.3,62.8l-8,3.2c0,0,1.1,18.8,2.3,21.4s18.4,13.1,25.8,26.7c7.4,13.5,22.2,45.5,23.7,49.1s10.8,13.5,11.2,18.4
	c0.4,4.9-1.1,7.8-4,11.2c-3,3.4-2.8,6.6-5.9,9.9c-3.2,3.4-6.1,8.9-15,8.9c-8.9,0-11-2.1-10.6-5.1s3-7.2,5.1-9.7s3-7.4,4.2-9.1
	c1.3-1.7,2.1-3.4,0.8-6.3c-1.3-3-8.5-15-8.5-16.9c0-1.9-6.6-17.1-9.9-20.1c-3.4-3-37.9-42.3-39.4-48.7s-5.6-25.4-6.8-26.2
	s-6.3,1.7-8,1.7c-1.7,0-11.8,0.4-11.8,0.4l-2.8-8.5l-11.2,6.8c0,0-15-4.4-17.3-4.4c-2.3,0-18.8,27.9-19,29c-0.2,1.1-4.2,5.3-4.9,9.9
	c-0.6,4.7,1.5,20.3-3.6,32.4c-5.1,12.1-11.4,19-11.4,23.7c0,4.7-1.3,9.9-2.5,13.5c-1.3,3.6-1.9,8.9-2.5,12.1
	c-0.6,3.2,0.8,7,1.1,10.4c0.2,3.4,0.3,6.8-1.2,8.9s-11.7,4.7-13.8,4.7s-7.4-0.6-8.9,0.8s-14,3.6-21.4,2.3c-7.4-1.3-6.8-5.1-5.1-6.3
	s21.4-16.7,24.8-21.2s6.8-33,8.3-33c1.5,0,2.1-2.3,2.3-4.2c0.2-1.9,8-40.8,9.3-44.2s0.2-10.8,1.3-16.7c1.1-5.9,13.3-33.6,13.3-33.6
	l-2.1-3c0,0,26.9-59.7,30.9-64.1c4-4.4,4.7-9.1,4.4-11c-0.2-1.9,1.7-9.3,1.7-9.3s-9.9-43.8-15.7-55.9c-5.7-12.1-14.2-24.8-16.3-25
	c-2.1-0.2-37,1.5-43.6,1.5c-6.6,0-15.3,2.1-19.7,2.1s-27.7-9.7-27.7-9.7s-3,2.1-4.4,2.1c-1.5,0-12.5-4.2-14.6-4s-4.9,4.2-10.2,5.3
	c-5.3,1.1-14.8,1.1-15.9,0.4c-1.1-0.6-7-2.1-7.2-10.4s1.5-22.2,21.2-20.5c19.7,1.7,13.1,5.9,20.7,7.8c7.6,1.9,13.1,2.3,13.1,3.6
	s0.4,3,0.4,3s25.4-1.3,31.7,0.8c6.3,2.1,28.6,1.7,31.3,0.6C204.3,108.3,211.2,103.2,221.8,101.3z"/>
</svg>
