<?xml version="1.0" encoding="utf-8"?>
<!-- Generator: Adobe Illustrator 26.3.1, SVG Export Plug-In . SVG Version: 6.00 Build 0)  -->
<svg version="1.1" id="Canoe_00000137828996882404659750000015809357998574876579_"
	 xmlns="http://www.w3.org/2000/svg" xmlns:xlink="http://www.w3.org/1999/xlink" x="0px" y="0px" viewBox="0 0 500 500"
	 style="enable-background:new 0 0 500 500;" xml:space="preserve">
<path id="Canoe" d="M489,289.2L386,286.5l-1.3-2.4l4.8-0.9v-0.9l-37.3,5.2v1.1h-6.5c0,0,2.7-2.4,2.1-4.8
	c-0.6-2.4-20.6-22.3-21.7-22.3c-1.1,0-5.5,0.9-6.9-1c-1.4-1.8-9.2-10.5-9.2-10.5s0.9-2.5,0.2-2.9c-0.6-0.4-0.3-2.4-1.1-2.8
	c-0.7-0.3-1-1.5-1.5-1.6c-0.5-0.1-1.6-1.2-2.2-1.1c-0.6,0.1-2,0.9-2,0.9l-46.9-51.4c0,0,1.9,0.2,1.7-1.2c-0.2-1.4-1.4-1.7-1.4-1.7
	s1.1-1.1,1.1-1.8s-1.5-0.6-1.7-1.4c-0.2-0.7-1.1-1.4-2.2-1c0,0-2.3-0.5-3.5,0.9c-1.2,1.3-4.7,4.7-5.9,7c-1.2,2.3-2.3,3.3-5.8,6.7
	c-3.5,3.4-7.8,10.1-9.2,13.5c-1.4,3.4-2,5-2,5s-1.6,1.6-1.6,4.3s0.9,4.7,1.8,6.7c0.9,2.1-0.3,4.7,2.1,9.3c2.4,4.5,6.2,12.4,6.1,17
	c-0.1,4.6-6.5,11.8-6.2,16.7c0.3,4.9,1.1,6.9,0.5,7.9c-0.6,1.1-7.2,8.9-7.4,13.3l-123.4-2l-0.6,2h-6.2v-1.3h3.4V273H80.5v18.4h5.2
	v1.1c0,0-43.5,4-67.9,6.7c-24.4,2.7,19.8,6.8,19.8,6.8s64.5,6.7,98.8,6c34.3-0.7,214.8,3.1,276.4-2
	C474.6,304.9,492.8,294.3,489,289.2z M262.1,216.6c0.2-0.4-0.4-3.7-0.1-4.6c0.3-0.9,1.4-2.6,1.3-4.5c-0.1-1.9-0.6-5.1-0.6-5.1
	l37.8,41.7c0,0-11.4-1-13.9-1.4c-2.5-0.4-7.2-0.3-7.2-0.3s-8.6-4.3-10-5.1c-1.4-0.9-6.1-7-7.4-7.9s-8.4-2-8.6-2.6
	c-0.2-0.6-1-1.5-1.7-2.1c-0.7-0.6-0.8-0.6-0.7-1.5c0.1-0.9,0.4-1.7,1.2-1.4c0.8,0.4,2.1,1.1,3.1,0.9c1-0.2,4.5-5.4,5-6
	C260.3,217,262,217.1,262.1,216.6z M238.9,217.7c-1.1,0.4-2.1-2.1-2.1-2.1c3.6-3.3,6.2-10.3,7.1-12.8c0.9-2.6,3.3-6.3,4.1-7.1
	c0.9-0.8,2-2,2-2s1.1,0.4,1.9,0.3c0.9-0.1,2.3-0.6,2.3-0.6l3.8,4.3c0.2,0.2,0.3,0.3,0.3,0.3l-0.3-0.3c-0.5-0.4-1.6-0.9-4.4-0.9
	c-4.4-0.1-8,3.2-8.9,5.7c-0.9,2.5-0.7,8.5-1.5,10.8C242.5,215.5,240,217.2,238.9,217.7z M241.7,292.6c1.5-4.3,2.8-4.7,6-8.7
	c3.1-4,4.4-3.3,4.4-3.3c6.7,0.9,19.2-2.4,22-3.6c2.8-1.2,6.6-0.6,6.6-0.6c0.5,11.5,6.7,15.3,6.7,15.3L241.7,292.6z M298,291.5
	c0,0-8.3-22.2-9.5-24.7c-1.2-2.5-4.5-2.7-8.3-2.9c-3.8-0.2-8.1-1.8-13.4-1.8c-5.3,0-10.6,0.4-10.6,0.4c2.5-7.5,1.2-20.4,1.2-20.4
	c4.2,4,11,4.9,15.1,7.1c4.2,2.1,9.5,3.6,12.5,3.6c3,0,11.8-2.1,14-2.7c2.2-0.6,5.6-0.6,5.9-0.2c0.3,0.4,1,0.9,1.5,1
	c0.5,0.1,0.9,0.8,0.9,0.8s9,9.2,10.8,11.4s1,4.1,0.7,5.6c-0.3,1.4,0.7,2.9,2.5,6.4c1.8,3.6,13,14.7,13,14.7L298,291.5z"/>
</svg>
