<?xml version="1.0" encoding="utf-8"?>
<!-- Generator: Adobe Illustrator 26.3.1, SVG Export Plug-In . SVG Version: 6.00 Build 0)  -->
<svg version="1.1" id="Basketball" xmlns="http://www.w3.org/2000/svg" xmlns:xlink="http://www.w3.org/1999/xlink" x="0px" y="0px"
	 viewBox="0 0 500 500" style="enable-background:new 0 0 500 500;" xml:space="preserve">
<path d="M372,271.1c-14.2,0-27.6,3.5-39.3,9.6l-23.9-42.5c5.5-9.4,17.5-28,19.5-30.6c2.4-3.2,9.5-1.9,15.8-3.9
	c6.3-2,11.5-9.8,9.8-12.8c-1.7-3-8.9-0.2-10.7-1.5c-1.9-1.3,4.3,0.7,4.3-20.8s-14.1-30.2-14.1-30.2c-43.6-37.1-83.2-47.3-103.4-47.3
	s-34.3,4.4-34.3,4.4s-7.4-8.2-6.1-11.7c1.3-3.5-1.1-6.7-1.1-9.5s7.6-13.2,0.9-15.6c-6.7-2.4-36,0-50,10.9
	c-14.1,10.9-9.1,29.5-8.5,33.4c0.6,3.9,9.3,1.7,9.3,1.7s4.6,6.7,5.4,8c0.7,1.3-0.4,9.8,0.6,10.7c0.9,0.9,4.6,0.2,5.7,0.2
	c1.1,0,7.6,8.2,10,8.5c2.4,0.4,11.1-2.8,13.3-5.4c2.2-2.6,4.6-2.6,5.6-2.4c0.9,0.2,4.1,5,5.6,6.3c1.5,1.3,0.9,25.8-1.1,33.7
	c-2,8-31.3,43.6-32.4,43.6c-0.1,0-0.3,0.1-0.6,0.2c-3.4-1.4-8.2-2.9-10.4-1c0,0,0,0-0.1,0c-11.8,0.9-24.7,11.8-25,19.3
	c0,1.1,0.3,2.4,0.9,3.8c-2.4,5.2,0,10,6.3,13c1.1,0.1,2.1,0.1,3.1,0c3.8,4.2,7.7,8,10.3,10.5c1.1,1.1,2.9,1,4-0.1
	c1.1-1.1,1-2.9-0.1-4c-2.9-2.7-5.7-5.5-8.2-8.2c2.3-1.2,4.2-2.7,6.1-4.4l7.5,8.3c0.6,0.6,1.3,0.9,2.1,0.9c0.7,0,1.4-0.2,1.9-0.7
	c1.2-1.1,1.3-2.8,0.2-4l-7.6-8.5c2.3-1.8,9.4-7.3,20.1-14.1c3.1,1.4,5.7,2.7,7.4,3.6l-8.9,32.5c-1.4,7.3-2.9,14.2-4.5,20.8
	c-8.9-3.2-18.5-4.9-28.6-4.9c-47.1,0-85.4,38.3-85.4,85.4s38.3,85.4,85.4,85.4c47.1,0,85.4-38.3,85.4-85.4c0-35-21.2-65.2-51.5-78.3
	c1.3-5.3,2.5-10.8,3.7-16.5l85.5,88.2c-0.5,0.8-0.9,1.5-1.3,2.4l0,0c0,0-8.6,2-13.3,2.5c-4.7,0.6-12.2-3.3-14.2,0
	c-1.9,3.3,4.2,10.9,4.2,10.9l-8.1,0.8c0,0-1.1,3.2,0,4.4c1.1,1.1,18.9,3.6,20.6,2.8c1.7-0.8,0.8-3.1,4.2-3.9
	c1.4-0.3,3.2-0.6,4.8-0.8c2.6,10.9,12.4,18.9,24,18.9c6.9,0,13.2-2.8,17.7-7.4c10.4,35.4,43.2,61.4,81.9,61.4
	c47.1,0,85.4-38.3,85.4-85.4S419,271.1,372,271.1z M202.4,356.5c0,40.8-33.2,74-74,74c-40.8,0-74-33.2-74-74s33.2-74,74-74
	c9,0,17.7,1.6,25.7,4.6c-9,32.3-19.9,53.7-25,62.8c-0.2,0-0.4-0.1-0.6-0.1c-3.7,0-6.7,3-6.7,6.7c0,3.7,3,6.7,6.7,6.7s6.7-3,6.7-6.7
	c0-1.4-0.4-2.6-1.1-3.7c5.3-9.3,16.3-30.8,25.4-63.5C184.8,301.1,202.4,326.7,202.4,356.5z M365.7,354.3l-67.6,7
	c-0.1-1.6-0.2-3.2-0.2-4.8c0-15.1,4.6-29.2,12.4-40.9c4.3,4.7,7.1,7.9,7.1,8.3c0,1.5,8.7,5.7,6.7,7.8c-2,2-4.6,10.4-11.3,15.6
	c-6.7,5.2-5.6,9.6-4.8,10.6c0.7,0.9,6.9,1.1,10.2,0c3.3-1.1,18.3-8.9,20.9-10.9c2.6-2,10-4.4,13.2-5.9c3.2-1.5,0.7-3-1.1-7.6
	c-1.9-4.6-7-9.5-8.3-9.6c-1.3-0.2-5-2.7-17.8-24.4c2.6-2.1,5.3-4.1,8.2-5.9l33.3,59.2C366.2,353.1,365.9,353.7,365.7,354.3z
	 M169.8,246.3l62.2-3c-0.2,2.4-0.3,5.4-0.2,9.7c0.2,12,25,86.7,25,86.7l0.2,4.1c-0.7,0.5-1.3,1.1-2,1.7l-87.7-90.5L169.8,246.3z
	 M287.5,343.6c-1.6-1.2-3.4-2.3-5.2-3.1l0.4-1.4l9.9-42.6c3.3,3.6,6.7,7.2,9.8,10.5C294.8,317.7,289.6,330.1,287.5,343.6z
	 M276.9,338.8c-0.6-0.1-1.1-0.2-1.7-0.3c-0.1-1.1-0.3-1.9-0.4-2.3c-1-3.5-8.9-75.6-8.9-75.6s1.7,7,3.7,10.6
	c0.8,1.4,9,10.3,18.3,20.3l-10.8,46.2L276.9,338.8z M319,289.6c-10-15-15.6-17-19.2-23.8l4.6-19.7c0-0.2,0-0.3,0-0.5
	c0.4-0.5,0.7-1.1,1.1-1.6l22.2,39.5C324.7,285.4,321.8,287.4,319,289.6z M124.3,222.8c0.2-0.3,0.5-0.6,0.7-0.9l0.2,0.3
	C125,222.3,124.6,222.5,124.3,222.8z M129.3,218.2c2.5-1.8,5.3-3.4,8.3-4.3c0.1,0.5,0.3,1,0.6,1.5c-0.8,0.6-1.5,1.1-1.8,1.6
	c-1.1,1.3-3.4,2.3-5.4,3L129.3,218.2z M168.8,215.6c4.7-2.8,9.9-5.7,15.6-8.6c25.8-13.2,33-29.1,36.5-31.7
	c3.5-2.6,8.5-14.3,8.3-18.9c0,0-3.3-2.2,11.1-0.2c14.5,2,41.9,18.7,41.7,20.6c-0.2,1.9-43,53.7-46.3,57.6c-0.9,1.1-1.6,2-2.2,3.1
	l-62.1,3l5.1-18.5c0.3-1.3-0.2-2.6-1.4-3.2C174.8,218.6,172.4,217.3,168.8,215.6z M372,430.5c-37.3,0-68.2-27.7-73.3-63.5l67.6-7
	c1.2,1.9,3.3,3.2,5.7,3.2c3.7,0,6.7-3,6.7-6.7c0-3.7-3-6.7-6.7-6.7c-0.2,0-0.3,0-0.5,0l-33.3-59.2c10.1-5.2,21.6-8.2,33.8-8.2
	c40.8,0,74,33.2,74,74S412.8,430.5,372,430.5z"/>
</svg>
