<?xml version="1.0" encoding="utf-8"?>
<!-- Generator: Adobe Illustrator 26.3.1, SVG Export Plug-In . SVG Version: 6.00 Build 0)  -->
<svg version="1.1" id="Fencing" xmlns="http://www.w3.org/2000/svg" xmlns:xlink="http://www.w3.org/1999/xlink" x="0px" y="0px"
	 viewBox="0 0 500 500" style="enable-background:new 0 0 500 500;" xml:space="preserve">
<path id="Fencing_2" d="M210.6,114.1c0,0,1.7-0.8,3,0s16.2,5.5,20.7,5.5c4.6,0,7,0.6,11.4,6.7c4.4,6.1,8.6,8.9,7.4,25.1
	c-1.1,16.2-14.3,36.7-19,37.1c-4.8,0.4-10.3,0-10.3,0l0.2,22.8c0,0,23.6-3.8,26.4-4.2c2.9-0.4,21.3-9.9,21.3-9.9v-1.7
	c0-0.7,0.4-1.4,1.1-1.7c2.2-0.9,7.5-2.6,12.4,0.2c6.5,3.6,6.7,5.5,6.7,5.5L472.7,84.3c0,0,0.8-0.4,0.6,1L293.5,201.6
	c0,0,3.1,4.6,2.7,11.3c-0.5,6.7-4.7,10.7-5.1,10.7c-0.5,0-4.7-4.1-4.7-4.1s-1,1.9-2.6,1c0,0,0,2.4-1.7,3.1c-1.7,0.8-7.4-1-8.5-0.9
	s-3.4,1.7-6.1,2.1s-7.9,0.1-9.4,0c-1.5-0.1-10.8,3.4-14.5,5.6c-3.7,2.2-16.8,8.4-18.2,7.9c-1.4-0.5-3.4-3-3.4-3s-3.3,3.8-8.2,4
	c0,0-3,28-0.7,35.3c2.4,7.3,1.7,5.2,4.5,7c2.8,1.8,7.6,1,11.4,4.8c3.8,3.8,10.9,10,18.8,13.4c7.9,3.4,22.4,14.3,26,17.8
	c3.6,3.4,15.1,10.3,16.2,15.2s5.6,13.6,7.9,17.6c2.3,4,8.6,18.3,14.2,32.5c5.6,14.2,6.9,23.5,14.3,30l3.2,3.1c0,0,0-1.4,0.9-0.9
	s11.2,8.4,16.3,11.1c5.1,2.8,11.3,5,11.2,10.8c-0.1,5.8-7.6,4.8-12.9,4.6c-5.3-0.2-15.9,0.3-18.2,0.8c-2.4,0.5-25.1,0.5-25.6-2.6
	c-0.5-3,4.1-10.7,4.2-16.2c0.1-5.4-1.7-9.7-3.1-12.5c-1.4-2.9-15.2-22.6-22.1-30.6s-10.7-23.2-10.7-23.2s-3.4-1.2-4.3-2.2
	c-0.9-1-1.5-5.3-5.5-6c-4-0.7-25.7-7.7-32.7-11c-7-3.3-37.2-15.4-45.7-15.8c-8.5-0.4-10.4,0.1-12.9,2.3s-23.4,19.1-30,24.5
	c-6.7,5.4-22.5,13.1-23.6,14.4s-4.9,5.5-6.5,5.5s-3-0.5-4.2,1.1c-1.1,1.6-4.4,8-11.7,15.5c-7.3,7.5-20.2,16.5-22.5,21.9
	c-2.3,5.3,0.5,5.1-2.6,9.4c-3,4.3-17.3,22.8-21,24.4c-3.7,1.6-13.5-0.1-16.9-3c-3.4-2.9-3.2-8.1-0.9-10.3c0,0,0.9-4.3,6.5-9.1
	c5.6-4.8,14.4-12.7,16.2-15.1c1.7-2.4,6.6-9.2,7.5-12.9c1-3.7,6.7-18.1,13.6-25.1s17.6-17.3,17.6-17.3s-0.9-1.3-0.5-2.6
	c0.4-1.2,6.5-4.8,9.1-8.2c2.7-3.4,18.9-25,23.8-30.7s6.6-10.1,9.4-14.7c2.9-4.7,6.6-22.8,6.6-25.1s5.7-16.3,6.8-28.1
	c1.1-11.8,2.3-16.7,2.3-16.7s-6.8,0.8-11.9,3.5c-5.1,2.8-14.4,6.3-18.6,6.3c-4.2,0-11.9-2.7-9.8-12.3c2.2-9.6,17.6-25.2,33.4-28.9
	c0,0,2-0.6,2.5-3.2s1.1-9.4,3-12.4c1.9-3,3.8-6.8,6.1-5.6c2.3,1.3,0.6,2.2,2.7,2.2s6.1,3.2,6.2,6.1c0,0,0.4,1.9,1.5,1.3
	c1.1-0.6,19.9-10.6,23.3-11.1c3.4-0.5,6.5-7.2,6-8.9s-1.1-1.8-1.9-3.3c-0.8-1.5-1.4-7.3,0.1-9.5s1.3-7.7,1.6-10.3
	s2.4-12.7,10.1-17.5c7.7-4.8,7.7-2.6,8.2-3.8C210.6,114.1,210.6,114.1,210.6,114.1z"/>
</svg>
