<?xml version="1.0" encoding="utf-8"?>
<!-- Generator: Adobe Illustrator 26.3.1, SVG Export Plug-In . SVG Version: 6.00 Build 0)  -->
<svg version="1.1" id="Fencing" xmlns="http://www.w3.org/2000/svg" xmlns:xlink="http://www.w3.org/1999/xlink" x="0px" y="0px"
	 viewBox="0 0 500 500" style="enable-background:new 0 0 500 500;" xml:space="preserve">
<path id="Fencing_1" d="M269,70.4c0,0-0.1-0.6-4.4-1.2c-4.3-0.7-6.5-1.9-10-1.5c-3.5,0.4-26.4,5.6-27.3,37.7s13.2,29.1,16.7,35.5
	c3.5,6.4,2.1,6.8,0.6,8.6c-1.5,1.8-8.6,6.1-9.7,11c-1.1,4.9-0.8,12.1-2.4,13.3c-1.5,1.2-3.1,2.8-3.6,5.3c-0.6,2.5-1.2,6.1-2.8,6.5
	c-1.5,0.4-3.9,1.7-3.9,5s-2.8,6.1-3.3,6.1s-5.4,2.8-5.4,2.8s-9.3-7.5-12.5-8.2s-6-4.7-6-4.7s0.3-5.4-2.6-7.9c-2.9-2.5-14-2.5-15-3.1
	c-1-0.6-13.9-7.5-13.9-7.5s-2.4-3.2-4.3-3.2s-3.3,0-3.3,0s-0.6-4.4-3.1-4.6c-2.5-0.1-11.9,1-13,13.5l-124.2,4.7c0,0-0.7,0.1,0,1.3
	l124.7-3.1c0,0,0.1,11.9,4.6,15.3c4.4,3.4,11.9,4,12.6,3s-0.1-3,1.2-3s5.8,1.4,7.8,1.4c2,0,6.4-2,8.6-1.1c2.2,0.9,9.4,7.5,9.4,8.9
	c0,1.4-1,2.1,0.8,4.2c1.7,2.1,2.3,2.7,2,3.6c-0.3,0.9-0.8,3.3,0,3.7c0.8,0.4,8.7,1.9,12.3,6.7c3.5,4.8,9.5,7.7,12.9,9.1
	c3.4,1.4,15.4,3.9,22.2,1c6.8-2.8,24-28.7,25.3-29.6c0,0,0.3-0.3,0.7,1.2s1,12.3,6.2,17.8c5.2,5.6,16,12.9,16.1,22.1
	s-2.5,0.3-19.3,12.2c-16.8,11.9-35.5,21.8-41.6,25.1c-6.1,3.3-16.1,9.9-16.5,21.6c-0.4,11.8-1.7,15-0.8,15.8
	c0.8,0.8,1.2,0.7,1.2,1.9s-0.6,10,0.3,27.9c0.8,17.9-1.5,39.3-1.8,41.6s0.3,6,0.3,6s-3.1,0.8-5,2.8s-7.6,11-13.3,15.3
	c-5.7,4.3-18.6,8.7-19.6,12.5s0.4,6.9,17.5,7.6s24-3.5,28.4-3.2c4.4,0.3,22.3-0.7,23.3-2.9c1-2.2-4.3-11.7-4.3-15.8s-5-11.9-5-11.9
	s0.8-9.4,2.5-14.8c1.7-5.4,8-37.7,8.3-46.9s-1.7-13.9-1.7-13.9s3.5-1.8,3.5-3.9c0-2.1-0.3-4.9,1.9-6.8c2.2-1.9,14-5.6,26.6-7.6
	c12.6-2.1,46.5-17.8,53.6-16.7c7.1,1.1,14.4,17.6,26.2,29.8c11.8,12.2,17.3,25.7,19.3,33.4s20.1,22.5,29.1,22.3
	c9-0.1,17.5-1,23.7-0.3c6.2,0.7,23.5,5.3,29,12.8c0,0-0.5,1.6,1.3,4.4s6,7.9,6.9,13.9c0.8,6,0.6,14.3,3.9,18.1s6,4.7,8.2,4.6
	c2.2-0.1,14.7-9.1,15.7-17.1c1-8-5.2-14.8-5.4-18.9c-0.2-4.2,0.7-17.6-3.3-20c-4.1-2.4-13.5-8.2-16.2-7.3s-3.9,0.5-3.9,0.5
	s-27.2-21.4-38.9-21.6c-11.8-0.2-11,1.4-13.2-1c-2.2-2.4-13.9-24.7-17.8-36.1c-3.9-11.4-8.4-32.6-10.9-36.2
	c-2.5-3.6-12.5-41.3-12.5-41.3s-5.2-15-8.3-19.1s-25-34.7-24.7-41.9s3.6-9.4,5.8-9.4s7.7,1,8.7,0.1c1-0.9,4-2.1,4.9-1
	c1,1,9,1.3,10.4,1.3s29.3,0.7,36.1,0.7s37.3-1.1,40.8-2.4c3.5-1.2,8.1-2.9,10.5-2.3c2.4,0.6,5.1-1,7.1,0.3s5.8,2.9,8.6,0.9
	c2.8-2,0.9-3.1,3.5-3.5c2.6-0.4,7.3-2,7.2-2.9c-0.1-0.9,2.4-1,3-2.1c0.6-1,2.6-2,2.6-3.1c0-1.1-9.5-7-9.5-7s5.8-4,5.4-6.8
	c-0.4-2.8-2-2.5-2.3-2.5c-0.3,0-0.3,1.4-2.4,2.6c-2.1,1.2-11,2.2-12.9,4c-1.9,1.8-9.2,1.4-9.2,1.4s-0.3-2.4-2.5-2.4
	c-2.2,0-26.1,0-33-1.5c-6.9-1.5-19.6-3.5-25.5-2.6c-5.9,0.9-8.7,1.5-10.2,0.2c-1.5-1.2-1.7-2.1-3.6-1.6c-2,0.5-2.2,2.1-4.1,1.5
	c-1.9-0.6-10.8-6.2-14.8-6.3c-4-0.1-12.8-0.3-19.7-2.3s-19.4-5.1-23.6-4.7s-16.8,0.5-17.9-0.1c-1.1-0.6,0.3-6.4,0.3-6.4
	s2.2-0.6,2.8-3.9s-1.4-19.4-2.8-21.1c-1.4-1.7,0-6.1-2.5-6.7C288.5,75.7,269,70.4,269,70.4z"/>
</svg>
