<?xml version="1.0" encoding="utf-8"?>
<!-- Generator: Adobe Illustrator 26.3.1, SVG Export Plug-In . SVG Version: 6.00 Build 0)  -->
<svg version="1.1" id="Field_hockey" xmlns="http://www.w3.org/2000/svg" xmlns:xlink="http://www.w3.org/1999/xlink" x="0px"
	 y="0px" viewBox="0 0 500 500" style="enable-background:new 0 0 500 500;" xml:space="preserve">
<path id="Field_hockey_2" d="M436.3,358.8c-1.7-4,0-7,0-17.4s-5.7-19.1-11.4-19.1c-5.7,0-9,5.5-13.9,6c-5,0.5-12.9-7.2-17.7-11.4
	c-4.7-4.2-16.7-12.5-16.7-12.5c-5.7-3.5-14.7-1-15.7-2c-1-1-7.5-27.6-7-34.8c0.5-7.2,14.2-21.6,18.9-26.9
	c4.7-5.2,12.4-11.9,12.4-35.8c0-23.9-7-28.3-8.9-31.1c-2-2.7-0.8-3.2,0-10.9s-13.9-21.6-17.7-26.9s-0.7-7.5-16.9-30.1
	c-16.2-22.6-43.3-27.3-49.7-27.3s-25.6,3-32.6,5c-7,2-2,2.5-13.9-17.9c-6.7-11.5-14.4-16.4-19.8-18.5c-3.6-1.4-7.5-1.7-11.3-1.1
	c-27.7,4.4-31,26.7-29.8,34.8c1.2,8.5,6.5,11.4,6.5,11.4s1.2,1,3.2,4.5c2,3.5,5.2,5.7,7,6.7c1.7,1,1.2,12.7,2.5,13.7
	c1.2,1,3.5-1.7,5-0.7c1.5,1,6.2,7.7,9,6.7c2.7-1,3,0.5,5,3.2c2,2.7,1,4.2-1,10.7c-2,6.5-3.2,20.9-0.7,27.4
	c2.5,6.5,5.2,18.2,6.2,27.6c1,9.4-2.7,22.1-7,30.1c-4.2,8-5.5,22.9-6,35.3c-0.5,12.4-4,24.4-9,34.6c-5,10.2-11.2,30.3-11.2,30.3
	L82,398.1c0,0-7.7,6-9.9,6s-1.5-2.2-0.5-4c1-1.7,1.2-4.5,1.2-4.5s0.5-6.2-5.7-6.2s-11.9,3-11.9,13.7c0,10.7,8.2,15.2,16.2,15.2
	s19.4-9,19.4-9l110.9-77.8c0,0,2,1.7,4.2,1.7c2.2,0,2.2-3.7,3.2-5c1-1.2,5.7,0.7,6.7-0.7c1-1.5,4-3.5,5.2-5c1.2-1.5,1.7-5.5,1.7-5.5
	l36.5-23.9c0,0,4,3.2,5,4.2c1,1,4.5,0.5,4.5-1.5c0-2-5-6-2.2-5.7c2.7,0.2,4.7-0.7,7.5-3c2.7-2.2,5.2-1.7,6.7-4.2
	c1.5-2.5-2-2.7-2-2.7l16.7-9.2c-1.2-7.8-4-9.2-4-9.2l-7,3.7h-1.7c0,0,0.2-4.5,0.7-7c0.5-2.5,13.4-15.4,13.4-15.4s6.7,18.9,6.7,21.9
	s-11.2,19.6-13.9,27.6c-2.7,8-0.5,20.4-0.7,25.4c-0.2,5-13.2,31.1-14.9,42.5c-1.7,11.4-8.2,33.6-10.4,39.5c-2.2,6-6,11.9-9.9,14.7
	c-4,2.7-10.2,0.2-14.2-2.7c-4-3-7-2.2-11.7-0.2c-4.7,2-4.5,6.2-0.7,13.2c3.7,7,13.7,11.9,15.7,12.9c2,1,1,3,6.2,9
	c5.2,6,8.5,6.7,17.9,6.5c9.4-0.2,8.2-15.9,8.5-18.4c0.2-2.5,5-4.7,4.7-6.7c-0.2-2,9.2-22.9,20.4-39.3c11.2-16.4,21.1-45.7,21.1-51
	s-2.7-10.2-2.5-13.9c0.2-3.7,5-16.4,5-16.4s6.2,13.7,8.1,19.4c1.9,5.7,9.3,9,11.6,9c2.2,0,8-0.2,12.2,2.5c4.2,2.7,14.2,3.5,22.1,4.7
	c8,1.2,26.4,10.9,28.8,10.9s2.7,8.7,3,12.7c0.2,4,4.5,4.5,6.2,5.7c1.7,1.2,11.2,26.9,18.4,26.9s10.9-11.9,10.9-20.4
	C445.2,370.5,438,362.8,436.3,358.8z M286.1,217.1c-1.3,4.5-16.4,26.7-18.1,37c0,0-16.3,18.6-17.9,34l-25.4,16.6
	c0,0-0.8-8.8,1.2-13.3c2-4.5,18.2-35,21.2-49.5c3-14.5,3.1-31.4,4.8-35.1c1.7-3.6,8.1-13.4,8.5-18.6c0.3-5.1,0-9.1,0-9.1
	s16.1,13.3,18.9,14.9c2.8,1.7,7.8,1.5,7.8,1.5S287.4,212.7,286.1,217.1z"/>
</svg>
