<?xml version="1.0" encoding="utf-8"?>
<!-- Generator: Adobe Illustrator 26.3.1, SVG Export Plug-In . SVG Version: 6.00 Build 0)  -->
<svg version="1.1" id="Field_hockey" xmlns="http://www.w3.org/2000/svg" xmlns:xlink="http://www.w3.org/1999/xlink" x="0px"
	 y="0px" viewBox="0 0 500 500" style="enable-background:new 0 0 500 500;" xml:space="preserve">
<path id="Field_hockey_4" d="M386.9,399.2c-0.7-5.7-2-11.8-11.1-11.8s-5.7,10.3-7.1,13c-1.5,2.7-5.4,3.4-7.4,1.5
	c-2-2-36.4-128.8-36.4-128.8s1.5-9.3,1-14c-0.5-4.7-7.9-12-7.9-12l-1.5-9.3c0,0,6.6-2.2,5.7-11.1c-1-8.8-7.1-15.5-7.1-15.5
	s-3.2-54.6-2.2-59c1-4.4,5.7-7.9,5.7-13.5s5.7-26.5,5.7-34.2c0-7.6-10.6-20.6-16.2-20.4c-5.7,0.2,1.5-7.6,1.7-11.1
	c0.2-3.4,4.4-19.7-1.7-29.5c-6.1-9.8-23.8-11.3-26.5-11.3c-2.7,0-18.7,0.8-23.6,16.5c-4.9,15.7,1,29.4,0,31.2
	c-1,1.7-4.9,7.9-9.6,9.3c-4.7,1.5-44.5,11.3-44.5,37.1s-4.9,36.6-8.1,40.8c-3.2,4.2-20.6,34.9-22.4,62.9c-1.7,28-3.2,44.5-2.2,47.9
	c1,3.4,0.7-0.2,1,3.4c0.2,3.7,2.6,15.7-1.3,25.8c-3.9,10.1-25,32-31.1,60c-6.1,28-1.5,51.4-3.7,56.5c-2.2,5.2-6.9,17-11.8,23.6
	c-4.9,6.6-10.3,10.8-10.8,15.2c-0.5,4.4,8.1,4.2,16.7,4.2c8.6,0,13.8-0.5,16.2-6.9c2.5-6.4,10.8-18.7,11.8-19.9
	c1-1.2,0.5-6.6-0.7-9.6c-1.2-3-5.2-6.9-2.7-15.2c2.5-8.4,23.8-44.5,28.3-57.5c4.4-13,7.6-26.5,12.8-34.9s20.9-38.1,20.9-38.1
	l3.2-0.7l13.3-29l23.6,17.9l8.6-0.5l9.3,9.3c0,0,2.5,2.5,0,9.8c-2.5,7.4-7.9,23.4-7.1,35.2c0.7,11.8,12,48.2,11.3,59.7
	c-0.7,11.6,0,16.7-2.2,23.4c-2.2,6.6-1,9.8,0,10.8c1,1,5.7,9.3,7.6,14.3c2,4.9,2,4.9,2,4.9s1.2,10.1,18.9,10.1
	c17.7,0,19.2-10.3,14.5-12.3c-4.7-2-20.9-29-21.6-32.4c-0.7-3.4,8.1-59.5,8.1-81.6c0-22.1,2.5-42.3,2.5-42.3l4.7-1
	c0,0,32,124.1,32.7,125.9c0.7,1.7,4.9,15.2,21.4,15.2C383.7,421.3,387.7,404.9,386.9,399.2z M301.6,243.6c-1.2,0-6.4-2.7-12-16
	c-5.7-13.3-20.2-32.7-20.2-32.7s2-9.8,6.6-14.3c4.7-4.4,14-15,14-15s-2.7,14.3-2.7,18.2s11.8,37.4,11.8,41.1c0,3.7,1,11.6,3.7,13.8
	C305.6,240.9,302.8,243.6,301.6,243.6z"/>
</svg>
