<?xml version="1.0" encoding="utf-8"?>
<!-- Generator: Adobe Illustrator 26.3.1, SVG Export Plug-In . SVG Version: 6.00 Build 0)  -->
<svg version="1.1" id="Field_hockey" xmlns="http://www.w3.org/2000/svg" xmlns:xlink="http://www.w3.org/1999/xlink" x="0px"
	 y="0px" viewBox="0 0 500 500" style="enable-background:new 0 0 500 500;" xml:space="preserve">
<path id="Field_hockey_1" d="M386.1,349.9c-5.6-0.3-6.9,13.4-8.7,13.4c-1.8,0-14.4-45.1-14.4-45.1l-0.5-1.6c0,0,3.3,0.5,3.9-2.1
	s1.3-8.7,0.5-12.6c-0.8-3.9-9.2-13.6-9.2-15.2l-4.8-26.1c0,0,4.9-1.5,5.4-4.6c0.5-3.1-0.5-7.5,0.5-8.8c1-1.3,3.4-3.6,2.9-6.1
	c-0.5-2.5-5.9-11-5.9-12.5c0-1.5,10.2-10.8,10-24.6s-11.8-27.9-12.9-30.6c-1.1-2.8-1-9.5-1.3-10.3c-0.3-0.8-19-23.3-19.3-25.4
	c-0.3-2.1-6.6-24.7-28.5-30.8c0,0-7.5-2.1-12.3-2.1c0,0,1-36.4-30.5-36.4c0,0-6.3-1.3-11,1.5c-4.6,2.8-4.6,5.6-6.4,6.1
	c-1.8,0.5-13.1,7-11.5,23.4c0,0,0.5,11.1,3.1,13.8c0,0-2.1,2.1-1.6,5.4c0.5,3.3,0.8,5.2,0.8,5.2s-30.1,13.3-39.9,29.5
	c-9.8,16.2-5.6,10.2-8.4,16.2c-2.8,6.1-6.6,11.1-7.9,17.9c-1.3,6.7-10.2,12.6-10.7,17.5c-0.5,4.9,2.5,7.5,1,9.7
	c-1.5,2.1-0.3,7.9-2,10.2c-1.6,2.3-1.8,5.1-1.8,10.7s7,39.7,7,45.9s1,8.2,1.5,11.5c0.5,3.3,3.9,20.8,2.8,46c0,0,1.3,1.3,2.1,1.6
	c0.8,0.3,1.5,7,1.3,8c-0.2,1-4.4-0.3-6.9,0c-2.5,0.3-10.5,2-10.5,2s-6.9-7-8.2-7.5s-10-8-12.5-6.9c-2.5,1.1-7.7,7.9-10,15.4
	c-2.3,7.5-3.9,10.8-6.7,12.8c-2.8,2-15.6,9.7-15.6,29.2s2.9,19,7.5,19.5c4.6,0.5,10.7,0.5,12.8-0.8c2.1-1.3,11.3-8.2,13.6-12
	c2.3-3.8,4.3-9.7,5.4-10.5c1.1-0.8,4.1-3.1,4.1-3.9c0-0.8,1.5-1.1,2.3,0c0.8,1.1,14.9,12.6,22.3,12.6c7.4,0,8.7-1.5,12.8-1.1
	c4.1,0.3,8.4,0.8,13.1,0.5c4.8-0.3,12.5-4.3,16.4-11.8s15.7-61.5,15.7-61.5s11.3-8.2,11.3-11s-3.9-36.7-2.3-40
	c1.6-3.3,20.8,15.1,21.5,17.5c0.7,2.5,2.3,1.3,2.3,1.3l1.1,6.4c0,0-1.8,7.4-1.1,15.7c0.7,8.4,11.8,56.5,11.6,74.7
	c0,0-3.4,3.1-3.8,6.9c-0.3,3.8-2.6,13.2-2.6,17.2c0,4,0.2,5.3,0.2,5.3s-1.3,3.3-1.3,5.2c0,2,32.6,7.9,45.1,7.9
	c12.5,0,14.4-1.3,14.6-5.2c0.2-3.9-1.6-7.7-4.1-9c-2.5-1.3-11.3-9.3-11.3-9.3s0-4.4-2.3-7.9c-2.3-3.4-7.4-9.7-7.4-12.5
	c0-2.8,10.3-79.6,8-96.7c0,0,14.8,4.4,17.1,7.5s5.2,6.7,5.4,11.5c0.2,4.8,4.9,5.9,6.1,7.7c1.1,1.8,2.8,9.2,8.2,11l1.8,0.3
	c0,0,10,40,11.3,43.9c1.3,3.9,5.9,13.3,10.8,13.3c4.9,0,16.1-12.5,15.4-29.2C390.8,356.9,391.6,350.2,386.1,349.9z M334.8,276.6
	c-3.1-2-32.4-27.7-32.4-27.7s1.6-29.3-6.7-40.8c0,0,10-9.7,12.9-13.8c2.9-4.1,8-7.2,8.2-10.7c0.2-3.4,0.2-3.4,0.2-3.4
	s13.4,9.3,16.1,10.7c2.6,1.3,2.5,1,2.9,4.6c0.5,3.6,2,12.8,1.8,15.7c-0.2,2.9-8.8,25.9-8.2,31.6c0.7,5.7,8.5,18.7,13.1,21l3.6,18.2
	C346.2,282,337.9,278.6,334.8,276.6z"/>
</svg>
