<?xml version="1.0" encoding="utf-8"?>
<!-- Generator: Adobe Illustrator 26.3.1, SVG Export Plug-In . SVG Version: 6.00 Build 0)  -->
<svg version="1.1" id="Field_hockey" xmlns="http://www.w3.org/2000/svg" xmlns:xlink="http://www.w3.org/1999/xlink" x="0px"
	 y="0px" viewBox="0 0 500 500" style="enable-background:new 0 0 500 500;" xml:space="preserve">
<path id="Field_hockey_3" d="M392.4,381.9c-2.4-1.9-9.4-13.9-10.8-21.2c-1.4-7.3,8-6.6,8-31.8c0-25.2-19.1-82.1-18.8-88.7
	c0.2-6.6,5.4,4,9.6-17.4c4.2-21.4,21.4-33.4,21.4-64c0-30.6-37.2-57.9-37.2-57.9s8.5-11.5,8.5-28.7s-13.2-31.1-32-31.1
	c-18.8,0-29.9,12-31.2,14.8c-1.3,2.8,2.2,5.6,1.5,8.5c-0.7,2.8-3.1,18.6-3.1,18.6s-16.2,0.7-23.1,4.2c-6.8,3.5-69.4,44-69.4,60.5
	s20,54.1,21.2,57.2s0,24.9,1.2,29.4c1.2,4.5,8.9,8,8.9,8l-13.6,19.1c0,0,0,0-7.3,9.4c-7.3,9.4-4.2,23.1-7.1,26.6
	c-2.8,3.5,0,0-3.1,5.2c-3.1,5.2-15.3,8.2-35.3,19.1c-20,10.8-31.1,29.6-37.9,40.2c-6.8,10.6-23.1,31.3-31.3,39.3
	c-8.2,8-13.6,20.7-12.9,25.9c0.7,5.2,10.8,9.4,15.1,9.4c4.2,0,15.8,0.2,19.5-3.3c3.8-3.5,2.8-13.4,3.1-18.3c0.2-4.9,2.4-8.9,8-16.2
	c5.6-7.3,18.1-18.6,40.5-29.6c22.3-11.1,30.8-23.1,36.7-28.5c5.9-5.4,11.1-6.4,21.2-11.5c10.1-5.2,12.7-10.4,12.7-10.4
	c6.6,3.3,16.9-0.5,16.9-0.5s23.3,92.7,29.4,111.5c6.1,18.8,10.8,28.2,22.1,28.2c11.3,0,16.7-9.4,16.7-16.3c0-6.9-1.2-12.9-7.5-12.9
	c-6.4,0-5.2,7.1-7.3,10.8c-2.1,3.8-5.2,1.4-7.1,0c-1.9-1.4-37.4-134.6-37.4-134.6s21.9-19.3,27.1-18.8c5.2,0.5,17.4,28,19.5,32.5
	c2.1,4.5,8.7,5.6,11.5,7.5c2.8,1.9,1.6,8.2-1.4,11.8c-3.1,3.5-1.6,9.4,2.6,14.6c4.2,5.2,19.5,31.3,23.1,37.4
	c3.5,6.1,11.8,7.5,16.5,6.1c4.7-1.4,10.4-3.3,12.9-6.6C395.7,386.1,394.8,383.8,392.4,381.9z M282.3,207.1l-19.1,20c0,0-0.9-4,0-9.2
	c0.9-5.2-2.4-11.1-3.8-12c-1.4-0.9-6.6-3.3-6.6-8c0-4.7-2.4-37.2-6.8-42.3c0,0,2.8,1.9,4.2,1.4c1.4-0.5,27.8-9.6,27.8-9.6
	s4.2,19.1,4.2,33.4C282.3,195.1,282.3,207.1,282.3,207.1z"/>
</svg>
