<?xml version="1.0" encoding="utf-8"?>
<!-- Generator: Adobe Illustrator 26.3.1, SVG Export Plug-In . SVG Version: 6.00 Build 0)  -->
<svg version="1.1" id="Football" xmlns="http://www.w3.org/2000/svg" xmlns:xlink="http://www.w3.org/1999/xlink" x="0px" y="0px"
	 viewBox="0 0 500 500" style="enable-background:new 0 0 500 500;" xml:space="preserve">
<g id="Football_3">
	<path id="Men" d="M203.1,95.2c0,0,0.4,2.5-0.6,3.8s-2.6,4.1-4.2,4.2c-1.6,0.1-17.7,3-27.8,7.7c-10.1,4.6-16.1,8.3-22.3,19.8
		s-16.8,33.2-16.8,38.5c0,0,1.7,3.6,1.7,4.1c0,0.4-7.4,15.1-7.2,25.8s9.3,39.7,11.4,47.2c2.2,7.5,2.9,12.3,2.2,17.2
		c-0.7,4.9-1.9,13.9-1,21.7c0.9,7.8,9.3,11.9,11.9,13.9c2.6,2,13.8,0.4,13.5-1c-0.3-1.4-7.8-5.4-8.5-8.4c-0.7-3-0.3-7.8,0.7-9.8
		c1-2,3-2,3.8,0c0.7,2,0.9,4.2,2.5,6.4c1.6,2.2,2.1,1,2.3-0.4c0.2-1.4-1-6.8-0.8-8.4c0.1-1.6,1-8.3-1-11.9c-2-3.6-10.1-9.8-10.1-13
		c0-3.2,2-38.7,0.7-48.5c-1.3-9.8-3.2-11.7-2.3-14s5.1-6.2,5.1-6.2s0.3,0.4,1.6-0.1c1.3-0.6,10.3-13,10.3-13s2.8,23,4.6,32.4
		c1.9,9.4,0,24,0.4,35.5c0.4,11.4,5.4,43.6,5.9,52.6c0.6,9,12.2,42,14.2,49.5s5.1,30.4,5.1,30.4l6.4,0.7c0,0,12.6,24.9,22.3,24.9
		s14.2-6.5,15.4-8.5c1.2-2,4.3,1.2,5.6,3.6c1.3,2.5,7.1,12.9,8,20c0.9,7.1,3.6,19.4,13.6,19c10-0.4,11-7.4,11-17.7
		c0-10.3-9.3-24.3-10.7-27.7c-1.4-3.3-3.8-6.8-4.3-6.4c-0.6,0.4-0.4-9.1-2.2-12.9c-1.7-3.8-7.4-7.1-11.6-6.5s-6.4-0.3-6.4-0.3
		l0.1-2.2c0,0,6.5-2.9,6.2-7.4l-4.8-33.2c0,0,17.4,27.2,19.8,33.2c2.5,5.9,12,5.9,12,5.9s5.4-4.2,7.8-4.2s2,2.5,4.1,4.6
		c2,2.2,0.1,9.8,5.4,18.7c5.2,8.8,30.4,41.1,32.2,46.9s1.9,9.3,1.9,12s0.9,6.8,0,9c-0.9,2.2-2.3,13.5-2,16.7c0.3,3.2,0.4,4.9,12,4.9
		c11.6,0,15.9-4.6,16.1-8.4c0.1-3.8-4.1-12.5-4.2-18c-0.1-5.5-0.4-10.3-2.6-13.6c-2.2-3.3-5.4-8.3-5.6-12.7
		c-0.3-4.5-5.4-38.1-9.8-48.8S314.9,332,314.9,332s-0.4-3,0.6-4.1c1-1,1.6-5.5,1.6-5.5s-34.8-63.9-35.6-66.6
		c-0.9-2.8-3.5-13.6-4.9-15.9c-1.4-2.3-20.6-22.6-21.1-25.3c-0.6-2.8-0.4-10.1,0.9-12.9c1.3-2.8,6.7-16.5,7.2-25.5
		c0.6-9,2.9-13,2.9-13l25.9,17.8l6.5-0.4c0,0,4.1,3,6.4,7.4c2.3,4.3,11,16.5,15.2,20c4.2,3.5,19.7,11.6,19.7,11.6s0.4,11.9,2.5,14.5
		c2,2.6,8.8,6.8,10.3,7.2c1.4,0.4,3-2,1.3-4.3s-1.6-3.3-1.6-3.3s1.7,1.6,5.4,3.2c3.6,1.6,7.4,3.8,7.2,7.1c-0.1,3.3-1.6,6.1,0,6.5
		c1.6,0.4,4.1-2,4.9-3.6c0.9-1.6,4.6-4.1,4.2-8.1c-0.4-4.1-1-7-5.6-11.9c-4.6-4.9-12.2-8.1-17.2-14.6s-11.3-18.4-15.4-23.6
		c-4.1-5.2-23.3-24.2-23.3-24.2l1.3-4.1c0,0-28.8-37.1-32.7-40.7c-3.9-3.6-16.7-12.6-22-14c-5.4-1.4-23.8-4.1-24.5-5.1
		c-0.7-1-1.3-6.8-0.1-9s2.5-5.9,2.5-5.9s5.8-3.8,5.8-9.1c0-5.4-2.5-10.7-2.5-10.7s0.3-30.9-21.9-30.9S194.3,58.6,194,67l0.1,3.2
		c0,0-1.7,2.2-1.2,6.2c0.6,4.1,4.1,11.2,6.1,12.6C201.1,90.4,203.2,92.7,203.1,95.2z"/>
	<circle id="Ball" cx="184.3" cy="435.6" r="28.7"/>
</g>
</svg>
