<?xml version="1.0" encoding="utf-8"?>
<!-- Generator: Adobe Illustrator 26.3.1, SVG Export Plug-In . SVG Version: 6.00 Build 0)  -->
<svg version="1.1" id="Football" xmlns="http://www.w3.org/2000/svg" xmlns:xlink="http://www.w3.org/1999/xlink" x="0px" y="0px"
	 viewBox="0 0 500 500" style="enable-background:new 0 0 500 500;" xml:space="preserve">
<path id="Football_2" d="M415.3,92.9c-1.3-2.4-6.3-11.7-12.7-11.5c-6.3,0.2-16.5,13.1-20.9,16.1c-4.4,3-22.8,1-28.2,1.4
	c-5.4,0.4-9.7,4.4-9.7,4.4l-7.1-0.4l-3.2-3.9c0,0-19.5-0.9-23.9-2.9S296,88.6,295.2,88c-0.9-0.6-0.2-2.3,2.9-4.4
	c3.1-2.2,3.1-3.3,2.7-5.6c-0.4-2.3,0-6.9,1.9-10.4c1.9-3.5,3.9-9.6,3.7-13.7c-0.2-4.1,2.6-4,3.8-4.8c1.2-0.9,1.7-6.7,1.1-8.2
	c-0.6-1.5-6.6-6.3-12.3-10.6c-5.7-4.3-12.6-4.4-12.6-4.4c-26.7,0-29.2,20.5-29.2,28.1c0,7.5,2.9,11.6,3,14.6c0.1,3-5.1,9.3-7.5,12.2
	c-2.5,2.9-5.9,0-22.6,0s-27.8,8.4-33.7,10.3c-5.9,1.9-13.4,1.4-14.3,2.5c-0.9,1.1-1.8,5.2-1.8,5.2c-4.4,1-9.3,2.4-14,4.4
	c-15.3,6.2-47.4,33.1-50.3,35.9s-9.3,5.2-13.9,6.1c-4.6,1-14.8,12.9-16.6,15.3c-1.7,2.4,0.1,6,0.1,6c-0.6,4.4,2,7.6,2,7.6
	c0.2,1.9,5.6,3.9,5.6,3.9s4.3,6.5,5.6,3.7c1.3-2.8,3.4-0.6,7.3-4.3c3.9-3.7,8.8-21.1,9.9-22.8c1.1-1.7,28.2-13.1,39.2-17.2
	c11-4.1,25.8-14.2,27.1-14.6c1.3-0.4,33.3,0,33.3,0s-1.9,10.3-1.9,22.8c0,12.5,4.3,31,4.5,38.1s-2.6,22.4-2.8,26
	c-0.2,3.7-12.7,16.4-12.7,26.2c0,9.9,1.9,13.3,1.9,13.3s1.5,8.4-1.9,15.9c-3.4,7.5-19.8,23.5-18.5,26c1.3,2.6,12.3,18.7,12.3,18.7
	s-4,2.8-18.1,7.4c-14.1,4.6-42.4,38.8-46.9,41.7c-4.5,2.9-13.7,2.2-20,2.7c-6.3,0.5-7.3,3.9-7.7,5.6c-0.4,1.7-0.4,7.6,1.4,13.8
	c1.8,6.1,0.4,6.5,0.9,18.3s10.3,27.9,12.3,27.9s4.3-1.5,4.9-3.4c0.6-1.9,2.6-18.7,4.8-26.9s5.4-6.7,6.5-11c1.1-4.3,1.7-3.1,9.5-10.6
	c7.7-7.5,26.4-18.5,38.7-24.5c12.4-6,21.4-9.1,30.1-13.3c8.7-4.2,11-7.5,11-7.5l3.6,1.9c7.4-3.5,24.9-30.6,26.5-31.1
	c1.6-0.4,27.3,17.7,27.3,17.7s11-15.6,12-15.5c1.1,0.1,7,2.3,7,3.1c0,0.9-8.5,10.8-12.4,15.8c-3.9,5.1-7.4,26.9-6.7,39.6
	c0.8,12.7-1.7,32.4-3.9,37.1c-2.2,4.7-16.5,13.7-17.1,19.6c-0.6,5.9,17.4,14,19.8,15.6c2.4,1.6,15.8,18.1,17.5,20.3
	c1.7,2.2,8,2.7,13.2,1.2c3.6,10.5,13.6,18,25.3,18c14.8,0,26.8-12,26.8-26.8c0-14.8-12-26.8-26.8-26.8c-12.3,0-22.6,8.2-25.8,19.5
	c-1.6-2.5-3.6-5.7-5.1-8.5c-2.3-4.3-5.6-11.7-5.5-20.9c0.1-9.1,6.3-38.4,9.4-44.9c3-6.5,19.8-40.2,22.2-43.4
	c2.4-3.1,5.2-11.2,5.7-22.1c0.5-10.9-14.1-22.3-15-23c-0.9-0.8-0.5-3.7-0.6-4.2c-0.1-0.5-12.6-17.2-20.3-27
	c-7.7-9.8-22.1-16.1-22.1-16.1l0.1-2c0,0-1.1-16.7,1.2-25.4s5.4-22.2,11-34c5.6-11.8,8.4-36.6,8.4-36.6s15.8-1.1,19-2.4
	c3.2-1.3,11.2-1,11.7-1c0.5,0,5.4-5.5,5.4-5.5s11.5,1.6,21.4,0.5c9.9-1.1,26.5-13.1,28.3-14s7-1.2,11.7-1.9c4.7-0.8,4.2-2.7,4.9-3.4
	c0.8-0.8,6.8-3.1,8.6-4.5C412.6,97.7,416.6,95.3,415.3,92.9z"/>
</svg>
