<?xml version="1.0" encoding="utf-8"?>
<!-- Generator: Adobe Illustrator 26.3.1, SVG Export Plug-In . SVG Version: 6.00 Build 0)  -->
<svg version="1.1" id="Football" xmlns="http://www.w3.org/2000/svg" xmlns:xlink="http://www.w3.org/1999/xlink" x="0px" y="0px"
	 viewBox="0 0 500 500" style="enable-background:new 0 0 500 500;" xml:space="preserve">
<path id="Football_4" d="M415.9,144.4c-1.3-5.4-3.5-16.2-11.1-20.7c-7.6-4.5-21.3-11.1-29.3-19.1c-7.9-7.9-21-14-35-14.3
	s-23.5-1-24.2-2.5c-0.6-1.6,3.5-2.5,5.7-9.2c2.2-6.7,2.2-12.4,2.9-15.6c0.6-3.2,3.5-10.8,3.5-13.4s-8.9-19.1-16.9-23.5
	c-7.9-4.5-17.5-6.7-22.9-3.5c-5.4,3.2-14.3,8.3-13.7,29.6l0.3,5.7c0,0-2.2,3.5-1,6.7c1.3,3.2,5.7,9.9,7.3,11.4
	c1.6,1.6,1.3,8.3,0.6,10.8c-0.6,2.5,0.6,4.8-3.8,6c-4.5,1.3-30.8,3.5-36.2,5.4c-5.4,1.9-34.3,17.8-34.3,19.7c0,1.9,1.6,1.3-1.6,2.5
	s-24.5,10.5-28.6,14.6s-14.9,16.2-22.3,33.7c-7.3,17.5-5.7,15.6-11.4,19.1c-5.7,3.5-13.7,1.6-14.9,1.9c-1.3,0.3-2.5,2.5-2.5,2.5
	s-2.2,1-1.6,2.9c0.6,1.9,3.8,1.6,3.8,1.6s-0.8,5.6-1.6,6.5c-0.8,1-0.2,4.5,1.4,4.9s3,0.3,3.3,1.4c0.3,1.1,1.6,3.5,5.1,2.7
	s5.6-1.3,6.2-3c0.6-1.7,3.7,2.4,11.6-9.4s4.9-11.4,8.9-14.6c4-3.2,33.7-35.1,35.1-37.7c1.4-2.5,16.1-4.1,16.1-4.1l3.5,1.7
	c0,0,17.6-5.6,20.7-4.1s4.1,24.2,4.3,28.3c0.2,4.1-2.2,16.1-5.4,20.3c-3.2,4.3-27.7,32.4-27,53.4c0.6,21,10.8,28,8.4,33.5
	c-2.4,5.6-9.9,10.5-9.2,12.9s4.3,6.7,2.7,10c-1.6,3.3-28.1,36.7-28.1,36.7s-9.2-1.3-20.3,8.9c-11.1,10.2-24.2,25.4-33.7,31.5
	c-9.5,6-13.7,5.1-13.7,5.1s-4.5-4.1-9.2-4.1s-9.2,1.4-9.5,4.2s-2.5,10.4-1.6,17.4s-1,12.4-2.2,14.6c-1.3,2.2-9.2,11.8-10.2,22.6
	c-1,10.8,1.9,14.3,8.3,14.9c6.4,0.6,11.1-4.8,13-11.4c1.9-6.7,11.1-26.1,14.6-26.1s2.5-6.4,2.5-6.4s1.6-4.1,18.8-11.4
	s50.9-22.6,55.6-30.2c0,0,10.5-1.3,14.9-7c4.5-5.7,8.3-10.8,8.3-10.8s2.5,65.5,0,71.9s-14.3,15.9-19.1,21s-2.5,8.3,1.9,8.3
	c4.5,0,15.3,0,15.3,0s0.1-0.1,0.3-0.3c0,0.2,0,0.4,0,0.6c0,16,13,28.9,28.9,28.9s28.9-13,28.9-28.9c0-16-13-28.9-28.9-28.9
	c-4.1,0-7.9,0.8-11.4,2.4c0-4,0-7.4,0-7.4s0.3-6.7,2.2-12.7c1.9-6,14.6-34,13.7-50.6s-1.9-24.2-1.9-24.2s43.9-44.8,46.1-54.4
	c2.2-9.5,3.2-11.1,4.5-12.1c1.3-1,7.3-4.5,9.2-9.5c1.9-5.1,2.2-10.5,5.7-14.6c3.5-4.1,7.9-15.6,14-40.7s16.2-36.9,16.5-39.4
	c0.3-2.5,13,2.2,17.5,0c4.5-2.2,10.5-0.9,14.6-0.8s14.6,3,24.2,0.8C412.1,155.2,417.2,149.8,415.9,144.4z"/>
</svg>
