<?xml version="1.0" encoding="utf-8"?>
<!-- Generator: Adobe Illustrator 26.3.1, SVG Export Plug-In . SVG Version: 6.00 Build 0)  -->
<svg version="1.1" id="Football" xmlns="http://www.w3.org/2000/svg" xmlns:xlink="http://www.w3.org/1999/xlink" x="0px" y="0px"
	 viewBox="0 0 500 500" style="enable-background:new 0 0 500 500;" xml:space="preserve">
<path id="Football_1" d="M442.8,280.2c-6.9-5-10.7-14-11.7-14.3c-0.9-0.3-2.8-17.3,0.2-21.7c3-4.4,8.8-10.4,8.8-13.2
	c0-2.8,0.8-6.3,1.6-7.6c0.8-1.3,3.3-6.1,3.3-14.6s-0.6-20.5-15-26.9c-14.3-6.5-14.6-4.9-18.7-4.9c-4.1,0-10.4-1.3-15.6,4.1
	c-5.2,5.4-9.5,18.4-11.2,20.6c-1.7,2.2-2.5,16.1-2.5,20.8s-0.8,23.6,0.6,25.2c1.4,1.6,3.6,5.7,0.5,6.1c-3.2,0.5-13.4,0.5-19.1-1.9
	c-5.7-2.4-5.5-4.3-12.9-2.4c-7.4,1.9-13.9,6.8-15.8,6.8S316.3,236,316.3,236s-3.8-15.1-6.6-19.8c-2.8-4.7-9.6-15.1-9.6-15.1
	s-0.9-8-6.5-14.8c-5.5-6.8,0.5-8-4.3-24.4s-23.9-43.8-25.2-48.7c-1.3-4.9-0.3-11,0.5-12.3l0.3-1.8c3.5,15,17,26.2,33.1,26.2
	c18.8,0,34-15.2,34-34s-15.2-34-34-34c-12.2,0-22.8,6.4-28.8,16l0.6-3.8c0,0,10.6-26,12.3-28.7c1.7-2.7,2-8.2,0.2-9.3
	c-1.9-1.1-3.6-0.9-5.4,0c-1.7,0.9-5.5,3-6.1,3s-4.9-0.9-6,0.3c-1.1,1.3,0.3,5.2-0.9,6.3c-1.3,1.1-2.5,3.3-3.8,3.3s-3.9-0.6-4.7,0.2
	c-0.8,0.8,0.9,3.8,0.3,5.5c-0.6,1.7-9.3,13.4-14,17c-4.7,3.6-9,5.8-10.1,5.8s-4.3,2.5-4.3,2.5s-4.7,0.5-6,2
	c-1.3,1.6,1.4,4.9-0.2,7.2c-1.6,2.4-4.3,6.1-3.6,8.5s12.4,10.2,14.5,13.9c2,3.6,10.7,17.3,12.8,28.2c2,10.9,0.2,46.3,6.5,59.4
	c6.3,13.1,21,34.2,21,34.2s1.1,35,0,37.5c-1.1,2.5-2.5-1.7-2.7,9.5c-0.2,11.2,0.8,14.5-0.6,14.4c0,0-31.1-0.4-48.3,2.9
	c-17.2,3.4-32.3,8.4-42,8.4s-16.8-2.9-23.1,9.7c-6.3,12.6-29.4,51.7-29.4,51.7l-4.2,2.1c0,0-18.9,45.8-25.6,54.2
	c-6.7,8.4-10.1,10.1-11.3,9.2c-1.3-0.8-5.9-5.5-8-5.5c0,0-2.7,0.7-2.7,4.8s2,6,0.8,7.6c-1.3,1.6-5.2,2-9.8,7.4
	c-4.6,5.4-7.9,6.3-12.9,8.5c-5,2.2-10.4,6.5-10.4,10.1c0,3.6,9.8,7.4,16.4,7.4s19.2-4.1,25-3.8c5.8,0.3,11.7,3.8,16.1,3.8
	c4.4,0,15.8-4.7,16.1-10.6c0.3-5.8-3.3-13.1-3.2-14.5c0.2-1.4,4.7-13.2,7.7-17.6c3-4.4,18.3-20.9,31.7-30.6
	c13.4-9.6,28.4-36.5,30.9-48.5c0,0,4.9-1.7,9.3,1.4c4.4,3.2,7.1,6.9,23.2,9.8s24.3,0.8,26.5,4.1c2.2,3.3,7.7,22.4,36.1,21
	c28.4-1.4,47.4-4,56.2-3.7c8.8,0.3,35.3-10.1,35.3-10.1s14.3,2.7,26.8,12.1c12.4,9.5,27.9,16.9,36.5,16.9s15.9-8.2,16.7-25.2
	c0.8-17,3.6-22.1,4.6-29.9c0.9-7.9,4.7-9.8,4.7-29.8C458.4,293.3,449.8,285.3,442.8,280.2z"/>
</svg>
