<?xml version="1.0" encoding="utf-8"?>
<!-- Generator: Adobe Illustrator 26.3.1, SVG Export Plug-In . SVG Version: 6.00 Build 0)  -->
<svg version="1.1" id="Golf" xmlns="http://www.w3.org/2000/svg" xmlns:xlink="http://www.w3.org/1999/xlink" x="0px" y="0px"
	 viewBox="0 0 500 500" style="enable-background:new 0 0 500 500;" xml:space="preserve">
<path id="Golf_2" d="M299,43c0,0-8-3-19.1,9.5c-11.1,12.5-11.5,19.7-17.3,21.7s-7.2,2.8-7.2,2.8s-20.9-1.8-34.8,5.2
	c-13.9,7-54.3,48.7-73,75.8c0,0,0.4,2.6-1.4,5.6c-1.8,3-17.9,18.5-17.9,42.4s25.5,63.5,28.6,78.6c3,15.1,6.8,35.2,6.8,35.2
	s2,85.3,1,87.1c-1,1.8-1,13.1-1.6,14.3s-2.4,7-1.4,12.7c1,5.6,2.8,3.6,2.8,3.6s-1.8,12.7-0.6,14.1c1.2,1.4,22.1,5,30.8,5
	s47.7,2.4,48.3-6.8c0,0,0.8-4.8-1.6-5.6c-2.4-0.8-18.5-4-22.7-8.4c0,0,11.7,0,14.7-2.6s-0.4-8-2.2-8.2c-1.8-0.2-24.7-5.6-27.5-12.7
	c-2.8-7,3-46.3,4.8-52.5c1.8-6.2,10.9-38.2,10.9-55.9s-6.2-37.6-7.2-51.7c-1-14.1-4.4-19.3-4.2-25.9c0.2-6.6-8.6-20.5-8.6-20.5
	s2.8-6.4,6.8-6.2c4,0.2,17.5,0,17.5,0s2.2,19.5,3.8,24.9c1.6,5.4,1.4,14.1-1.2,18.9c-2.6,4.8-5.6,10.1-5,14.9
	c0.6,4.8,6,17.3,21.3,31.4c0,0,3.2,1.4,4.6-0.2l100.9,147.2c0,0,0.4,3.4,11.7,3.4c11.3,0,12.7-1.8,12.7-6c0-4.2-8.8-5.2-11.7-5.2
	s-11.7,1.4-11.7,1.4l-98.6-145.2c0,0,3.5-11.1,2.5-20.7c-1-9.7-1.6-22.5,0-30.4c1.6-7.8,3.8-18.3,3.8-36s-0.4-20.1,1.4-29
	c1.8-8.8,14.3-36,14.7-45.8c0.4-9.9-0.4-17.1,2.2-18.9c2.6-1.8,3.4-0.8,5.2,2.2c1.8,3,5,4.2,9.3,1.6c4.2-2.6,20.9-14.3,20.9-14.3
	s1.4,0.2,3,1.6s11.5,9.3,13.9,7.2c2.4-2-9-15.5-7.8-17.5s7-11.3,6.6-16.9C325.5,62.5,319.9,45.8,299,43z"/>
</svg>
