<?xml version="1.0" encoding="utf-8"?>
<!-- Generator: Adobe Illustrator 26.3.1, SVG Export Plug-In . SVG Version: 6.00 Build 0)  -->
<svg version="1.1" id="Golf" xmlns="http://www.w3.org/2000/svg" xmlns:xlink="http://www.w3.org/1999/xlink" x="0px" y="0px"
	 viewBox="0 0 500 500" style="enable-background:new 0 0 500 500;" xml:space="preserve">
<path id="Golf_1" d="M386.2,366.6c-1.2-28.1-1-84-3.7-92.2c-2.7-8.2-6.6-25.2-4.9-29.4c1.6-4.1-3.7-8.6-3.5-10.1
	c0.2-1.4-0.4-5.3-1.8-7.4c-1.4-2.1-3.1-3.5-2.5-10.7c0.6-7.2,1.6-19.4-8.8-39.7c-10.5-20.3-21.1-33.8-21.1-36.9
	c0-3.1,2.5-2.3,2.7-4.1c0.2-1.8-1.4-11.3,1-14.2c2.5-2.9,12.1-3.1,14.6-13.8c2.5-10.7,0-47.8-2.3-61.4c0,0,0.6-2.5,0.4-4.5
	s-9.9-8.4-9.4-10.1c0.4-1.6,3.3,0,2.5-2.7c-0.8-2.7-8-6.2-9.9-6.2c-1.8,0-5.3,1.4-6.6,1.6c-1.2,0.2-4.5,2.9-5.5,3.1
	c-1,0.2-3.5,0.2-5.1,1c-1.6,0.8-0.6,4.3-2.7,4.5c-2.1,0.2-2.5,3.1-3.9,3.1c-1.4,0-3.2-2.3-5-0.2c-1.8,2.1-0.3,4.3-1.8,4.3
	c-1.4,0-4.9,0.2-5.8,2.1c-0.5,1,0.5,2.6,2.5,4.4c-5.6,3-17.6,9.4-32.9,17.7c-6.8,0.5-12.8,3.7-16.1,8.7
	c-50.8,27.4-122.2,66.1-137.9,75.8c-2.3,1.4-4,3.6-4.9,6.1c-0.4,1.3-0.8,2.9-0.8,4.5c0,4.7,7.5,17.1,11.8,17.1
	c4.2,0,6.2-6.6,6.2-13.7c0-7.1-3.6-12.3-3.4-13.8c0.1-1.5,1.2-2.6,1.2-2.6l126-69.8C252,85.8,252,88,252,88s1.4,7.2,6.2,13.8
	s3.9,3.5,4.7,8.2s3.3,4.9,2.7,6.4c-0.6,1.4-0.8,3.5,1,8c1.8,4.5,4.7,5.3,4.7,5.3s1.4,30.2,9.6,49.3c8.2,19.1,16.4,28.5,16.8,30
	c0.4,1.4-1,9.6,1,12.3c2.1,2.7,3.1,2.7,3.1,4.7c0,2.1,1,1.8-3.1,4.5c-4.1,2.7-8.2,22.4-6.2,29.1c2.1,6.8,6.2,13.3,5.3,14.6
	c-0.8,1.2-1.2,4.1,0.4,6.8c1.6,2.7,1.8,1,1.6,2.7c-0.2,1.6-2.5,4.1-2.5,7.4c0,3.3,1.6,6.2,0.8,11.9c-0.8,5.7-2.5,26.5-2.5,26.5
	s-5.3,8-6.4,11.1c-1,3.1-2.1,4.3-4.1,5.3c-2.1,1-10.3,7.2-15.6,18.1c-5.3,10.9-22,34.1-24.2,34.1c-2.3,0-3.9,1.2-4.7,0
	c-0.8-1.2-1.8-2.1-3.9-2.1s-7.2,2.1-9,8.8c-1.8,6.8-1.8,11.5-1.2,11.5c0.6,0,2.1-1,1.8,3.3c-0.2,4.3-1.8,7-3.9,10.1
	c-2.1,3.1-5.1,10.1-5.1,17.2c0,7.2,5.1,17.9,16.4,17.9c11.3,0,8.4-4.5,8.6-11.3c0.2-6.8,7.2-20.3,9.6-22.2c2.5-1.8,8.4,3.9,10.7,3.5
	c2.3-0.4,33.7-37.4,33.7-37.4s11.5-22.2,15.2-28.1c3.6-5.8,21.3-29.7,24.4-41.4c0.1-0.4,0.2-0.7,0.3-1.1c0,0,8.2,18.1,9.6,26.9
	c1.4,8.8,1.8,36.9,5.1,54.6c3.3,17.7,3.5,41.5,4.1,41.5c0.6,0,2.7-0.4,2.7,0.2s-0.6,6.6-2.7,11.3c-2.1,4.7-3.3,4.7-2.9,8.8
	c0.4,4.1,6.6,5.5,14.2,5.5s15.4-4.3,15.2-15.4c-0.2-11.1-1.2-13.1-1.2-13.1l1.2-0.2C383.7,446.8,387.4,394.7,386.2,366.6z M330.2,96
	c-2.1,1.4-20.1,6.4-23.2,6.4c-3.1,0,0.4-1.8-2.5-7.8c-2.9-6-1.4-11.5-1.5-11.7c-0.1-0.2,3.4-0.4,3.2-1.4c-0.2-1-6.2-2.7-9.4-4.1
	c-3.3-1.4-8-10.6-18.6-12.1l0,0l30.3-15.7c1.4,0.9,3.1,1.7,4.9,2.3c6.8,2.5,16.4-0.8,17.4,8.2S332.2,94.6,330.2,96z"/>
</svg>
