<?xml version="1.0" encoding="utf-8"?>
<!-- Generator: Adobe Illustrator 26.3.1, SVG Export Plug-In . SVG Version: 6.00 Build 0)  -->
<svg version="1.1" id="Gymnastics" xmlns="http://www.w3.org/2000/svg" xmlns:xlink="http://www.w3.org/1999/xlink" x="0px" y="0px"
	 viewBox="0 0 500 500" style="enable-background:new 0 0 500 500;" xml:space="preserve">
<path id="Gymnastics_3" d="M414.5,443.9c-7.4-0.5-18.7-3-27.6-10.8c-8.9-7.9-10.8-7.9-18.2-4.4c-7.4,3.4-10.8,8.9-22.6,8.9
	c-11.8,0-41.8-20.2-58.6-20.2c-16.7,0-34,3.4-34,3.4l-10.8-17.7c0,0,18.7-3.4,18.2-12.3c-0.5-8.9-26.6-8.4-26.6-8.4
	s-18.2-34.9-18.2-38.4c0-3.4,3.4-19.7,0.5-32.5c-3-12.8-24.6-32-27.1-37.4c0,0,11.5-0.5,14.1,1.3c2.6,1.8,13.9,7.4,21.5,18.4
	c7.5,11,14.6,18,19.7,22.3c5.1,4.3,21.8,19.4,21.8,19.4s1.1,2.1,4.8,7.5c3.6,5.4,47.6,45.8,48.6,49.2c1,3.4,2,5.6,1.3,9
	c-0.7,3.4,3.9,21,3.6,23.6s2.3,3.1,3-0.5c0.7-3.6,0.2-12,2.1-11.5c2,0.5,22,16.7,25.8,17.4c3.8,0.7,6.6-0.7,4.3-3
	c-2.3-2.3-6.6-5.1-8.2-6.9c-1.6-1.8,9.2,0.5,9.5-0.7c0.3-1.1-7.9-5.3-8.5-5.7c-0.7-0.5,1.1-2-1.3-3.3c-2.5-1.3-3.3-2.1-3.3-2.1
	s9.2-0.2,7.9-2c-1.3-1.8-13.3-2-15.8-4.3c-2.5-2.3-3.9-9.8-8.2-16.6c-4.3-6.7-32.8-47.6-39.5-56.1c-6.7-8.5-10.5-7.5-13.3-10.7
	c-2.8-3.1-23.8-27.2-23.8-27.2s31.5,0.3,34.8-24.4c0,0,1-9.2,1.8-11c0.8-1.8,4.6-5.3,3.8-6.9s-3.8-3.3-4.6-5.7c-0.8-2.5-2-12-4.1-13
	c-2.1-1-13.6,1.5-18.4-1.6c-4.8-3.1-16.2-8.4-16.2-9.4s5.6-8.5,44.3-28.2c38.7-19.7,48.6-25.6,49.1-31.2c0.5-5.6,2-63.8,2-63.8v-5.9
	c0,0-0.7,0.2-1.8,0.6c8.5-4.9,14.3-14,14.3-24.6c0-15.6-12.7-28.3-28.3-28.3c-15.6,0-28.3,12.7-28.3,28.3c0,6.3,2.1,12.1,5.6,16.8
	c-0.4-0.2-0.7-0.3-0.8-0.3c-1.3,0-2.5,1.6,0.8,6.6c3.3,4.9,20.3,11,22.3,11.6c2,0.7-1.3,35.1-2.6,38.9c-1.3,3.8-1.8,9.4-1.8,9.4
	s-50.5,22.2-56.4,25.3c-5.9,3.1-35.8,7.9-45.3,11c-9.5,3.1-25.4,2.6-35.6,5.9c-10.2,3.3-24.6,11.5-39,28.2
	c-14.4,16.7-20,19.9-20,43.6s13.6,45,12.3,47.9c0,0-57.6,60.5-65,75.8c-7.4,15.3-9.4,36.9,6.9,36.9s81.2-17.2,89.6-16.7
	c8.4,0.5,25.6,3,25.6,3s28.1,39.4,34,41.8c5.9,2.5,53.2,1,71.9,3c18.7,2,63.5,5.4,77.8,5.4c14.3,0,46.3-8.4,45.3-13.3
	C428.3,442.5,421.9,444.4,414.5,443.9z M147.2,383.9c0,0,21.9-16.2,26.3-21.7c0,0,8.1,23.4,10.3,24.4S162.5,388.8,147.2,383.9z"/>
</svg>
