<?xml version="1.0" encoding="utf-8"?>
<!-- Generator: Adobe Illustrator 26.3.1, SVG Export Plug-In . SVG Version: 6.00 Build 0)  -->
<svg version="1.1" id="Gymnastics" xmlns="http://www.w3.org/2000/svg" xmlns:xlink="http://www.w3.org/1999/xlink" x="0px" y="0px"
	 viewBox="0 0 500 500" style="enable-background:new 0 0 500 500;" xml:space="preserve">
<path id="Gymnastics_5" d="M383.4,202.3c-2.6-7.9-12.2-22.3-12.7-25.2c-0.5-2.9,5.5-43.4,4.6-50.1c-1-6.7-0.7-10.1-0.7-10.1
	s2.9-10.6,0.7-35.3c-2.2-24.7-0.7-37.4-1.7-42.5c-1-5-2.2-8.4-2.2-12.2s3.6-11,2.4-11.5c-1.2-0.5-2.9,1.4-2.9,1.4s-0.2-1.2-1.8-1.5
	c-1.6-0.3-1.6,2.1-2,2.4c-0.5,0.2-0.8-1.7-1.4-1.8c-0.6-0.1-1.8,0.2-1.6,3.5c0,0-2.2-1.4-2.8,0.2c-0.6,1.7-1.7,9.2-1.2,12.5
	s1.1,8,0.5,8c-0.6,0-3.2,0.4-4.7-1.1c-1.4-1.4-5-1.7-5.8,0.2c-0.7,1.9,0.4,1.7,4.3,3.2c4,1.6,4.3,5.5,5.6,7c1.3,1.4,5,2.6,4.8,5.9
	c-0.2,3.2-5.9,24.4-5.6,34c0.2,9.6,2.9,20.6,3,24.6c0.1,4-3.4,12.1-3.4,12.1s-6.6-3-7.9-4.7c-1.3-1.7-10.8-12.4-20.4-11.9
	c0,0-13.4,4.3-15.6,6.7c-2.2,2.4-2.2,2.4-2.2,2.4s-7.8-3-9.7,1.1c-1.9,4.1-6.4,19.5,6.6,19.5c0,0,9.1,12.2,16.8,13
	c7.7,0.7,7,3.8,6.7,6.7s-2.2,8.9-3.6,9.1c-1.4,0.2-11.8-4.3-20.2-4.3c-8.4,0-18.7,3.4-20.6,4.3c-1.9,1-18-4.3-18-4.3s-1.4-13,0-18.2
	c1.4-5.3,1.2-13-4.8-25.7c-6-12.7-14.6-30.2-15.1-37.9c-0.5-7.7,4.8-9.4,3.4-13.7c-1.4-4.3-5.5-2.9-5.5-8.4s-0.7-14.9-8.4-22.1
	s-12.7-7-13.1-3.6c-0.4,3.4,4.2,17.8,4.9,27.4c0.7,9.6,8.2,17.3,7.9,23c-0.2,5.8,12.2,70.3,10.3,77.5c0,0-31.9,1-36,0.5
	c-4.1-0.5-13.9-1-16.3,1c-2.4,1.9-11.4,6.6-9.3,8.6c0.3,0.3,0.7,0.4,1.1,0.6c-43.9,15.5-75.4,57.3-75.4,106.4
	c0,62.2,50.6,112.8,112.8,112.8c18.3,0,35.6-4.4,51-12.2c-0.1,3.3,0.1,7.2,0.7,12c2.9,21.6,6.2,25.2,5.8,35.3
	c-0.5,10.1-8.9,13.9-8.9,19.9s4.3,2.2,8.4,10.3c4.1,8.2,9.1,23,12.5,24c3.4,1,16.8,3.1,17.8,0c1-3.1-7.2-9.6-7.4-11.5
	c-0.2-1.9-6.2-29-6.2-32.4c0-3.4,0-47.7,1.9-58.5c1.1-6.3,2-12.8,2.4-18.1c21.5-20.6,34.9-49.5,34.9-81.5c0-4.8-0.3-9.6-0.9-14.3
	c10.3-4.5,21.4-11.2,28.6-22.8C383.1,217.2,386,210.3,383.4,202.3z M302,213.1c-3.4-2.2-11.7-15.3-16.8-24.3
	c13.5,8.7,25,20.4,33.4,34.1c-1.1-0.1-2.3-0.4-3.2-1C312.6,220.1,306.4,216,302,213.1z M227.3,386.4c-59.2,0-107.3-48.1-107.3-107.3
	c0-50.9,35.6-93.5,83.1-104.5c2.4,0.6,5,0.9,6.3,0c0.6-0.4,1.5-1,2.6-1.7c5-0.7,10.1-1.1,15.3-1.1c0.2,0,0.4,0,0.6,0
	c11,2.4,24.4,5.1,24.4,5.1s2.9,6.7,5.3,16.8c2.4,10.1,7.4,31.9,15.1,43.9c3.1,7.9-1.7,18.6-1.7,27.1c0.1,10.1,5.3,68.6,8.4,85.4
	c1.9,10.4,0.2,15.5-0.7,23.1C263.5,381.6,245.9,386.4,227.3,386.4z M334.6,279.1c0,28.4-11.1,54.2-29.1,73.4c0-0.3,0-0.6-0.1-0.9
	c-0.5-5,1.4-69.1,7.9-75.8c2.9-3,11.1-5.2,20.6-8.8C334.4,270.9,334.6,274.9,334.6,279.1z M285.1,182.2l1.3-0.1
	c0,0,18.3,0.1,23.6,3.7s16.3,15.8,17,21.6c0.7,5.8-0.6,13.4-2.4,14.5c0,0-0.1,0-0.1,0C314.9,205.6,301.3,191.9,285.1,182.2z
	 M354.2,158.5c-1.9,0.5-5.2,0.6-5.2,0.6s-0.6-4.2,1.1-5.9c1.7-1.7,4.6-3.4,4.6-3.4h2.2C356.9,149.9,356.2,158.1,354.2,158.5z"/>
</svg>
