<?xml version="1.0" encoding="utf-8"?>
<!-- Generator: Adobe Illustrator 26.3.1, SVG Export Plug-In . SVG Version: 6.00 Build 0)  -->
<svg version="1.1" id="Gymnastics" xmlns="http://www.w3.org/2000/svg" xmlns:xlink="http://www.w3.org/1999/xlink" x="0px" y="0px"
	 viewBox="0 0 500 500" style="enable-background:new 0 0 500 500;" xml:space="preserve">
<path id="Gymnastics_4" d="M401.9,136.3c-24.7-11.3-58.8-18.5-96.1-19.6c0,0,0,0,0,0c-5.7-11.6-12.8-24.8-22-34.3
	c-15-15.7-33.2-27.9-35.1-31.3c-1.9-3.4-10.3-13.8-13.2-13.8s-9.4,3.4-11,3.4c-1.6,0-5.6-2.8-7.2-3.4c-1-0.4-1.8,0.1-1.5,1.4
	L113.3,22.4l-0.4,2.4l3.5,0.6c2.7,4.6,12.4,20.7,26.4,35.8c16.6,17.9,40.7,46.4,104.6,59.2c22.9,4.6,35.1,5.4,44.3,5.4
	c3.7,7.9,6.7,16.2,4.6,21.9c0,0-9.4-11-13.5-10c-4.1,0.9-12.5,19.1-11.9,24.1c0.6,5-5,4.4-5,4.4s0.3,1.3-5.3,0
	c-5.6-1.3-17.9-1.9-21.6-3.5c-3.8-1.6-15.7-9.5-17.5-10.5c-1.9-1-3.4-2.9-3.4-2.9s-1.9-9.1,0-13.2c1.9-4.1,3.4-12.5,0.6-13.5
	c-2.8-0.9-7.5,4.1-10,8.8c-2.5,4.7-3.4,11.6-3.4,11.6s-23.5-18.1-23.8-20.5c-0.3-2.4,2.8-7.4,2.8-9.6s2.5-10.7-0.6-11.3
	c-3.1-0.6-13.2,6.6-14.7,8.5c-1.6,1.9-7.5-3.8-8.8-3.8c-1.3,0,0.6,3.1,3.1,5.6c2.5,2.5,5.6,14.1,9.1,17.2
	c3.4,3.1,25.1,25.7,25.1,25.7s-28.8,47.9-27.3,54.2c1.6,6.3-0.6,8.8,21.9,18.5c22.6,9.7,47.3,21.6,58.3,26.9
	c11,5.3,17.2,14.1,19.1,20c0.3,0.8,0.6,2.2,1.1,3.8c-4.2,0.3-8.5,0.7-13,0.9c-64.5,3.4-76.3-1.7-131.6,17.2
	c-54,18.5-77.9,49.7-78.5,67.6c-0.6,17.9,28.8,26.6,67.3,25.7c38.5-0.9,94.5-20.3,104.2-29.3c0,0-25.1,10-58.9,16
	c-33.8,6-58.6,6.3-66.1,6c-7.5-0.3-39.1-7.8-37.9-24.4c1.2-16.7,10.7-26.9,30.1-37.3c19.4-10.3,75-25.5,97.9-27.1
	c22.9-1.6,58.4-2.4,88.8-5.4c2.5,10.7,5.1,24.2,4.7,29c-0.6,7.5,1.9,34.1,4.4,47.3c2.5,13.2,5.6,26.9,6.6,49.2c0.9,22.2,2.5,26,0,32
	c-2.5,6-13.5,23.2-17.5,24.7c-4.1,1.6-6.6,3.4-2.5,5c4.1,1.6,13.5,1.3,17.2,0c3.8-1.3,2.8-4.4,8.8-8.1c6-3.8,12.8-7.8,12.2-13.8
	c-0.6-6-5.3-16.9-3.4-25.1c1.9-8.1,9.1-37.6,9.1-46.4c0-8.8-9.4-24.7-9.4-33.5c0-5.2,1.5-37.9,3.3-65.1c34.4-5.9,78.3-15.9,96-24.5
	c24.4-11.9,47.6-33.8,49.5-63.9C453.6,164.8,426.7,147.6,401.9,136.3z M255,213.3c-0.5,7.8-1.4,5.6-5.4,4.7
	c-4-0.9-45.6-14.6-48.9-15.7c-3.3-1.2-5.2-0.9-1.4-3.8c3.8-2.8,9.2-33.4,9.2-33.4s22.1,14.8,27.7,16.4c5.6,1.6,6.3,3.8,10.3,6.6
	C250.6,191,255.5,205.5,255,213.3z M221.2,103.4C197.7,95,151.8,58,140.4,42c-6.4-8.9-9.2-12.8-10.4-14.6l87.5,14
	c2.5,3.1,8.4,10.3,12.8,13.8c4.4,3.4,14.4,7.5,16.9,11c2.5,3.4,33.2,33.2,35.4,40.7c0.6,2.1,2.2,5.3,4.2,9
	C259.9,114.1,240.4,110.3,221.2,103.4z M441.7,206.5c-4.1,24.4-22.6,42.6-49.8,47.9c-19.6,3.8-47.1,13.1-85,19.4
	c1.1-14,2.2-25.1,3.2-27.8c3.1-8.1,12.2-25.1,13.2-53.6c0.9-28.5-1.6-44.2-8.1-56.4c-1.5-2.9-3.3-6.5-5.2-10.5
	c9.4,0.4,21.9,2.4,46.5,9.5C421.4,153.8,445.8,182,441.7,206.5z"/>
</svg>
