<?xml version="1.0" encoding="utf-8"?>
<!-- Generator: Adobe Illustrator 26.3.1, SVG Export Plug-In . SVG Version: 6.00 Build 0)  -->
<svg version="1.1" id="Gymnastics" xmlns="http://www.w3.org/2000/svg" xmlns:xlink="http://www.w3.org/1999/xlink" x="0px" y="0px"
	 viewBox="0 0 500 500" style="enable-background:new 0 0 500 500;" xml:space="preserve">
<path id="Gymnastics_1" d="M101.4,156.9c0,0-61.2,51-59.9,76.5c0,0-1.4,10.5,10.3,17.5c0,0,2.2,26.3,19.6,45.2s18.9,19.7,18.9,24.9
	c0,5.3,4.4,33.5,0.6,37.4c-3.9,3.9-19.4,8.3-29.4,8.6c-10,0.3-16.3,3-13.9,6.4c2.5,3.3,53.2,2.8,56.3,1.7s11.9-6.9,12.2-16.1
	s0-15.5,0-15.5s37.7,23.3,96.2,23s82.3-7.5,106.7-7.5c24.4,0,92,14.4,116.4,14.4c24.4,0,24.7,0.6,24.1-4.2s-11.1-4.4-20.2-7.5
	c-9.1-3-23.6-12.7-27.2-21.3c-3.6-8.6-9.7-10.5-13.9-8c-4.2,2.5-7.8,7.8-14.1,8.6c-6.4,0.8-55.1-21.9-82.6-21.9
	c-27.4,0-28,7.5-40.7,7.5c-12.7,0-40.5-19.4-74.3-16.3c0,0-2.5-18.3-23.3-20.8c-20.8-2.5-37.7,9.4-46-14.1s-1.7-73.7-1.7-73.7
	s1.4,15,18.6,15s14.7-15.2,18.6-17.7s18.8-8.3,18.8-31.6s-20-34.4-30.8-38.2c-10.8-3.9-11.4-6.4-12.7-5.3c-1.4,1.1-0.8,3.6-3.6,3.6
	c-2.8,0-15-3.9-18.8,1.1C101.7,133.3,109.4,152.2,101.4,156.9z"/>
</svg>
