<?xml version="1.0" encoding="utf-8"?>
<!-- Generator: Adobe Illustrator 26.3.1, SVG Export Plug-In . SVG Version: 6.00 Build 0)  -->
<svg version="1.1" id="Handball" xmlns="http://www.w3.org/2000/svg" xmlns:xlink="http://www.w3.org/1999/xlink" x="0px" y="0px"
	 viewBox="0 0 500 500" style="enable-background:new 0 0 500 500;" xml:space="preserve">
<path id="Handball_3" d="M468.2,394.9c-7.5-15.5-17.5-27-24.1-27.9c-6.6-0.9-11.5,10.1-14.1,10.3c-2.6,0.3-8.9,0.3-15.2-3.2
	c-6.3-3.4-30.2-11.5-42.8-11.5c-12.6,0-26.2,6-26.2,6L313.1,334l-1.4-7.8c0,0-25-21-31.9-39.9S256,251.8,250.6,246
	c-5.4-5.7-12.8-6.6-16.6-24.4c-3.7-17.8-7.8-57.2-8-58.3c-0.3-1.1,23.9-27.9,27.9-32.8c4-4.9,8.3-13.2,7.5-16.1
	c-0.9-2.9-14.4-16.1-29-23.6c-0.4-0.2-0.8-0.4-1.3-0.6c0.1-1,0.2-2,0.2-3.1c0-11.8-8.8-24.3-21.4-24.3c-12.6,0-24.3,8.1-24.3,24.3
	s12.5,24.3,24.3,24.3c5.8,0,11.1-5.3,15-9.1c1.6,2.3,5.7,8.3,6.8,12c1.4,4.6-2.3,5.5-6.3,6.6c-4,1.1-15.5,10.3-21.8,10.9
	c-6.3,0.6-22.1,7.5-22.1,7.5s-1.4-1.4-1.4-4.3s4.3-15.2-2-27.9c-6.3-12.6-14.1-18.4-27.9-14.9c-13.8,3.4-21.9,11-23.3,15.3
	c-1.4,4.3-2.7,10-0.5,9.7c2.3-0.2,1.7,15.6,4.5,18.4s1.1,11.2,2.3,12.1c1.1,0.9,4,0.6,4,0.6s4.1,15.2,7.8,15.5c3.7,0.3,6-0.9,6-0.9
	l-2.6,6c0,0-17.8,17.5-21.3,19.3c-3.4,1.7-13.5,3.4-23.6,3.7c-10.1,0.3-31.3,8.3-38.8,9.2c-7.5,0.9-27,2.6-32.5,3.7
	s-14.7,11.5-12.9,13.8c1.7,2.3,5.7,7.2,6.6,8.9s10.3-2.6,13.2-5.2c2.9-2.6,11.8-4.9,15.5-4.6c3.7,0.3,34.8,5.5,46,2.9
	c11.2-2.6,23.9-7.5,32.8-10.1c8.9-2.6,14.9-0.6,14.9-0.6s27,56,27.6,60.9c0.6,4.9-46.6,38.5-48.3,39.7c-1.7,1.1-4.3,4-4.3,4v2.6
	c0,0-23.9,23.6-23.9,31c0,7.5,12.4,10.9,22.4,11.8c10.1,0.9,44-7.8,52.3-14.4s25.6,1.1,25.6,1.1s3.4,6.6,5.2,6.6s9.2,0,14.9,4.3
	c5.7,4.3,12.6,12.4,17.5,9.8c4.9-2.6,2.3-11.5,0-15.8c-2.3-4.3-21.3-25-21.3-25l6.3-3.2l52,42.2l6-0.9c0,0,42.5,36.5,53.2,37.9
	c10.6,1.4,52.3-5.2,62.9-4.3c10.6,0.9,34.5,4.5,34.5,4.5s4,2.1,4.9,5.5c0.9,3.4,1.7,7.8,4.6,7.5c2.9-0.3,11.2-0.3,14.7,2.6
	s14.9,18.1,18.7,16.4c3.7-1.7,8.3-9.2,8-14.9C481.8,414.4,475.7,410.4,468.2,394.9z"/>
</svg>
