<?xml version="1.0" encoding="utf-8"?>
<!-- Generator: Adobe Illustrator 26.3.1, SVG Export Plug-In . SVG Version: 6.00 Build 0)  -->
<svg version="1.1" id="Handball" xmlns="http://www.w3.org/2000/svg" xmlns:xlink="http://www.w3.org/1999/xlink" x="0px" y="0px"
	 viewBox="0 0 500 500" style="enable-background:new 0 0 500 500;" xml:space="preserve">
<path id="Handball_1" d="M459.1,199.1c-4-2.8-16.2-9.2-20.8-10.3c-4.6-1.1-20-9.4-23.3-11.8c-3.3-2.4-33.3-16.5-36-17.5
	c-2.8-0.9-5.7-5.3-9-8.3c-3.3-2.9-25.5-23.7-33.6-24.1c-8.1-0.4-29.4,0.7-31.8-1.5c-2.4-2.2-2.4-7.2-2-7.9c0.4-0.7,6.2-3.7,6.2-17.3
	c0-13.6-1.7-28.5-20-28.5c-18.4,0-25,19.5-24.6,30.3c0.4,10.8,7.7,22.8,8.5,25c0,0,1.8,2.6,0,8.8c-1.8,6.2-1.5,9.2-4.8,9.2
	c-3.3,0-12.1-2.6-18.7,4c-6.6,6.6-7,5.5-12.1,6.6c-5.1,1.1-18.4,6.6-21.7,8.5c-3.3,1.8-23.9-32-26.5-37.1c-2.6-5.1,0-22.4-2.9-24.6
	c-0.7-0.5-1.5-1.1-2.5-1.7c0.2-1.1,0.3-2.1,0.3-3.2c0-11.7-9.5-21.2-21.2-21.2s-21.2,9.5-21.2,21.2s9.5,21.2,21.2,21.2
	c2.4,0,4.7-0.4,6.9-1.2c-0.1,0.6-0.1,1.1,0,1.4c0.7,2.9,2.2,3.7,7,11.4c4.8,7.7,19.1,55.5,23.9,58c4.8,2.6,45.9,1.5,50.3,0
	c4.4-1.5,3.7,54,0.7,54.4s-44.8-10.7-63.6-7.3c-18.7,3.3-17.3,1.8-29.8,5.1c-12.5,3.3-14,5.1-22.1,15.4c-8.1,10.3-51.5,68.4-54,70.2
	c-2.6,1.8-5.5,0.7-12.5,4s-4.8,3.7-10.7,4.8c-5.9,1.1-13.2,4-21.3,4.8c-8.1,0.7-10.3,0.7-10.3,5.5c0,4.8,7.3,11,18,11.4
	c10.7,0.4,19.5-1.1,22.8,0c3.3,1.1,12.1,2.9,17.6,3.3c5.5,0.4,9.2-4,9.9-7c0.7-2.9,3.7-14.3,8.5-19.8c4.8-5.5,49.6-37.5,56.2-57.7
	c0,0,21.7,3.7,29.4,6.6c7.7,2.9,51.1,14.7,58.8,15.4c7.7,0.7,15.1,5.1,18.4,20.9c3.3,15.8,5.1,39.3,5.1,39.3l3.7,0.7
	c0,0,2.2,31.6,14,41.5c11.8,9.9,24.3,3.7,26.8,1.8c2.6-1.8,18.4-15.1,21.7-14.7c3.3,0.4,2.9,4.4,6.6,7.4c3.7,2.9,4.8,8.8,5.1,13.2
	c0.4,4.4,1.1,17.3,3.3,17.6c2.2,0.4,11,1.5,15.4-5.9c4.4-7.3,4.4-24.6,4-27.9c-0.4-3.3-4.4-12.1-4.4-15.1c0-2.9-2.6-20.2-7-23.2
	c-4.4-2.9-21.7,6.2-23.2,8.1c-1.5,1.8-21.3,1.8-21.3,1.8v-6.2c0,0,2.2,1.5,2.9-0.7c0.7-2.2,0.7-92,2.2-95.2c1.5-3.3,4-3.6,4-3.6
	s2.2-44.5,4.8-53.3c2.6-8.8,7-38.6,7-38.6l22.1,8.5c0,0,6.2-0.7,9.9,2.2c3.7,2.9,20.9,13.2,57,21.3c0,0,3.5,1.8,3.5,3.7
	c0,1.8,0.6,5.3,0,6.2s-5.3,3.1-4.6,4c0.7,0.9,3.9,1.5,5.9,0.7c2-0.7,6.4-7.3,9.2-7.9c2.8-0.6,7.4,0,9.6,1.8c2.2,1.8,12.3,5,13.2,4.8
	c0.9-0.2,1.1-3.1,1.8-3.3c0.7-0.2,8.1-1.1,8.1-2.8C473.3,203.7,463.2,201.9,459.1,199.1z"/>
</svg>
