<?xml version="1.0" encoding="utf-8"?>
<!-- Generator: Adobe Illustrator 26.3.1, SVG Export Plug-In . SVG Version: 6.00 Build 0)  -->
<svg version="1.1" id="Handball" xmlns="http://www.w3.org/2000/svg" xmlns:xlink="http://www.w3.org/1999/xlink" x="0px" y="0px"
	 viewBox="0 0 500 500" style="enable-background:new 0 0 500 500;" xml:space="preserve">
<path id="Handball_2" d="M423.4,141.9c-3.5-0.6-13.2,1.6-18,2.2c-4.7,0.6-4.7,0.9-7.2-1.9c-2.5-2.8-16.1-18.3-24.6-21.7
	c-8.5-3.5-28.7-0.6-31.2-1.9l-0.6-2.8c0,0-20.2-5.4-25.5-6.3c-5.4-0.9-11.7-5.7-17.3-5.7c-5.7,0-12.3,0.2-12.3,0.2s-6.9-0.6-6.9-3.2
	s0.8-3.3,2.4-4.9c1.6-1.6,6.5-11.8,5.5-24.6c-0.9-12.8-6.9-25.2-20.5-25.2c-13.5,0-29.8,8-29.8,32.3c0,24.3,8,22.5,7.2,29.5
	c-0.8,6.9-8.7,3.3-15.1,5.8c-6.5,2.5-17.2,11.5-21.6,12.3c-4.4,0.8-3,2.5-9.6,0.8c-6.6-1.7-35.6-6.8-57.8-6.6c0,0-3.2-0.3-4.7-2.4
	c-1.6-2-15.3-17.5-19.4-14.8c-1,0.7-1.1,1.9-0.7,3.4c-2.9-1.3-6.2-2.1-9.6-2.1c-12.8,0-23.1,10.3-23.1,23.1s10.3,23.1,23.1,23.1
	c10.8,0,19.8-7.4,22.4-17.4c1.8-0.4,3.5-1,4.7-1.8c4.4-3,8-0.9,11.3,0.2c3.3,1.1,26.9,15.4,41.3,17.8c14.3,2.4,23,0.6,23.9,2.5
	c0.9,1.9,0.2,3.6,0.2,3.6s9.5-0.9,10.6,1.3c1.1,2.2,0.6,30.9-3.5,46.3c-4.1,15.4-24.4,44-24.4,44s-16.7,27.3-22.1,36.4
	c-5.4,9.1,0.9,12.4-8.3,22.8c-9.3,10.4-17.2,20.3-17.2,20.3s-22.7,1.3-29.5,12.6c-6.8,11.3-4.9,12.9-3.3,13.9c1.6,0.9,17.3-2.8,18,0
	c0.6,2.8-16.1,39.7-16.1,39.7s-31.2,39.4-35,42.9c-3.8,3.5-5.4,6.6,0,9.8c5.4,3.2,12.9,8.2,16.4,6.3c3.5-1.9,9.8-14.8,17.3-22.4
	c7.6-7.6,15.4-17.3,16.1-24.9c0.6-7.6,2.8-13.9,12.6-23.9c9.8-10.1,15.1-20.2,15.1-20.2s8.8-1.6,9.8-3.8c0.9-2.2,6,1.6,6,1.6
	s37.2,29.6,43.5,35.3c6.3,5.7,12,6.3,14.8,6.3c2.8,0,17.6-10.1,28.7-33.4c11-23.3,35.9-83.2,36.9-91.7c0.9-8.5,0-21.1,0-21.1
	s5,0.3,5.4-2.2c0.3-2.5,0.6-33.7,2.5-46c1.9-12.3,5.7-47.3,7.2-51c1.6-3.8,32.5-9.1,32.5-9.1v-3.8c0,0,17.3-1.3,19.9,0
	c2.5,1.3,28.7,13.9,30.9,17.6c2.2,3.8,7.6,4.7,11.7,4.7c4.1,0,11.7,0,12.6-1.6C419.6,160.5,426.9,142.5,423.4,141.9z M217.3,353.7
	c-4.4-0.6-39.9-16.9-39.9-16.9l-1.1-3.6l16.2-11.8l7.9,1.7l19.1-11l-12.1,19.9c0,0,13.4,9,13.9,14
	C221.7,351,221.7,354.3,217.3,353.7z"/>
</svg>
