<?xml version="1.0" encoding="utf-8"?>
<!-- Generator: Adobe Illustrator 26.3.1, SVG Export Plug-In . SVG Version: 6.00 Build 0)  -->
<svg version="1.1" id="Field_hockey" xmlns="http://www.w3.org/2000/svg" xmlns:xlink="http://www.w3.org/1999/xlink" x="0px"
	 y="0px" viewBox="0 0 500 500" style="enable-background:new 0 0 500 500;" xml:space="preserve">
<path id="Horseback_Riding_2" d="M468.7,386.9c-0.4-2.2-0.9-3-5.2-5.7c-4.4-2.7-8.5-6.2-8.7-7.8c-0.2-1.6-1.1-5.7-4.6-8.7
	c-3.5-3-13.8-10.2-19.8-20.3c-6-10.1-11-16.1-14-17.8c-3-1.7-44.5-26.9-44.5-26.9s6-0.5,5.9-19.7c-0.1-19.2,5-41.7,7-46.2
	c0.1-0.2,0.2-0.5,0.3-0.7l22.6,7.6c0.1,1,0.5,1.9,1.2,2.6c1.1,1.1,2.8,1.6,4.9,1.6c0.1,0,0.1,0,0.2,0c0.1,0,0.1,0,0.2,0
	c0.5,1.8,0.8,3.7,0.7,5.5c-0.2,4-1.1,6.4-0.2,9.2c0.9,2.9,3.6,8,7,7.5c3.4-0.5,6.9,2.2,8.8,1.9c2-0.4,4.7-3.5,7.8-5.2
	c3.1-1.7,8.1-1.4,8.5-10s-0.6-11.1-0.6-11.5c0-0.4,0.5-1.4,0.5-1.9c0-0.5-0.5,0.1-0.6-1.5c-0.1-1.6,1-1.6,1-3.7
	c0-2.1-1.5-2.9-1.5-4.2s2.6-23.4,4.5-27.8c1.9-4.4,2.4-4.5,1.6-6c-0.7-1.5-2-7.6-2.2-10.5c-0.2-2.9-0.4-4.2,0-4.7
	c0.4-0.5,2.4-0.6,2.1-3.2c-0.2-2.6-2.6-8.7-1.2-10.6c1.4-1.9,3.4-0.9,6.5-10.8c3.1-10,3.5-11.5,3.5-11.5s-2.5-1.4-7.7,4.1
	c-5.2,5.5-3.1,8.3-10.7,12.3c0,0-1.1-10.1-2.1-10.3c-1-0.2-4.7,1.6-6.6,3.2c-1.9,1.6-0.7,2.2-3.4,1.4c-2.6-0.9-23.2-14.3-35.3-14.1
	c-12.1,0.2-36.8,0.7-53.7,15.8c-16.9,15.1-21.7,20.6-21.7,20.6s-1.1-0.1-1.6-3.2c-0.5-3.1-5.6-5.1-7.8-9.3
	c-2.2-4.2-19.6-15.9-22.3-19.6c-2.7-3.6-6.1-8.1-6.2-14.1c-0.1-6-1.5-19.2-1.5-19.2s-0.1-1.4-4-5.1c-3.9-3.7-0.1-4.7,0.9-4.9
	c1-0.1,5.6-0.2,6.2-1.2c0.6-1,1-9.8,1-9.8s1.2-0.5,1.5-1c0.2-0.5-1.7-3.9-1.5-5c0,0,8.2-1.1,9.2-3.6c1-2.5-4.7-3.5-4.7-3.5
	s-0.6-18.3-18.8-18.3c-18.2,0-17.8,22.4-17.8,23.8c0,1.4-0.2,3.5,2.2,3.6c2.3,0.1,1.7,2,2.7,2.7c1,0.7,0.9,2,0.5,2.7
	c-0.4,0.7-4.9,4-7.1,7.8c-2.2,3.9-12.3,10.8-16.6,28.7c-4.2,17.8-2.6,17.8-4.1,22.1c-1.5,4.2,1.2,7-0.1,8.7c-1.4,1.7-1.9,6-1,7.8
	c0.9,1.9,1.7,2.9,0.4,4.4c-1.4,1.5-4.1,1.1-4.1,10.6c0,0-7.2,1.6-7.1,3.9c0.1,2.2,3,4.4,3,5.7c0,1.4-2,3.4-2,6.1
	c0,2.7,0.7,5.1,0.7,5.1s-37.9-8.7-52.3-8.5s-31.6,8-36.4,8.5c-4.7,0.5-11.5,0.7-15.7-1c-4.2-1.7-39.4-17.2-69.3,20.4s-8.7,83-8.7,83
	s14.5-15.4,16.7-23.7s3-23.4,12.7-29.9c9.7-6.5,36.6-33.6,45.6-34.4c0,0-1.7,7-4.7,11.5c-3,4.5-8.7,15.4-9,22.9
	c-0.2,7.5,10,26.9,10,36.6c0,9.7-14.7,27.7-23.9,36.6c-9.2,9-6,11.2-9,23.2c-3,12-6,16.4-10,27.4c-4,11-6.2,7.5-6.2,18.9
	c0,11.5,0.5,13.7-1.5,15.2c-2,1.5-9,7.2-8.5,10.5c0.5,3.2,2,2.5,2,6.2c0,3.7,0.7,11.2,21.2,8.5c0,0,3.7-0.2,2.5-5.7
	c-1.2-5.5-4.5-5.2-3.7-9c0.7-3.7,1.7-3.2,0.5-7.5c-1.2-4.2-2.2-4,1-9.5c3.2-5.5,7-12.5,8.2-21.7s6.5-20.4,10.2-24.4
	c3.7-4,8-8.7,15.2-18.7c7.2-10,21.7-24.7,23.4-31.1c0,0,12,9.5,11.2,27.9c-0.7,18.4-3.2,23.7-2.5,28.4c0.7,4.7,2,7.5,10.2,12
	c8.2,4.5,15.9,25.9,26.9,34.4c0,0,2.6,1.6,3.5,3.4c0.9,1.7,2.4,5.2,4.9,6c2.5,0.7,5.9,1.2,5.9,1.2s3,7.7,10.2,7.6
	c7.2-0.1,16.9-3.6,17.4-10.2c0.5-6.6-22.3-10.1-23.7-10.1s-8.6-10.6-9.5-11c-0.9-0.4-9.5-9.7-11.3-12.8c-1.9-3.1-9.5-14.1-9.1-20.9
	s3.1-31.6,7.5-41c4.4-9.3,6.7-26.7,9.7-30.4c3-3.7,3.9-2.6,6.4-1.5c2.5,1.1,40,24.2,77,21.2c37-3,37-4.1,44.6-4.9
	c7.6-0.7,10.3-3.1,12.3-0.6c2,2.5,5.2,15.4,5.1,25.7c-0.1,10.2,2.4,22.6,4.4,26.9c2,4.4,4.4,25.8,4.5,34.8c0.1,9,0.9,13.3,5.2,13.7
	c4.4,0.4,8.8,0.2,9.8,2.1c1,1.9-1.5,3.4,2,5.7c3.5,2.4,3.9,2.9,4.6,5.4c0.7,2.5,5.2,3.4,8.7,3.2c3.5-0.1,16.9-0.4,17.3-5
	c0.4-4.6-9.7-12.1-10.1-13c-0.4-0.9-2.7-4.4-7.4-5.6c-4.6-1.2-10.3-1.1-12.2-2.6c-1.9-1.5-1.9-2.4-4-6c-2.1-3.6-3.4-6.6-3.6-15.4
	c-0.2-8.8,1.7-58.2,1.7-58.2s18.1,8,25,9.2s28.5,8.1,38,15.1c9.5,7,13.8,9.7,18.2,16.8c4.4,7.1,8.3,15.3,10,18.2s8.7,5.4,8.8,7.1
	c0.1,1.7-2.9,5.4-1.9,7.2c1,1.9,3.5,1.5,3.5,3.7s0,10.7,7.2,10.8c7.2,0.1,22.1-2.2,22.3-6.6C478.5,396.6,469.1,389.1,468.7,386.9z
	 M412.7,240.9c0.4,0.7,0.7,1.6,1,2.5c-1.7,0-3.1-0.4-4-1.3c-0.6-0.6-0.9-1.3-0.9-2.1c0-0.5,0.1-0.8,0.3-0.9c0.1-0.1,0.3-0.1,0.5-0.1
	c0.5,0,1,0.2,1.3,0.3C411.7,239.9,412.3,240.4,412.7,240.9z M394.7,213.2c0,0,11.1,9.3,12.2,13.6c0.3,1.1,0.7,2.3,1.1,3.5l-17.1-7.9
	C392.9,218.7,394.7,215.1,394.7,213.2z M390.3,223.5l17.7,8.2c0,0,2.2,4.5,3,6.2c-0.7-0.2-1.7-0.4-2.5,0.1c-0.3,0.2-0.6,0.5-0.8,1.1
	l-22.1-7.4C386.9,229.5,388.6,226.5,390.3,223.5z M289.1,183.2c-2.5-1.6-11.5-4.4-11.5-4.4s-0.7-7.2-2.2-11
	c-1.5-3.7-1.4-10.2-1.4-10.2s10.7,7.7,14.3,9.3c3.6,1.6,4.5,0.9,7.6,3c3.1,2.1,3.1,1,4.6,1.2c1.5,0.2,2.1-0.7,3,1.2
	c0.9,2,5.1,2.7,5.1,3.9c0,1.1-0.4,2-0.9,3.2c-0.5,1.2,2.7,5.2,2.7,5.2S291.6,184.8,289.1,183.2z"/>
</svg>
