<?xml version="1.0" encoding="utf-8"?>
<!-- Generator: Adobe Illustrator 26.3.1, SVG Export Plug-In . SVG Version: 6.00 Build 0)  -->
<svg version="1.1" id="Field_hockey" xmlns="http://www.w3.org/2000/svg" xmlns:xlink="http://www.w3.org/1999/xlink" x="0px"
	 y="0px" viewBox="0 0 500 500" style="enable-background:new 0 0 500 500;" xml:space="preserve">
<path id="Horseback_Riding_1" d="M478.1,160.9c-1.1-11.5-10-44.5-10-44.5s7-19.1,6.2-25.5c0,0-11.1-0.6-17,10.8
	c0,0-11.1-2.3-24.9-2.3c-13.8,0-49.1,8.3-63,14.9c-14,6.6-19.4,5.3-19.4,5.3l4.2-9.4c0,0,3.4-5.1,1.7-6.6c-1.7-1.5-4.1,2.8-3.4,5.8
	c0,0-4.3,9.4-6,10.2c-1.7,0.8-4.3,1.2-4.3,1.2s-6.5,3.1-9.3,2.3s-7.4-4.5-10.8-4.2c-3.4,0.3-6.8-4-6.8-6.8c0-2.8,5.9-11.6,4.8-14.7
	v-1.8c0,0,1.3,1.2,2.3,1.1s5.8-9.3,6.4-10.1c0.6-0.8,1.7-1.6,1.2-3.4c-0.6-1.8-0.3-5-0.3-5s10.4-0.3,10.7-1.5c0.3-1.2-5-4.5-5.4-7.5
	c-0.4-2.9-1.8-24-22-24c-20.2,0-21.8,23.5-21.7,26.7c0.1,3.2-0.1,3.8,3.3,4c0,0-0.1,1.3,0.5,3c0.6,1.7-2,1-5.4,2.5
	c-3.4,1.5-8.5,11-12.5,11.2c-4,0.2-17.7,3.7-18.6,5.1c-0.8,1.4-13.7,5.6-17.6,6.4c-4,0.8-4.9-0.8-11.8,1.7
	c-6.9,2.5-16.5,7.5-22.5,16.3c0,0-6.2,10,2.3,21.7c8.5,11.7,20,23.4,18.3,24.5c-1.7,1.1-26.4,0-29.2-3.2c-2.8-3.2-9.6-7-11.7-5.5
	c-2.1,1.5,1.3,6.8,1.9,10c0.6,3.2-0.2,6.2,1.5,10.6c1.7,4.3,1.7,10.6-0.9,10.8c-2.6,0.2-21.5,0.9-42.8,4.5
	c-21.3,3.6-53.2,20.4-53.2,20.4s-16,5.8-29.3,22.8c-13.2,17-26.6,51.1-29.6,77.4c-3,26.2-13.2,61-13.2,61l23.6-19.1
	c0,0-2.6,16.8-4.5,22.5c-1.9,5.7-9.1,23-9.1,23s3,1.3,3,3.8s-2.3,6-2.8,8.1s-0.9,3-0.9,3h-4.9c0,0-10.6,7.2-10.9,21.5
	c0,0,7.9,3.6,19.1-2.5c0,0-2.5,12.5-0.9,15.1c1.5,2.6,24.2-8.3,29.2-15.1c5.1-6.8,11.7-24.2,13.6-37.7c1.9-13.6,4-22.5,14.2-32.3
	c10.2-9.8,48.7-40.9,65.7-45.1c17-4.2,21.7-32.6,28.3-40c6.6-7.4,17-8.5,28.9-3.6c11.9,4.9,67.6,3.8,74.9,0.6c0,0,1.3,4.9,5.5,4
	c4.2-0.9,79.8-19.2,83.6-20.2c3.8-0.9,18.3-3.8,20-2.5c1.7,1.3,1.3,8.3-1.7,10.8c-3,2.5-14.3,11.9-17.2,12.8c-2.8,0.9,3,1.9,0,7.4
	c-3,5.5-7,4.5-8.5,4.5c-1.5,0-4.2-5.3-10.6-3.4s-13,14.3-13.8,18.9c-0.8,4.5,0.9,6,6.4,4.3c0,0-0.6,6,0.6,6.4
	c1.1,0.4,19.6-6.2,26.2-10c6.6-3.8,7.7-7,11.1-7.5c3.4-0.6,3-3,8.4-10.4c5.4-7.4,20.3-22.6,21.4-34.2c1.1-11.5-4.2-21.3-20.9-23
	c-16.8-1.7-19.4-1.7-19.6-6.4c-0.2-4.7,7-9.8,6.8-19.8c-0.2-10-2.1-16.8,3.8-25.1c2.1-3,5.6-6.9,9.5-10.7c4.3-0.4,8.7-1.3,12.9-1.9
	c8.8-0.6,17.7-0.6,26.5-1.8c1.2,1.4,2.2,3.1,2.9,4.9c2.6,7.7,8.5,10.4,10.8,15.9c2.3,5.5,2.3,14,5.3,15.3c3,1.3,11.1,4.7,13,6.2
	c1.9,1.5,7.7-0.6,10-3.8c2.3-3.2,7.4-8.5,7.4-14.3C486.5,189.9,479.3,172.4,478.1,160.9z M62.8,383.7c-3,5.7-10.2,30.8-10.9,34.7
	c-0.8,4,0.2,4.7-0.4,7.7c-0.6,3-9.1,3.6-9.1,3.6s3.2-4.2,7.4-11.1c4.2-7,6-33,7.5-41.5c1.5-8.5,8.1-18.1,8.1-18.1
	C67,362,65.8,378.1,62.8,383.7z M79.8,269.4c3.8,14.3,11.7,32.5,8.3,38.5c-3.4,6-25.3,20-25.3,20s10.6-20.4,9.1-35.9
	c-1.5-15.5-2.6-49.1,5.1-55.9c7.7-6.8,14.2-8.7,14.2-8.7S76,255,79.8,269.4z M276.3,151.1c-6.4,1.1-13.6,1.4-16,0
	c-2.4-1.4-3-4.4-3-4.4s9.3-14.2,19-12.2c0,0,3.4,3,3.5,8.2C280,148,282.6,149.9,276.3,151.1z M307.8,138.2c-2,2.1-8.2,3-10.9,1.6
	c-2.7-1.4,0-14.3,0-14.3c1.4-0.6,7.2,5.8,8.4,7.5c1.1,1.7,11.7,1.1,12.3,1.4C318.2,134.5,309.8,136.1,307.8,138.2z M419.5,163.5
	c5.2,0.6,10,2.2,13.9,4.7c-2.6,0.1-5.2,0.3-7.7,0.6c-6.2-0.2-12.5-0.9-18.7-0.9C411.4,165,415.9,163.1,419.5,163.5z M410.6,172.6
	c-3.4,0-6.8,0.1-10.1,0.3c1-0.8,2-1.7,3-2.4c5.3,0.4,11,0,16.2-0.5c3-0.4,6-0.2,9,0C422.6,170.8,416.5,171.9,410.6,172.6z"/>
</svg>
