<?xml version="1.0" encoding="utf-8"?>
<!-- Generator: Adobe Illustrator 26.3.1, SVG Export Plug-In . SVG Version: 6.00 Build 0)  -->
<svg version="1.1" id="Judo" xmlns="http://www.w3.org/2000/svg" xmlns:xlink="http://www.w3.org/1999/xlink" x="0px" y="0px"
	 viewBox="0 0 500 500" style="enable-background:new 0 0 500 500;" xml:space="preserve">
<path id="Judo_2" d="M233.2,72.3c0,0-3.1,0-4-2.2c-0.9-2.2-2.2-3.7,3-9c5.2-5.3,13.5-18.5,28-17.9c14.4,0.7,25.6,16.4,26.5,25.1
	c0.9,8.7-1.4,22.1,0,24.1c1.4,2,3.8-1.3,8.5,5.7c0,0,8.7-0.1,18.4,1.8c9.8,1.9,22.3,3.7,26.7,11.5s1.2,7.8,4.4,10.9
	c3.2,3.1,28.3,25,28.3,50.3s-23.7,27.6-22.4,32.3c1.3,4.7,26.6,27.6,27.6,56.9c0,0-19.3,15-20.3,18.6c-1,3.7-16.3,44.6-17.3,61.6
	c-1,17-2.7,56.6-2.7,57.9s-10,3-10.3,6s-1.3,10,0.3,12.7c1.7,2.7,3.9,8.1,3.3,11.8c-0.6,3.7-7.3,5-14.1,4.2
	c-6.8-0.8-6.8,0.2-6.8,0.2s0.3,8.1,0.8,10.9c0.4,2.8-2.2,7.1-5,7.8s-14.9,0.1-23.9,1.4s-24.7,1.8-28.7,0c-4-1.8-4.9-4.3-4.4-5.1
	c0.4-0.8-0.6-2.9,6.9-3.8c7.4-0.9,21.2-7.9,26-12.7c0,0-11.3,0.3-13.3-0.8c-2-1.1-3.1-2.4-2.1-3.7c1-1.2,13.4-2.4,18.2-5.3
	c4.8-2.9,6.9-6.9,6.9-6.9s2-53.3-0.3-64c-2.3-10.8-5-16.6-5.3-35.7c-0.3-19.1,1.8-39.1,1.8-39.1s-5.7-2.9-6.2-5.2s-4.4-0.6,0.6-7.2
	c5-6.7,10.1-20,10.3-23.4c0.2-3.4,0.9-13.6,0.9-13.6s-6.7,4.8-9.4,15.9c-2.8,11.1-5.1,10.2-6.7,21.4c-1.6,11.2-2.8,20.5-2.8,20.5
	s-7.9,0-8.7-1.1c-0.8-1.1,3.6-25.3,8.4-35.4s6.3-19.8,14.8-27.8c0,0,3.3-3.3,8-4.3c0,0-17.5-16-19.8-23.5s-17.8-21.2-17.8-21.2
	s-24.5,19-42.7,28.3s-32.1,22-33.4,22c-1.3,0-4.2-2.3-6.8-9.2c-2.6-6.9-8.2-12.7-8.2-12.7s-3.1,0.8-4.9,4
	c-1.8,3.2-17.1,10.3-19.4,12.2c-2.3,1.9-4.3-0.6-4.3-0.6s-2.7,2.4-4.2,2.1c-1.6-0.3-1.6-2.1-0.9-3.3c0,0-5.3,3.8-6.5,1.6
	c-1.2-2.2,0-4.3,0-4.3s-2.9,2.3-4.5-0.1c-1.7-2.4,7.3-9.1,7.3-9.1s-4.1,3.7-5.8,1.8c-1.7-1.9,4.9-5.8,7.9-7.8c3-2,15.1-6.7,17.9-7.3
	c2.8-0.7-2.4-6.5-2.4-10.2c0-3.7,2.1-5.9,3.2-4.8s0.2,3.6,3.1,6.2c2.9,2.7,5.1,5,6.2,6.9c1.1,1.9,6-0.9,6-0.9s-0.7-0.4-0.6-1.2
	c0.1-0.8,15.1-14.4,39.6-24.6s24.4-26.1,27.2-31.1c2.8-5,11.2-16.5,20.2-18.2c0,0-7.2,0.9-10.2-12.4c0,0-0.2-3.2-0.8-3.2
	c-0.6,0-4.7,1-5-0.9s2.1-5.7,1.6-8.5C238.5,84.4,232.3,80.2,233.2,72.3z"/>
</svg>
