<?xml version="1.0" encoding="utf-8"?>
<!-- Generator: Adobe Illustrator 26.3.1, SVG Export Plug-In . SVG Version: 6.00 Build 0)  -->
<svg version="1.1" id="Judo" xmlns="http://www.w3.org/2000/svg" xmlns:xlink="http://www.w3.org/1999/xlink" x="0px" y="0px"
	 viewBox="0 0 500 500" style="enable-background:new 0 0 500 500;" xml:space="preserve">
<path id="Judo_1" d="M455,280.4c-4.4-3.6-9.6-9.6-11.3-9.8c-1.7-0.2-2.9,3-2,6.5c0.9,3.5,0.6,23.5-3.6,29.1
	c-4.2,5.6-10.4,6.3-10.4,6.3s-1.1-3.9-1.8-3.5c-0.8,0.5-26.8,5.7-38.5,6.2c-11.7,0.5-27-2.1-43.5-0.2c-16.6,2-43.8,12.3-47.4,13
	c-3.6,0.6-6,0.6-6.3-2.1c-0.3-2.7-3.2-8.4-7.1-9.2c-3.9-0.8-11.6,7.5-12.3,4.7c-0.8-2.9-0.9-9.5-3.5-10.8c-2.6-1.4-0.9-13-3.2-14.3
	c-2.3-1.4-9.2,0.2-11.3-4.1c-2.1-4.2-6.2-12.6-9.8-14.3c-3.6-1.7-2.6-18.8-2.6-18.8s6-9,5.1-11.9c-0.9-2.9-10.7-15.8-22.7-15.1
	c0,0-1.5-16.3-5.1-22.3c-3.6-6-4.4-24.7-4.4-24.7s16.1-22,18.8-22.4s11.7-4.8,11.7-7.4s-0.2-3.2-1.4-3.5c-1.2-0.3-3.2-2-2.7-3.9
	c0.5-2,2.3-6.5,2.3-6.5s-1.8-1.7-3.3-1.5c-1.5,0.2-3.3-2.6-6.3-2c-3,0.6-3.6,1.2-3.9,2.9c-0.3,1.7-2.9-0.2-4.8,2.1
	s-0.8,11.9-4.5,12.6c-3.8,0.8,0.3,1.7-3.8,0.8c-4.1-0.9-8.4-1.1-10.5,0.5c-2.1,1.5-8.9-13-8.9-13s2-14-1.8-20.3
	c-3.8-6.3-7.2-11-3.6-11.7c3.6-0.8,4.1,1.8,6.3-1.5c2.3-3.3,6.8-11.6,9.9-12.2c3.2-0.6,7.1-3.9,7.2-6.9c0.2-3-1.1-26.4-22.5-30.3
	c0,0-15.3-2.4-23.7,15.7c-8.4,18.1-8,8-16.9,9.2c-8.8,1.2-35.3,18.5-51,31.7C84.3,130.8,75.4,152,75.4,152s-9.6,6.8-10,12.4
	c0,0-21.7,14.1-20.1,15.7c1.6,1.6,7.2,5.2,6.4,9.2c-0.8,4-10.8,8.8-9.6,27.7c1.2,18.9,5.6,45.4,20.5,77.9c0,0,3.2,14.1,3.6,27.3
	c0.4,13.3,14.9,53.4,15.7,65.5h14.9c0,0-0.8,8.4-1.6,10.8c-0.8,2.4-1.2,11.2,9.6,11.2s3.6-1.6,19.3,0c15.7,1.6,25.3-0.4,29.3-6.4
	c0,0,1.7-1.6-2.9-2.7c-4.5-1.1-20.5-6.9-32.2-18.8V378c0,0,22.1,0.8,24.4-1.5c2.3-2.3-1.2-2.1-6.3-4.7c-5.1-2.6-18.7-8.1-19.6-13.1
	c-0.4-2.4,0.5-44.1,1.8-48.3c0,0,3.8-6.6,3.9-11.9c0.2-5.3-10.1-42.3-14.3-53c-4.2-10.7,0.6-25.1,0.6-25.1s3.9,11.1,4.2,16
	c0.3,4.8,1.4,8.6,3.8,8.6c2.4,0,4.2-6.2,3.5-14.8c-0.8-8.6-4.7-18.8-7.7-26.4c0,0,0-3.3,1.1-3.3s6.2-1.4,6.9-4.8
	c0.8-3.5-0.6-6,2-4.7c2.6,1.4,3.6,4.1,9.5,2.9c5.9-1.2,8.7-6.9,10.5-5.3c1.8,1.7,5,9.5,8.6,9c3.6-0.5,10.7-9.2,12.2-7.2
	c1.5,2,4.8,8.1,7.4,9.3c2.6,1.2,9,2.3,9,2.3s2.3,32.4,1.7,34.6c-0.6,2.3-4.5,5.7-2.9,12.6c1.7,6.9,3,10.7,1.2,17.2
	c-1.8,6.5-1.2,14.5,1.4,22.3c2.6,7.8,3,14.9,4.2,25.1c1.2,10.2,2.1,13,13.7,30.6c11.6,17.6,20.3,25.3,24.8,33.1
	c4.5,7.8,11.4,3.5,14.9,7.5c3.5,4.1,9.9,11.9,11,16.1c1.1,4.2,2,10.1,4.8,9.9c2.9-0.2,4.8-3.5,8.7-2.1c3.9,1.4,17.9,2.9,29.5,0.9
	c11.6-2,12.8,2,28.9-11c16.1-13,18.4-15.5,19.6-15.5c1.2,0-9.6,27.7-9.6,27.7s-10.7,11.7-10.1,15.7c0.6,3.9,5.6,6.5,14.6,6.9
	c9,0.5,20.5-1.4,24.5,1.4c4.1,2.7,13.9,5.6,22,5c8.1-0.6,9.5-4.2,8.7-5.9c-0.8-1.7-0.8-2.1-5.1-2.4c-4.4-0.3-14.8-7.2-14.8-9.2
	c0-2,6.3-0.8,7.4-5.4c1.1-4.7-2.7-9.6-0.9-13.9c1.8-4.2,17.8-56.6,17.8-56.6s30.7-0.8,33.9-2.4c3.2-1.7,3.3-1.7,2.7-7.5
	c-0.6-5.9,2-9.3,2-9.3s9.5-4.2,13.3-4.1c3.8,0.2,9.5,0.2,10.7-2.6c1.2-2.7,0-19.6,0.6-23.2C459.5,294,459.3,284,455,280.4z
	 M173.2,181.8c-3.9-10.7-14.9-12.3-15.1-13.9c-0.2-1.5,8.3-10.5,8.3-10.5s4.5,5.6,6.8,11.7C175.5,175.3,173.2,181.8,173.2,181.8z"/>
</svg>
