<?xml version="1.0" encoding="utf-8"?>
<!-- Generator: Adobe Illustrator 26.3.1, SVG Export Plug-In . SVG Version: 6.00 Build 0)  -->
<svg version="1.1" id="Basketball" xmlns="http://www.w3.org/2000/svg" xmlns:xlink="http://www.w3.org/1999/xlink" x="0px" y="0px"
	 viewBox="0 0 500 500" style="enable-background:new 0 0 500 500;" xml:space="preserve">
<path id="Jumping_in_water_2" d="M90.8,121.2c0,0,2.2,3.6,1.7,8.9c-0.5,5.3-5.6,8.4-11.1,13.5c-5.6,5.1-10.6,8.4-8.9,20.5
	c1.7,12.1,11.3,49.2,9.9,53.8c-1.4,4.6-1.9,47.1-1.2,56c0.7,8.9-16.2,15.2-19.1,20.3c-2.9,5.1,0.2,1.2,7.5,0c7.2-1.2,20.7-5.3,23-13
	c0,0,0.6-5.6,0-7.5c-0.6-1.9,9.8-41.8,11.8-42.7c1.9-1,8.7-3.1,14,7.2c5.3,10.4,45.4,59.1,61.1,79.4s60.6,43.9,92,57
	c31.4,13,109.1,44.2,114.9,52.1s15.7,15.9,17.9,21c2.2,5.1,2.7,12.3,5.1,12.6c2.4,0.2,13.5-0.5,15.2-3.6s1.9-6.3,1.9-6.3
	s3.4,3.9,6.8,2.2s9.2-13.5,9.4-17.4c0.2-3.9-2.4-15.7-4.6-17.6c-2.2-1.9-37.2-25.8-44.2-37.7s-32.6-43.7-47.8-48.5
	s-22.2-4.6-24.4-6.3s-58.9-71.2-71.9-82.5s-60.8-42.2-64.2-48c-3.4-5.8-4.3-52.9-2.7-55.8c1.7-2.9,69-3.9,91.2-11.6
	c22.2-7.7,47.1-14.2,59.4-14c12.3,0.2,56.5-20.3,55.8-22.4c-0.7-2.2-5.8-3.4-23.2-2.9c-17.4,0.5-23.9-1.9-25.1,1.9
	c-1.2,3.9-23.2,9.4-23.2,9.4s-53.8-2.2-61.3-0.5c-7.5,1.7-16.9,6.3-22.7,6s-56.2,1.7-66.6-0.7c-10.4-2.4-19.8,1.2-23.9,4.6
	c-4.1,3.4-16.7,7.2-19.6,6.8c-2.9-0.5-8.7-7.2-8.9-10.6c-0.2-3.4,10.4-14.2,2.2-36.4S95.6,36.7,83.1,42.2s-28.2,12.3-20,41
	S87.7,114.2,90.8,121.2z"/>
</svg>
