<?xml version="1.0" encoding="utf-8"?>
<!-- Generator: Adobe Illustrator 26.3.1, SVG Export Plug-In . SVG Version: 6.00 Build 0)  -->
<svg version="1.1" id="Basketball" xmlns="http://www.w3.org/2000/svg" xmlns:xlink="http://www.w3.org/1999/xlink" x="0px" y="0px"
	 viewBox="0 0 500 500" style="enable-background:new 0 0 500 500;" xml:space="preserve">
<path id="Jumping_in_water_1" d="M178.2,170.3c0,0-54.9,6.4-78.8,47.8s-20.7,85.6-20,104.5s24.6,63.1,55.3,63.1s112.7-98,114.8-98.4
	c2.1-0.4,32.1-3.6,56.7-23.5c24.6-20,51.3-51,55.6-53.1c4.3-2.1,9.6,4.3,23.9-5.3s-1.4-19.3,31.4-38.9c0,0,6.8-2.1,4.6-6.1
	c-2.1-3.9-8.9-5-8.9-5s-3.9-7.1-16.8-1.8c-12.8,5.3-45.3,31.4-57.8,39.2c-12.5,7.8-81.6,46.7-104.1,56s-88.8,53.1-90.9,52.4
	c-2.1-0.7-6.4-14.3,2.5-22.5c8.9-8.2,29.9-15.3,37.1-30.7s9.6-33.5,16-38.5c6.4-5,9.3,3.2,16,3.2s24.6-18.2,24.6-18.2
	s28.2-3.2,42.4-11.8s68.5-47.4,73.1-49.2c4.6-1.8,5.7-4.6,19.3,0s26.4,7.1,27.5,4.6s-18.9-25-34.2-24.6
	c-15.3,0.4-24.6,3.2-31.7,10.3c-7.1,7.1-51.3,19.6-59.5,26.7c-8.2,7.1-15.3,12.8-21,15c-5.7,2.1-10.7-0.4-10.7-0.4s8.9-37.1-31-42.1
	C173.6,118.3,176.8,165.7,178.2,170.3z"/>
</svg>
