<?xml version="1.0" encoding="utf-8"?>
<!-- Generator: Adobe Illustrator 26.3.1, SVG Export Plug-In . SVG Version: 6.00 Build 0)  -->
<svg version="1.1" id="Basketball" xmlns="http://www.w3.org/2000/svg" xmlns:xlink="http://www.w3.org/1999/xlink" x="0px" y="0px"
	 viewBox="0 0 500 500" style="enable-background:new 0 0 500 500;" xml:space="preserve">
<path d="M343,323.2c-3.5,6.9-5.6,19.9-8.2,19.9c-2.6,0-3.5-22-9.5-30.2c-6-8.2-36.3-44-39.3-51.4c-3-7.3-11.7-49.2-11.7-49.2
	l48.3-48.3c0,0,23.3-12.1,31.1-20.7c7.8-8.6,34.5-48.3,31.9-53.5c-2.6-5.2-14.7,5.2-14.7,5.2s0-19.9-4.3-19.9
	c-4.3,0-7.8,22.4-16.4,28.5c-8.6,6-29.4,0-36.3,6c-6.9,6-1.7,17.3-6.9,26.8c-5.2,9.5-29.8,25.9-29.8,25.9l-25,18.1
	c0,0-6.5-6-13.4,2.2c-6.9,8.2-8.6,16.8-8.6,16.8s-45.8,45.8-63,57.4c-17.3,11.7-82.4,25.5-82.4,71.2c0,45.8,31.1,50.5,54,63.9
	c22.9,13.4,51.8,32.4,104.5,32.4c52.7,0,92.8-34.1,96.3-32.8c3.5,1.3,16,18.1,27.6,19.9c11.7,1.7,43.2,3.9,46.6-36.7
	S346.5,316.2,343,323.2z M235.5,340c-12.9,0-47.9-11.2-47.9-11.2c26.5-27.2,47.9-54.6,61.8-82.4l15,25.9c0,0,15.5,46.2,18.6,51.4
	C286,328.8,248.5,340,235.5,340z"/>
</svg>
