<?xml version="1.0" encoding="utf-8"?>
<!-- Generator: Adobe Illustrator 26.3.1, SVG Export Plug-In . SVG Version: 6.00 Build 0)  -->
<svg version="1.1" id="Kayaking" xmlns="http://www.w3.org/2000/svg" xmlns:xlink="http://www.w3.org/1999/xlink" x="0px" y="0px"
	 viewBox="0 0 500 500" style="enable-background:new 0 0 500 500;" xml:space="preserve">
<path id="Kayaking_00000178883420771205891800000014034276745078595482_" d="M459.9,279c1.4-1.6,2.9-3.8,3.9-6.3
	c2.4-6.3-8.9-13.4-27.2-19.5c-18.3-6.1-42.8,2.9-42.8,2.9l-25.6-5.6c0,0,0,0.9-8.2-5.8c-8.2-6.7-34.4-15.8-34.4-15.8
	s-22.5-14.3-33.6-14.3c-11.1,0-7.8-2-9-4.1c-1.2-2.1,0.8-2.9,0-9.6c-0.8-6.7-0.5-16.1-12.5-18.9c-12-2.7-18.4,3.6-15.8,17.6
	c2.6,14,8.5,14.9,8.5,14.9l-12.5,6.9l-23.9-4.1c-34.1-24.7-74.2-33.1-74.2-23.1c0,18.2,72.5,27.4,72.5,27.4l18.8,3.9
	c0,0-12.6,9.7-7.3,14.6c5.3,4.9,16.2,3.2,16.2,3.2s1.6,8.1,6.5,13.4c4.9,5.3,4.1,12.2,4.1,12.2c-14.6-0.4-19.5-6.5-31.6-6.5
	c-12.2,0-17,19.5-22.7,20.3c-5.7,0.8-4.9-2.8-13.8-3.2c-8.9-0.4-12.2,4.1-12.2,4.1S8.4,300.3,16.5,306.4c8.1,6.1,65.7,13,255.5,4.1
	c189.8-8.9,221-31.4,221-31.4H459.9z M310.7,241.5c4,2.7,21.7,3,21.7,3s14.9,9.6,23.3,9.4c4.2-0.1,6.9,0.7,9-0.2l28.6,6.4l23.5,14.2
	l21.3,4.7H311.3C312,276.9,310.7,241.5,310.7,241.5z"/>
</svg>
