<?xml version="1.0" encoding="utf-8"?>
<!-- Generator: Adobe Illustrator 26.3.1, SVG Export Plug-In . SVG Version: 6.00 Build 0)  -->
<svg version="1.1" id="Rowing" xmlns="http://www.w3.org/2000/svg" xmlns:xlink="http://www.w3.org/1999/xlink" x="0px" y="0px"
	 viewBox="0 0 500 500" style="enable-background:new 0 0 500 500;" xml:space="preserve">
<path d="M330.3,263.1c0,0,3.3-34.2-26.8-49.2c0,0-0.8-0.7,0.2-1.4c1-0.7,2.3-4,2.3-9.1c0-5.1-2.9-10.5-9.3-10.5
	c-6.4,0-12,2-13.1,12.5c0,0-0.5,4.2-1.2,5.7c-0.7,1.5,1.4,1,1.6,1.4s-0.2,4.8,1.6,5.8c1.8,1,1.2,1.9-0.1,2.1
	c-1.3,0.2-6.5,0.3-15.2,7c0,0-18.7-0.6-23.2-1.4s-14.4-3.2-18.2-3c-3.8,0.2-6.2,2.8-6.1,5.4c0.1,2.5,3.3,3.6,4.4,3.7
	c1.1,0.1,2.2,0.1,3.2-1.3c1-1.4,2.3,0.6,2.3,0.6l18.3,9.1c0,0,1.1,1.6-1.2,2c-2.2,0.4-19.9,1.4-23.1,2.3c-3.1,1-3.8,3.2-3.5,4.1
	c0.3,0.9,2,3.1,7.2,2.9c5.3-0.2,5,0.3,5.4,1.1c0.4,0.8,13.3,3.7,13.3,3.7s0.8,0.6-1,0.9c-1.8,0.2-20.3,0.3-39.4,12.3h-9.4
	c0,0-0.9-2.2-4.4-3.5c0,0,3.4-40.4-27.2-54.3c0,0,3.5-5.3,3.5-11.7c0-6.4-5.4-10.3-9.8-10.3c-4.4,0-13.6,5.3-13.3,11
	c0.3,5.7-1.8,7-1.8,7s-0.3,0.9,1.6,1c0,0,0.1,4.7,3.1,7s-1.4,3.3-2.1,3.4c-0.7,0.1-4-0.6-7.6,1.3c-3.7,1.9-6.2,4-7.1,4
	c-0.9,0-19.6-1.3-21.8-1.3c-2.3,0-14-1.8-18.5-1.8s-7,2.4-6.8,4.4c0.2,2,4.5,4.9,5.3,4.3s1.5-2.2,2.4-1.8c0.9,0.4,0.9,0.4,0.9,0.4
	l0.8,0.1l19.1,10c0,0-10,0.5-13.6,1.7c-3.6,1.2-8.3,1.3-10.2,1.7c-1.9,0.4-4.3,2.2-3.7,3.8c0.5,1.6,6.9,4.2,10.8,4.2
	c3.9,0,4.3-0.6,4.3-0.6l17.1,7l-6.4,18L11,277.9c0,0,8.8,20.5,38.1,21.5c29.3,1,186.6-3.5,186.6-3.5s-1.6,9.8,0,10.9
	c1.6,1.2,25,15.4,26.4,15.4c1.4,0,21.3-10.2,21.1-11.5c-0.2-1.4-31.1-16-31.1-16l111.4-4.3l8.4,4.9c0,0-3.1,9.4,0,13.7
	c3.1,4.3,26.2,15.8,26.2,15.8s20.5-11.3,20.5-11.9c0-0.6-41.4-19.3-46.3-23.8c0,0,80.7-3.3,91.8-6.3c11.1-2.9,21.3-8.8,27.2-28.3
	L330.3,263.1z M120,251.4l-13.9-4.5h15.2L120,251.4z M123.4,236.9l-13.5-6.4l13.5,4.7V236.9z M134.1,273.8l3.7-10.3l7,9.2
	L134.1,273.8z M160.6,250c0,0-7.5-6.6-14.2-7.5c0,0,8.5-1.6,9.2-2.2C156.4,239.8,160.9,246.8,160.6,250z M239.6,230.2l0.5-0.5
	l13.7,6.3l-2.1,0.9L239.6,230.2z M252.2,267.7l-31.8,2c3.8-3.2,33.2-9.6,34.6-9.2C256.4,260.9,252.2,267.7,252.2,267.7z
	 M256.3,254.3c-0.9,0.7-15.2-4.1-15.2-4.1l15.2-1.7C256.3,248.5,257.2,253.6,256.3,254.3z M296.9,252.6c-1.5,1.7-3-7.1-13.4-6.7
	c0,0,2.9-0.1,8-3.2C291.5,242.6,298.3,250.9,296.9,252.6z"/>
</svg>
