<?xml version="1.0" encoding="utf-8"?>
<!-- Generator: Adobe Illustrator 26.3.1, SVG Export Plug-In . SVG Version: 6.00 Build 0)  -->
<svg version="1.1" id="Table_tennis" xmlns="http://www.w3.org/2000/svg" xmlns:xlink="http://www.w3.org/1999/xlink" x="0px"
	 y="0px" viewBox="0 0 500 500" style="enable-background:new 0 0 500 500;" xml:space="preserve">
<path id="Rugby_1" d="M439.1,100.3c-0.8-1.1-1.5-0.8-2.1,0c-0.5,0.8-4.4,9.9-4.4,9.9s2.4-14.6,1.9-15.8c-0.5-1.2-1.8-3.1-3.3-2.1
	c-1.5,1-1.6,2.2-1.6,2.2s0.1-5-1.3-5c-1.4,0-3.3,0.7-3.3,3.2c0,0-2.2-1.3-4.2,0c-2,1.3-2,6.1-2.1,7.9s-0.8,6.1-0.8,6.5
	s-1.9-6.4-2.5-6.5c-0.7-0.1-2.2-0.2-2.3,1.8s0.8,9.6,1.5,14.2c0.8,4.6,3.3,8.9,2.6,11.5c-0.7,2.6-10.3,21.2-21.2,32
	c-11,10.7-11.1,11.8-11.1,11.8s-11.3-12-14.6-14.8s-17.1-18.4-17-20.9s2.2-10.6,0.9-12.2c-1.3-1.5,3.9-5.1,6.4-5.1
	c2.4,0,5.3-0.5,10,1.2c4.7,1.8,9.1,1,9.7-2.2c0.7-3.2,0.7-11.4,1.3-12.2c0.7-0.8,5.5-1.6,5.6-3.4c0.1-1.8-2.1-8.3-2-12.8
	c0.1-4.5,2.6-14.2,2.3-17.1c-0.3-2.8,3.1-4.5,2-8.2c-1.1-3.7-10.1-14.5-31.2-14.5s-28.9,18.7-28.7,29c0.2,10.3,2.5,14.1,2.3,14.8
	c-0.2,0.7-1,1.1-2.7,0.3c-1.8-0.8-7-6.4-19.6-6.4S282.8,93,279.3,93c-3.5,0-22.6-1.6-27.1-0.3c-4.5,1.3-30.3,35.7-30.3,35.7
	s-26.6-2.6-30.2,7.2c-3.6,9.9,9.9,36.1,25.3,41.7c15.4,5.6,26.3,4.6,26.3,4.6s-28.9,36.1-31.9,53.9c-3,17.7,1.3,35.8-2.3,46.7
	c-3.6,10.8-7.6,13.8-10.8,34.5c-3.3,20.7-16.1,15.8-25,16.4c-8.9,0.7-23,4.6-36.8,19.7c-13.8,15.1-36.8,23.7-39.1,23
	c-2.3-0.7-8.9-4.3-13.8-4.3c-4.9,0-10.5,6.6-11.8,13.1c-1.3,6.6-0.7,7.6-2,12.8c-1.3,5.3-7.9,14.1-8.5,25.6c-0.7,11.5,3.9,26,9.2,26
	c5.3,0,3-4.3,11.2-19.4s24.3-28.6,33.2-36.5c8.9-7.9,36.1-16.4,49.3-19.7c13.1-3.3,41.4-3.9,48-10.5c6.6-6.6,52.2-75.2,58.8-79.5
	c6.6-4.3,72.3-5.6,73.3-3.6c1,2-4.6,18.1-3.9,26.9c0.7,8.9,9.9,41.1,9.9,53.2c0,12.2-1.6,16.1-2.6,20.4c-1,4.3-3.9,13.8,0.3,17.1
	c4.3,3.3,7.2,5.6,16.4,5.6c9.2,0,11.2-2.3,20.4-0.7c9.2,1.6,27.3,1.3,34.5,0c7.2-1.3,6.2-4.6,4.9-5.6c-1.3-1-12.2-3-16.8-5.3
	s-25.3-19.7-27.3-20.7c-2-1-5.3-3.9-5.3-3.9s-3.6-18.1-1-40.1c2.6-22,5.9-54.9,5.9-61.8c0-6.9-5.9-13.5-12.8-17.4
	c-6.9-3.9-61.8-18.7-68.7-18.7c0,0-0.3-4.6,6.2-15.4c6.6-10.8,12.8-26.6,22-31.2c9.2-4.6,16.1-8.9,16.1-8.9S376,202,392.1,200
	c16.1-2,38.4-65.4,38.4-65.4s5.7-7,5.4-11.8c-0.3-4.8-0.7-9.9,0-11.6C436.7,109.4,439.8,101.4,439.1,100.3z M258.4,145.9l-15.4-13.7
	l17.9-14.2l13,2L258.4,145.9z"/>
</svg>
