<?xml version="1.0" encoding="utf-8"?>
<!-- Generator: Adobe Illustrator 26.3.1, SVG Export Plug-In . SVG Version: 6.00 Build 0)  -->
<svg version="1.1" id="Table_tennis" xmlns="http://www.w3.org/2000/svg" xmlns:xlink="http://www.w3.org/1999/xlink" x="0px"
	 y="0px" viewBox="0 0 500 500" style="enable-background:new 0 0 500 500;" xml:space="preserve">
<path id="Rugby_2" d="M219.2,93.6c0,0,1.5,3.4-1.7,6.3c-3.2,2.8-8.5,5.7-13.7,7.2c-5.1,1.5-12.1-2.1-23.9,6.8s-37.6,29.2-47.8,48.2
	c0,0-15.7,25.8-20.5,28.8c-4.7,3-6.1,12.1-6.1,12.1s-12.1,7.8-12.1,16.9s14.6,27.5,32.1,27.3c17.4-0.2,33.6-11.9,33.8-25.6
	c0.2-13.7-21.2-23.1-21.2-23.1s4.6-9.5,12.3-15.4c7.8-5.9,30-27.7,30-27.7s9.1,22.9,14,30s6.6,6.8,6.6,11.9c0,5.1,3.2,19.3,2.1,28.6
	c-1.1,9.3-1.5,12.9-8.3,23.1c-6.8,10.2-27.5,43.4-33.8,57.7s-3.8,22.6-1.7,26.2s3.2,8.5,3,16.3c-0.2,7.8-0.6,19.3,3.6,36
	s11.4,39.1,11.2,42.3c-0.2,3.2-1.3,1.7-2.1,4.9c-0.8,3.2-0.6,3.6-3,5.9c-2.5,2.3-12.9,8.7-16.3,9.3c-3.4,0.6-11.8,0-14.2,4.2
	s1.5,6.3,1.5,6.3s30.3,2.1,35.7,0c5.3-2.1,9.3-0.4,14.4,0c5.1,0.4,9.7,0.6,9.9-7c0.2-7.6-5.3-15-5.1-19.5c0.2-4.6,3.6-35.8,1.3-55.4
	c0,0-3.2-17.8-6.4-28.4c0,0-1.7-1.9,2.8-6.4c4.6-4.6,50.6-51,50.6-51s24.8,33.2,29.6,44.8c4.7,11.6,13.7,26.2,23.5,31.9
	s23.7,14.2,27.7,21.8c4,7.6,6.4,13.7,7.6,21.6c1.1,8,0.9,19.9,1.7,23.9c0.8,4-0.6,10.6,10.6,10.6c11.2,0,12.7-14.4,13.5-19.7
	c0.8-5.3-1.9-26.6-5.1-32.1c-3.2-5.5-12.7-17.8-13.8-21.1c-1.1-3.2-2.1-16.3-7.6-22.8c-5.5-6.4-15.6-8.9-16.9-15
	c-1.3-6.1-1.5-38.3-6.4-53.1s-15.9-28.4-15.7-35.1s-0.2-9.7-3-17.1c-2.8-7.4-10.4-41.9-2.5-56.1c0,0,0.6-1.3,5.3,2.3
	c4.7,3.6,26,21.1,34.9,28.8c8.9,7.8,35.7,33.2,34.9,34.5c-0.8,1.3-1.3,6.8-1.3,9.1c0,2.3,0.2,4,2.5,2.7c2.3-1.3,10.1-4.2,16.5-3.6
	c6.4,0.6,16.9,3,21.2,0.4s3.6-4.2,0.9-4.4c-2.7-0.2-14.6-0.8-18.2-4s-11.2-7.6-14.6-14.2s-15.6-26.7-26.9-40.8
	c-11.4-14-22.6-25-25.4-30c-2.8-4.9-22.8-24.8-30.9-28.4s-14-7.8-19.9-15.2s-9.9-7.2-10.4-10.1c-0.6-2.8-1.3-7,0-7.4
	c1.3-0.4,3.4-4.2,3.8-7.6c0.4-3.4-0.6-10.8-0.6-12.7s0.8-15.6-3.6-21.8c-4.4-6.3-15.9-11.2-24.3-11.2s-21.1,7.6-20.3,26.4
	c0,0,0.2,4.7-1.3,6.8c-1.5,2.1-2.3,11,0.6,13.1s3.8,4.4,5.3,5.1C218.8,91.5,219.2,93.6,219.2,93.6z"/>
</svg>
