<?xml version="1.0" encoding="utf-8"?>
<!-- Generator: Adobe Illustrator 26.3.1, SVG Export Plug-In . SVG Version: 6.00 Build 0)  -->
<svg version="1.1" id="Rowing" xmlns="http://www.w3.org/2000/svg" xmlns:xlink="http://www.w3.org/1999/xlink" x="0px" y="0px"
	 viewBox="0 0 500 500" style="enable-background:new 0 0 500 500;" xml:space="preserve">
<path d="M497.7,247.6l-185,6.4c0.4-11.5-5.1-21.4-11.1-28.8l125.6-31.5c0,0,7.4,8.9,8.9,9.6c1.4,0.7,31.2-10.6,31.2-10.6l-6-18.1
	l-34.8,17L300,223.3l0,0c-5-5.6-10-9.3-12.3-10.6c-5.3-2.9-8.5,1.6-8.5-5.9s-2.1-16.5-10.4-17.6c-8.2-1.1-11.4,9-10.1,16.2
	c1.3,7.2,6.1,8,6.1,9.8c0,1.9-1.9,2.4-1.9,2.4l-32.7,17.3c0,0-4.5,1.1-8.8,0.8c-4.3-0.3-5.3,2.7-7.7,4.5c-2.4,1.9-2.4,5.3,2.1,5.7
	s10.6-3.8,10.6-3.8l20.2-3.7l-28.5,16.5c0,0-4.8-2.1-10.4,1.1c-5.6,3.2-4.5,8.5-4.5,8.5l-13.3,4.4c-12,3.9-24.4,6.6-37,7.9
	L2.7,292.4l47,9.2c4.6,0.9,9.3,1.2,14,0.8l242.6-19.2l111.4,24.7l11,16.7h31.2c0,0-2.1-19.9-5.3-21.6c-3.2-1.8-37.2,0-37.2,0
	l-98.9-20.7L460.8,271L497.7,247.6z M268.1,255.9c-3-1.2-0.4-9.8,1.1-9.8s7.1,9.8,7.1,9.8S271.1,257.2,268.1,255.9z"/>
</svg>
