<?xml version="1.0" encoding="utf-8"?>
<!-- Generator: Adobe Illustrator 26.3.1, SVG Export Plug-In . SVG Version: 6.00 Build 0)  -->
<svg version="1.1" id="Sports_archery_00000088817082515109167320000010764574736585363637_"
	 xmlns="http://www.w3.org/2000/svg" xmlns:xlink="http://www.w3.org/1999/xlink" x="0px" y="0px" viewBox="0 0 500 500"
	 style="enable-background:new 0 0 500 500;" xml:space="preserve">
<path id="Sports_archery" d="M405.9,130.8H403l-0.8,7.4h-26.3l-2.8-13.4h5.3v-5.9h-3v1.8h-3.4c0,0-7.1-34.7-26.8-52.5
	c-19.7-17.8-31.4-21.4-41.3-25.4c-9.9-4-11.6-9.3-12.6-12.9c-1.1-3.6-1.3-8.5-2.4-8.5c-1.1,0-1.3-0.1-1.3,1.5c0,0.2,0.1,0.8,0.2,1.4
	l-52.3,109.5c-0.1-1.9-0.1-4.5,0.4-6.2c0.9-3.2-1.2-19.9-16.3-19.9c-15.1,0-22.4,9.6-22.5,20.6c-0.2,11,4.3,17.4,4.3,17.4
	s2.9,3.3,2.4,7.3c0,0-6.4,0.7-9.2,0c-2.8-0.7-18.4-1.1-21.4-1.9c-3.1-0.8-21.4-6.9-32.7-6.9c-11.3,0-13.4,2.8-18.1,4.5
	c-4.7,1.7-6,4.8-6,8.2s7.2,9.3,12,12.5c4.8,3.2,14.4,6.7,17.8,7.1c3.5,0.4,19.7,6,21,8.1c1.3,2.1,14.8,24.8,14.8,24.8
	s-1.2-0.1-0.3,2.9c0.9,2.9,1.2,7.3,1.4,7.5c0.2,0.3,0.9,0.5,0.9,0.5s-0.4,35.5-1.5,40.1c-1.1,4.6,0.9,11.4-0.5,22.7
	c-1.4,11.4-7.6,43.1-7.6,43.1s-5.7,59.1-5.3,68.3c0.4,9.2,2,40.6,1.4,44c-0.5,3.4-2.1,7.3-5.5,10.6c-3.4,3.4-5.5,3-6.2,6.7
	c-0.7,3.7,0,4.1,4.3,4.1c4.3,0,15.8,0.5,17.4-2.1c1.6-2.7,3.4-7.8,6.4-10.6c3-2.8,6.2-4.8,6.2-7.1c0-2.3-4.6-5.7-4.6-8.9
	c0-3.2,4.3-42.8,2.1-58c0,0,6.2-9.1,9.6-20.9c3.4-11.9,12.8-40.6,13.7-40.8c0.9-0.2,9.4,47,11.9,54.7c2.5,7.6,2.3,8.5,2,15.8
	c-0.4,7.3,7.1,54.8,7.1,57.3s-2,5.1-1.2,8.9c0.7,3.7,0.9,2.7,4.3,5.7c3.4,3,6.7,6.1,13.8,6.3c7.1,0.1,14.2-1.3,12.8-5
	c-1.4-3.7-5.1-3.2-7.1-6.2c-2-3-5.5-11-5.5-11s-2.8-5-2.8-13.8s1.4-44,0.9-57.9c-0.5-13.8-2.8-56.3-5.5-72.2
	c-2.7-16-2.3-17.2-2.3-17.2l2-57.9c0,0,1.2,1.1,1.6-0.4c0.1-0.3,0.3-1.3,0.5-2.7l42,89.3c-0.1,3.3-0.4,5.9,0.8,5.7
	c1.3-0.3,0.5-0.9,0.6-3c0.1-2.1,0.7-8.8,3.5-11.8c2.8-3,2.4-3.9,10.8-7.4c8.4-3.5,27-10.3,40.3-24c13.3-13.7,30.1-40.9,31.9-73.1
	v-6.5h8.2v1.2h10.3v-4.8h-10.6v1.2h-6.4c0,0,1.5-1.6,2-4.3c0.4-2.8,0.3-5.4,0.6-6.7c0.4-1.3,1.3-7.6,0.4-8.3
	c-0.9-0.6-3.3-1.2-3.3-1.2v-1.7h6.3v-1.3h-6.3c0,0,1.3-8.3-0.9-17.6h25.9c0,0,2,13.8,3,15.3h1.4L405.9,130.8z M288.1,25.2
	c1,4.2,3.5,12,5.5,13.9c2.7,2.4,7.3,5.3,16.4,7.7c9.1,2.4,34.5,21.6,43.9,39c9.5,17.4,11,32.6,11,38.5s0,14.1,0,14.1h-1.9v2.8h2.3
	l-0.5,15.4l2.5,0.4l-0.2,1.8H243.2l-9.4-3.2c0,0,1.2-1.4,1.4-2.5c0.2-1.1-0.2-10.5-0.2-10.5s2.1,0.2,2.1-1.2c0-1.4-1.4-4.8-1.4-4.8
	s-0.1-0.6-0.1-1.5L288.1,25.2z M363.9,217.5c-1.7,7.9-1.7,10.4-1.7,10.4s-11.1,34.7-41.2,50.2c0,0-6.4,3.6-18.1,8.4
	c-11.2,4.6-14.6,13-14.9,17l-41.9-88.9c1.3-7.4,3.9-22.8,3.6-23.4c-0.4-0.7-1-1.2-0.4-1.6c0.5-0.4,7.5-3.5,13.6-2.8
	c6,0.7,18.7-2.7,22.8-3.5c4.1-0.8,18.5,1.7,18.5,1.7s-0.1,0.4,0.8,0.4s1.3,0.1,1.6-0.4c0.3-0.5,25.8-4.3,25.8-4.3s0.6,1.2,2.6-0.1
	c0,0,21.7-1.9,23.2-1.6c1.4,0.3,2.4,1.7,4.6,1.7v2.2h-18.5v2.2h18.5c0,0,1.9,3.9,4,6.2C366.9,191.2,365.6,209.6,363.9,217.5z"/>
</svg>
