<?xml version="1.0" encoding="utf-8"?>
<!-- Generator: Adobe Illustrator 26.3.1, SVG Export Plug-In . SVG Version: 6.00 Build 0)  -->
<svg version="1.1" id="Sport_climbing" xmlns="http://www.w3.org/2000/svg" xmlns:xlink="http://www.w3.org/1999/xlink" x="0px"
	 y="0px" viewBox="0 0 500 500" style="enable-background:new 0 0 500 500;" xml:space="preserve">
<path id="Sport_climbing_2" d="M429.1,291.4c-6.1,2.5-13.7,13.1-18.8,13.7c-5.1,0.6-15.6-8-19.4-15c-3.8-7-32.8-85.4-50.4-97.2
	c-17.5-11.8-31.9,5.7-41.8,14.7c-9.9,8.9-22.6,17.8-33.5,33.1c-10.8,15.3-25.2,33.5-25.2,33.5l-7.3,0.6c0,0,0.3-2.2-1.3-2.2
	c-1.6,0-13.7-4.8-16.3-4.1c-2.5,0.6-10.5-6.7-10.5-6.7s2.9,1.3,6.1-0.6c3.2-1.9,10.8-7.3,18.8-14.3c8-7,42.7-45.3,45.6-44.9
	c2.9,0.3,10.2-1.3,18.8-8s9.3-8.3,9.3-8.3s6.5-4.2,6.5-6c0-1.8-0.5-3.6-0.5-3.6s1.4-5.1,1-6.7c-0.5-1.6-1.9-3.3-1.9-3.3
	s1.6-3.7,0.4-4.5c-1.2-0.8-1.2-0.8-1.2-0.8s-1.2-1-4.7,1.8c-3.5,2.7-12.2,8-16,9.6s-9.3,6-9.3,6s-3.7-4.4-3.7-6.2
	c0-1.8,0.4-3.6-0.6-3.6c-1,0-4.4,2-5.3,6.2c-0.8,4.2-0.1,11.5-2.5,13.5c-2.4,2-3.2,4.4-8.1,7.9c-4.9,3.5-54.3,31.3-59.6,33.3
	c-5.4,2-13.3-7.4-21.2-8.1c-7.9-0.7-13.1,1.2-19-2.2s-15.3-10.4-23.3-11.7c0,0,3.2-5.5,3.5-8.4c0.2-2.9-0.4-4.3,0.5-4.7
	c0.8-0.4,2.6-2,2.6-3.6s-5.7-5.4-6-8.1c-0.2-2.7,0.2-8.5-1.1-11.1c-1.3-2.6-4.4-14.6-4.4-14.6s1.9-1.9,1.9-4.5
	c0-2.6-9.1-10.9-25.1-10.9c-4.3,0-8.3,0.5-11.9,1.1c0,0-2.2-17.3-10.1-44.3s-9.8-34.3-7.8-36.7c2-2.4,5.7-5.3,6.8-10.9
	c1.1-5.6,4.5-8.4,5.1-9.9s1-4.7-1.2-4.8c-2.2-0.1-8.5,7.5-10.3,9c-1.8,1.4-3,0-2.9-1.9c0.2-1.9,1.2-3.8-2.6-8.4
	C67.5,30,68.2,21.1,66,21.9c-2.2,0.7-9.6,8.4-7.2,19.8s3.8,16,3.8,23.2s0.2,66.9,1,77.2c0.7,10.3,6.5,19.6,6.5,19.6
	s-7.3,11.9,4.5,31.2c0,0,0.2,3.6-2.5,8c-2.7,4.5-6.4,8.9-6.3,22.7c0.1,13.8,6.7,28,9.7,33.2c3,5.2,11.4,16,31.8,32.9
	c20.4,16.9,26.1,11.8,28.7,15.9s5.7,7.6,10.2,8c4.5,0.3,7.6,0.3,9.2,2.9c1.6,2.5,31.6,13.1,31.6,13.1s4.8,1.3,4.1,3.5
	c-0.6,2.2,15,7.6,15,7.6l1.6,9.6c0,0-14-3.2-14.7,13.4c-0.6,16.6,7.6,33.8,12.7,38.5c5.1,4.8,13.1,4.8,13.7,0c0.6-4.8-1-34.1,0-36
	c1-1.9-1.6-6.7,1.6-8.3c3.2-1.6,4.1-8.3,4.1-8.3s9.2,9.6,21.4,14c12.1,4.4,20.4,8.9,30,4.4c9.6-4.5,17.2-8.9,27.1-7.3
	c9.9,1.6,14.7,6.7,40.5-3.5c0,0-16.3,19.8-40.2,84.8c0,0-1,3.8-1.9,3.8c-1,0-2.2-6.7-3.8-5.4c-1.6,1.3-4.5,3.2-2.9,8.6
	c1.6,5.4,0,5.4-1.6,9.2c-1.6,3.8-4.1,19.1,14,19.1s20.4-8.9,30.3-8.6c9.9,0.3,10.5,0,16.9-3.8c6.4-3.8,8.3-9.2,7.3-10.5
	c-1-1.3-9.6-4.5-16.9-3.2c-7.3,1.3-7.3,2.5-10.8,1c-3.5-1.6-5.1-4.5-5.1-5.4c0-1-1.9-5.4-1.9-5.4s34.1-49.7,44.3-59.9
	c10.2-10.2,17.2-21.7,23.9-40.5c0,0,6.1,3.8,9.6,3.8s13.1-9.2,13.7-13.7s-1.6-7,5.4-12.1c7-5.1,18.5-19.1,18.2-23.3
	C442.2,291.7,435.2,288.8,429.1,291.4z M333.8,305.1c-10.7-3.5-34.7-3.5-34.7-3.5s4.8-5.9,13.9-19.4c9.1-13.5,12.1-39.4,12.1-39.4
	c0.5,6.5,36.3,51.6,40.6,56.4c4.3,4.8,14.8,18.2,14.8,18.2S344.5,308.6,333.8,305.1z"/>
</svg>
