<?xml version="1.0" encoding="utf-8"?>
<!-- Generator: Adobe Illustrator 26.3.1, SVG Export Plug-In . SVG Version: 6.00 Build 0)  -->
<svg version="1.1" id="Sports_shooting_00000093138993826825143620000007613631272181105798_"
	 xmlns="http://www.w3.org/2000/svg" xmlns:xlink="http://www.w3.org/1999/xlink" x="0px" y="0px" viewBox="0 0 500 500"
	 style="enable-background:new 0 0 500 500;" xml:space="preserve">
<path id="Sports_shooting" d="M378.6,98v5.5h2.4v3.8H270.7l-1-1h-10.5v1.1H251v-1.2h-10.8l-1.1-1.1h-12.5l-2.1-2.1h-2.8v-4.7v-1.5
	h-2.5v-2.7h1.9V90h-2.8v3.7h-1.9v4.2h-1.5v-1.6h-4.9v10.4h5.6v-1.8h2.8l0.6,1.2l2.1,0.6l-1.6,1.4l-0.9,5.3c0,0-1.9-5-3.6-4.7
	c-1.7,0.2-0.9,1.8-2.5,3.4c-1.6,1.6-2.8,7.7-2.8,7.7h-11.1v-1.8h2.6l-0.1-3.8c0.8-2.2,4.6-1.3,5.2-2.8c0.4-0.8-1-5.3-1-8
	c0-2.7,3.3-6.2,3.8-7.7c0.6-1.5,3.7-2.9,3.8-5.3c0.1-2.4-0.9-5.5-1.6-6.3c-0.7-0.8-1.9-0.9-2.6-3.3c-0.7-2.4-2.9-4.7-2.9-4.7
	c-4.6-8.5-11.9-12-17.5-12.6c-5.6-0.7-13.1-1.7-21,4.4c-7.9,6.1-8.1,17.6-8.6,20.2c-0.5,2.6-0.3,3.3-0.3,5.1c0,1.8-0.8,3.6-0.1,4.6
	c0.7,1,0.9,4.3,0.9,6.5s2,1.8,2,1.8s-3.4,3.6-3.7,3.8c-0.3,0.2-1.4-0.5-1.4-0.5c-1.9-2.1-2.7-1.8-2.7-1.8l-12.5,12.3
	c-11.6-3.6-15.7,4-18.5,6.9c-2.8,2.9-1.9,7.6-1.6,16.6c0.3,9,5.6,31.8,11.3,42.4c5.6,10.6,12.4,27,14.1,36.6
	c1.7,9.6-2.3,31.4-3.6,46.3c-1.4,14.9-3.2,66.3-5.1,71.6c-1.9,5.3-13.4,16.6-17.2,29.2c-3.7,12.6-3.3,29-3.7,30.5
	c-0.5,1.5-3.5,12.3-3.8,14.6c-0.3,2.3-2,3.4-3.3,5.2c-1.2,1.8-1,8.4-0.6,12.1c0.5,3.7-3,14.9-2.3,19.3c0.8,4.4,7.6,8.5,10.7,8.5
	c3.2,0,9-1.9,14.3-2.4c2.3-0.2,3.8-0.2,4.9-0.2c1.3,0,2.5-1,2.6-2.3c0-0.4,0-0.9,0-1.4c-0.2-2.3-0.5-2.8-3-5.5
	c-2.6-2.7-2.8-8.5-3.5-12.1c-0.7-3.6,0.6-7.2,0.7-8.9c0.1-1.7,1.4-2.7,1.8-4.7c0.5-2-0.9-2.3-1.1-3.4c-0.2-1.1,1.9-3.5,2.4-6
	c0.5-2.5-0.6-4.1,0.2-5.3c0.8-1.2,9.9-21.9,11.7-28.3c1.8-6.4,1.7-11.2,2-13c0.3-1.8,2.8-4.3,3.3-5.9c0.5-1.6,1.9-1.2,2.3-3.8
	c0.3-2.6,1.5-4.2,2.3-4.7c0.8-0.6,1.6-2.7,2.1-5.2c0.6-2.5,4.7-7.9,8-15.7c3.3-7.8,18.7-47.8,19.5-48.1c0.8-0.3,3,5.1,6.3,20.3
	c3.3,15.2,8.2,38.9,9.3,42.2c1,3.3-0.5,11.3,0.5,27.7s3.5,19.4,4.3,22c0.8,2.6,2.1,3.3,1.9,5.9c-0.2,2.6,2,9.6,2.7,12.8
	c0.7,3.2-1.1,6.9-0.9,8.7c0.2,1.8-2,4.6-2,4.6s0,0-0.9,3.6c-0.9,3.6,8,11.1,10.5,11.1c2.5,0,11.1,8.6,13.7,11.1
	c2.6,2.5,7.6,3.2,9.1,3.3c1.6,0.1,15.5-2.9,18.9-3.8c3.4-0.9,1.2-2.4,0.5-4.9s-11.4-4.2-15.8-7.5c-4.4-3.3-9.5-12.5-9.8-13.1
	c-0.3-0.6-0.2-2.3,0.7-3.2c0.9-0.9,0.8-5.6,0.2-6.5c-0.6-0.9-1.8-1.6-2.4-2.3s-0.2-2.3,0-3.5c0.2-1.2-0.5-2.6-0.5-4
	c0-1.4,0.7-1.2,0.9-3.3c0.2-2-0.3-7-0.6-7.9l-0.6-0.5c0,0,0.3-11.1,0.2-18.9c-0.1-7.8-3.2-19.8-3.5-22.5c-0.3-2.7-0.8-6.3-0.5-8
	c0.3-1.7,0.6-1.9,0-3c-0.6-1.1,0.1-0.7,0.1-2.9s-0.5-2.8-0.8-4.7c-0.3-1.9,5.6-31.3,5-52.2c-0.7-20.9-8.7-42.8-12-50.5
	c-3.3-7.7-6.5-17.7-6.5-17.7s13.5-10.8,18.2-21.1c4.6-10.3,13.2-25.6,13.2-25.6l5.3-1.5c0,0,6-1.4,15-5.8c9-4.4,31.3-25.6,32.8-27.1
	c1.6-1.5,1.2-3.4,1.2-3.4v-8.9h9.5c0-2.4-1.6-9-1.6-9h71.6v1.7h12.4V98H378.6z M230.5,167.8c-2,5.6-12,15.5-12,15.5s-1.1-8.5-2-10.7
	c-0.7-1.8-1.7-8.2-1.9-12.4l16.9,5.6C231.2,166.2,230.7,167.2,230.5,167.8z M236,158c-0.9,0.7-2.4,2.6-3.9,5.8l-17.6-6.1
	c0.2-3.6-2.5-10.1-2.5-10.1s1.7-1.8,2.6-1.9c0.9-0.1,8.4-0.8,11.2-2.8c2.8-2,1.7-4.1,2-4.6c0.3-0.6,1.1-2.7,1.1-3.5
	c0-0.8,2.5-2.6,2.5-2.6l0.6,0.7c0,0-0.7,1.9,1,3.8c1.7,1.9,3.5,5,3.3,7.2c-0.2,2.3,0.5,4.1,0.6,4.7c0.1,0.6-0.5,5.4,0,6.2
	C237.4,155.5,237.2,157,236,158z M236.5,131c-2.8-0.2-5.5-0.7-5.5-2.1c0-1.5,0.8-2.5,3.7-2.7c0,0,0.3,2.4,1.2,2.9s1.4,0.7,1.3,0
	c-0.1-0.7-0.2-3.3-0.2-3.3s4.2-0.4,5-2.6c0,0,1.9,1.2,1.9,3.4S239.3,131.1,236.5,131z M264,152.4c-8.7,6-10.3,7-11.1,9.6
	c-0.8,2.6-1.4,3.6-1.4,3.6l-2.8,0.5c0,0,1.1-5,2.6-7.5c1.5-2.5,7.3-8.4,7.9-11.5c0.6-3.2,0.7-7,1.1-7.2c0.5-0.2,8.4,0.1,9.7-0.7
	c1.4-0.8,7.6-5.6,19.5-8.2C289.6,131,272.7,146.5,264,152.4z M291.9,125.5c0,0-10,2-15.8,3c-5.8,1-15.6,3.2-15.6,3.2l-2-1.6
	l-3.3-0.8c0,0-0.2-4.2,0-5.1c0.2-0.9,1.8-0.2,1.8-0.2l2.8,6.1l8.2-2.3l-2.1-4h3.6l1.4-1.6h21V125.5z"/>
</svg>
