<?xml version="1.0" encoding="utf-8"?>
<!-- Generator: Adobe Illustrator 26.3.1, SVG Export Plug-In . SVG Version: 6.00 Build 0)  -->
<svg version="1.1" id="Sport_climbing" xmlns="http://www.w3.org/2000/svg" xmlns:xlink="http://www.w3.org/1999/xlink" x="0px"
	 y="0px" viewBox="0 0 500 500" style="enable-background:new 0 0 500 500;" xml:space="preserve">
<path id="Sport_climbing_1" d="M400,443.4c-0.4-7.1-3.4-13.8-5.9-20.2c-3.8-9.3-7-18.7-8.9-28.5c-2.2-10.9-3.1-22.2-2.9-33.3
	c0.3-8.8,0.3-17.8-0.6-26.6c-2.7-30.4-12.9-59.6-27.1-86.4c-14.4-26.4-28.2-53.6-34.7-83.1c-4.9-26.5-8.5-53.1-11.8-79.8
	c0.4-6.3,0.8-15.1-0.5-19l-2.2-3.4c-1.9-15.7-3.8-31.4-5.9-47c0-0.1-0.1-0.2-0.2-0.2c-0.1,0-0.2,0.1-0.2,0.2
	c0.9,14.7,2,29.3,3.4,43.9c-1.3,1-4.5,3.5-4.7,5.8c0,0-19.2,15.7-20.6,18c-1.4,2.4-1.9,6.4-6.4,10c-4.5,3.6-22.8,14-32.3,32
	c0,0-5.5,7.6-10,10.9c-1.8,1.3-5.3,3.5-8.8,5.7c-7.5,4.5-14.1,10.3-19.5,17.2c-1.4,1.8-2.7,3.4-3.6,4.7
	c-3.3,4.7-15.7,14.9-16.7,15.1c-1.1,0.2-2.8-1.7-0.8-4.4c2-2.7,6.1-4.9,6.4-10c0.3-5.1-11.5-8.5-11.9-10.2c-0.4-1.8,1.1-3.6-1.9-4
	c-2.9-0.4-8.2,0.7-10.9-0.9c-2.7-1.6-5.2-7.3-15.7-6.6c0,0-5.1-0.8-9.3,0.7c-4.2,1.5-19.7,6.1-20.3,24.9c-0.2,4.6,0.9,8.8,2.7,12.5
	l-1.9,2.4c0,0-8.7,6.3-13,15.7c-4.4,9.4-2.5,17.2-2.5,17.2c0.4-2,3-1.5,3-1.5c-1.9,5.8,1.2,15.3,1.2,15.3c0-2.4,4.2-4.5,4.2-4.5
	s-1.2,4.7-0.6,9.1c0.6,4.4,5.6,13.2,5.6,13.2s2.3-6.1,5.1-8.2c2.8-2.1,6.2-10.7,3.7-16.8c-2.5-6.2-2-10-2-10c2.1,4.5,4,3.2,4,3.2
	c-1.9-2.6-1.9-8.5-2.1-14.2c-0.2-5.7-3.6-14.9-3.6-14.9l1.3-2.1c6.3,8.8,17.2,13.5,24.3,12.7c10.7-1.2,13.8-6.4,15.7-5.2
	c1.9,1.2,1.7,3.3,0.2,5.3c-1.4,2.1-13,16.8-14.2,26.7c-1.2,10,1.9,33.7,3.6,43.2c1.7,9.5,3.1,38.2,5,40.1
	c1.9,1.9,28.5,9.3,51.2,11.4c22.8,2.1,37.7-7.6,37.7-7.6s3.1-3.3-1.2-4c-4.3-0.7-9.3,2.4-17.8,1.9c-8.5-0.5,4.3-3.1-14.7-2.6
	s-38.9-15.7-38.9-15.7l1.4-33.9c0,0,30.8,16.6,49.4,23.5c0,0,3.8,5.9,9.3,13.3c5.5,7.4,8.1,17.6,46.3,19.7c0,0,5.2-0.5,8.5,1.9
	c3.3,2.4,38.9,29.4,38.9,29.4l1.4,11.2c0,0-1.4,1.9-1.2,4.5c0.2,2.6,4,17.1,4,17.1s2.8,22.5,8.5,53.6c0,0,1.4,6.9,0,13.8
	c-1.4,6.9,0.7,11.4,5.2,15.7c4.5,4.3,3.1,6.2,8.3,5c5.2-1.2,10.2-9.3,12.3-9.7c2.1-0.5,20.9-8.1,23-17.3c2.1-9.3,4.5-15.7,1.2-16.1
	c-3.3-0.5-7.1,2.1-11.9,6.2c-4.7,4-16.6,8.8-18,4.3c-1.4-4.5-5.2-7.1-4.7-11.4c0.5-4.3,1.4-48.2,1.4-48.2s5.9-5.5,10.4-5.5
	c3.3,0,9.7-3.6,12.9-7.3c0,11.6,0.7,23.1,3.3,34.4c2.2,10,5.7,19.6,9.7,28.8c1.9,4.6,4,9.2,5.4,13.9c1.4,4.8,1.3,9.8,1.6,14.7
	c0.4,10,0.5,20.1,0.4,30.1c0,0.1,0.1,0.2,0.2,0.2c0.1,0,0.2-0.1,0.2-0.2C400,469.8,400.5,456.6,400,443.4z M324.9,301.2l-10.2-8.9
	l11.9-8.9C322.3,288.6,324.9,301.2,324.9,301.2z M337.2,245.6c-10.2,1.9-47.2,13-47.2,13s-15.9-9.5-34.4-15.4l-5.5-2.8
	c0,0-9.7-10-14.2-17.8c-4.5-7.8-12.3-21.4-18.5-25.4c0,0-1.4-18.3,1.9-24c3.3-5.7,9.3-11.4,9.3-11.4s19.5-19.9,23-25.6
	c3.6-5.7,26.3-19.2,36.1-43.2c0,0,6.6-8.1,9-8.8c2-0.6,5.7,3.7,9.1,6.8c0.6,5.1,1.2,10.1,1.8,15.2c2.8,21.2,6,42.5,11.4,63.2
	c8,27.6,20.6,53.5,33.5,79.1C349,245.2,345.4,244.1,337.2,245.6z M370.9,350c-5,3.1-21.8,3.1-23.5-0.2c-1.7-3.3,5.5-55.3,6.2-59.6
	c0.6-3.4,3.9-22,3.1-32.5c6.9,15.4,12.8,31.4,16.6,47.9c3,13,4.8,26.4,5.2,39.7C376.6,346.1,374.2,348,370.9,350z"/>
</svg>
