<?xml version="1.0" encoding="utf-8"?>
<!-- Generator: Adobe Illustrator 26.3.1, SVG Export Plug-In . SVG Version: 6.00 Build 0)  -->
<svg version="1.1" id="Basketball" xmlns="http://www.w3.org/2000/svg" xmlns:xlink="http://www.w3.org/1999/xlink" x="0px" y="0px"
	 viewBox="0 0 500 500" style="enable-background:new 0 0 500 500;" xml:space="preserve">
<path id="Struggle_2" d="M379.8,119.6c0,0-9.5-2.4-12.6-2.1c0,0-13.7-13.7-24.5-13.7s-13.8,8.6-13.8,8.6s-5.1-2.6-9.6-2.3
	c-4.5,0.3-9.5,4.5-10.1,4.2s-0.2-4.8-0.9-8.3s-14-37-14-40.4s-0.3-1.5,4.2-3s8.6-5.3,8.6-8.1s-3-3.3-3-3.3s-0.8-8-4.2-8.1
	c-3.5-0.2-4.1,1.2-5.6,0c-1.5-1.2-3.2,1.2-4.1,1.2c-0.9,0-3.3,0.9-3.9,2.3s-2.1,0-3,2.6c-0.9,2.6-3.8,7.4-3.8,10.5
	c0,3.2,3.2,16.2,4.1,29c0.9,12.8,2.4,27.2,4.7,34.3c2.3,7.1,4.5,10.4,8.7,11.3c4.2,0.9,5.6-0.3,8.6,2.3c3,2.6,6.2,5.7,13.8,6.2
	c0,0-1.4,11.1-2.4,12.5c-1.1,1.4-17.9,9-24.4,9.2c-6.5,0.2-12.6-0.5-18,3.9s-19.1,2.7-20.9,0c-1.8-2.7-11.7-9.9-22.3-13.8
	c-10.5-3.9-43.6-9.2-43.6-9.2s-2.6,1.8-4.5,1.5c-2-0.3-10.4-4.5-14.7-9.8c-4.4-5.3-6.2-7.1-19.7-9.5c-13.5-2.4-37.4-8.6-38.6-9.3
	s-3.3-3-5.9-4.4c-2.6-1.4-8.6-4.3-10.4-6.9s-3.3-14.1-8-12.2c-4.7,2-5.1,6.2-6.9,8.7s-8.9,7.1-6.8,10.7c2.1,3.6,3.8,4.7,5.6,4.4
	s14.1,9.6,18.6,11.9c4.5,2.3,6.9,1.2,12.5,2.6c5.6,1.4,19.2,12.2,24.5,17c5.3,4.8,14.6,11.6,24.4,14.1s14.4,10.2,14.4,10.2l-0.3,2
	c0,0,10.4,5.9,14.7,9.5c4.4,3.6,29.5,27.2,43.6,29.6c14.1,2.4,18,4.4,18,4.4s1.2,0.9,1.1,5.1c-0.2,4.2-0.8,43,5.1,56.4
	s9,23,8.7,23.9c-0.3,0.9,1.5,0,1.5,0s8.4,16.8,8.4,18.6s1.1,5.9-1.2,13.4c-2.3,7.5-17,20-16.5,41.3c0.5,21.4-3,38.6-4.4,47.5
	c-1.4,8.9-3.2,15.9-2.9,19.8c0.3,3.9,0.5,6.5,5.7,6.5s9.9-0.8,12.3,0c2.4,0.8,6.5,4.8,11.4,4.7s6.9-2.1,9.9-2.4
	c3-0.3,6.6-0.2,6.5-2.3c-0.2-2.1-2.7-3.6-5.3-3.6s-6.3-2.6-9.5-4.4c-3.2-1.8-13.8-10.7-14-13.4c-0.2-2.7,2.9-13.7,14.4-39.4
	c11.6-25.7,15.3-40,15.3-43.5s5.9-12.2,5.9-15.8s-3.3-27.4-3.3-27.4l1.5-0.3c0,0,2.4-60.1,7.5-64.5c5.1-4.4,20.1-12.3,20.9-14.1
	s7.4-2.6,14.3-5.3c6.9-2.7,31.4-8.9,37.9-12c6.5-3.2,12.6-13.8,13.4-13.5c0.8,0.3-1.4,10.8,1.7,16.4c3,5.6,0,6.5,2.4,13.8
	s2,5.7,1.5,13.8c-0.5,8.1,3.6,20.4,2.7,34.3c-0.9,13.8-1.7,19.1-3,20.4c-1.4,1.4-6,1.2-8.4,3.3c-2.4,2.1-11.3,9.9-10.7,12
	c0.6,2.1,1.7,2.1,3.3,1.4c1.7-0.8,4.7-4.7,5.3-3.6c0.6,1.1-2.7,4.7-2.7,6.8c0,2.1,1.4,3.5,2.9,3.5c1.5,0,2.4,2.4,3,2.4
	s0.6-1.8,1.8-0.2s2.3,1.2,4.2,0.8c2-0.5,4.8,1.2,6.6-0.6s4.2-5.1,9.3-30.1c5.1-25,8.3-27.8,7.8-40.7c-0.5-12.9-3.5-20.1-3.5-22.1
	c0-2,3.2-9,2.6-13.2s-3-8.6-2.1-11.7c0.9-3.2,5-7.4,4.4-16.2s-9.2-24.2-10.7-25.9c-1.5-1.7,0.9-11,0.2-15.2
	c-0.8-4.2-2.3-8.4-2.1-9.2c0.2-0.8,11.9-15.3,14-17.4c2.1-2.1,5.6-9.2,5.7-15.9c0.2-6.8-3.9-22.9-24.7-22.9S386,98.7,384,103
	C382.1,107.4,379.5,112.7,379.8,119.6z"/>
</svg>
