<?xml version="1.0" encoding="utf-8"?>
<!-- Generator: Adobe Illustrator 26.3.1, SVG Export Plug-In . SVG Version: 6.00 Build 0)  -->
<svg version="1.1" id="Basketball" xmlns="http://www.w3.org/2000/svg" xmlns:xlink="http://www.w3.org/1999/xlink" x="0px" y="0px"
	 viewBox="0 0 500 500" style="enable-background:new 0 0 500 500;" xml:space="preserve">
<path id="Struggle_1" d="M196,84.4c0,0-6.7-3.5-11.1-3.5s-23.2,14-23.2,35.5s3.5,15.5,4.4,30.5c1,14.9,11.4,33.6,12.7,44.1
	c1.3,10.5,1.6,30.1,1.6,34.9s-0.3,33.6-1.6,42.2c-1.3,8.6-9.8,20.9-10.2,63.1c0,0-14.9,10.2-13.3,24.7c1.6,14.6,2.9,38.4,2.5,42.2
	c-0.3,3.8-2.8,2.2-2.7,7s-7.5,30.1-6.9,34.6c0.6,4.4,7.3,25.4,20.3,23.8c0,0,5.4-0.6,5.7-7.9c0.3-7.3-3.8-40-2.2-43.5
	c1.6-3.5,2.9-5.9,1.7-9.6c-1.2-3.7,0.3-13.8,1.3-18.3s6.1-25.5,10.3-30.9s10.5-13.2,12.8-20.2c2.2-7,4.1-15.7,5-17.5
	c0.9-1.8,15.7-33.4,17.4-33.9s9.9-2.1,9.9-2.1l6.4-9l10.5,0.7c0,0,9.4-5.1,12.4-5.2c3-0.1,13.9,1,13.9,1s-19,10.8-22.3,14.8
	c0,0-1.3,0.6-3.8,0.2c-2.5-0.4-5.6-1.9-8.2-1.9s-9.3,0.1-11,8.8s-4.2,14.2-5.6,17.9c-1.4,3.7-1.4,8.2-1.7,9.9s-2,9.3-1.4,14.1
	c0.6,4.8,0.7,4.6,2.1,4.6c1.4,0,3.8-3.2,4.8-6.4s20.4-21.7,26.7-26c6.3-4.4,18.3-14.7,42.8-20.8c24.5-6.1,44.2-7.8,50-12.2
	c5.9-4.4,6.8-13.5,2.7-21.1c-4.1-7.6-29.7-22.5-59.8-28.9c0,0-1-1.6-2.5-1.9s-6.8,0.5-7.6,0c-0.8-0.5-2.2-2.1-4-2.2
	c-1.7-0.2-3.8,1.9-5.6,0.2c-1.7-1.7-12.4-12.1-14.8-13.2c-2.4-1.1-3-6.2-3-6.2s6.8-2.4,9.8-0.8c3,1.6,3.5-2.1,5.6,0.3
	s4.3,4.3,8.6,4.3c4.3,0,17.4-6.5,17.4-17.4s-10-16.8-19.2-16.8c-9.2,0-22.1,9.2-24,9.2s-6-0.3-6,1.6c0,1.9-0.5,4.1-1.6,4.1
	s-1.6-1.7-1.7-4.8c-0.2-3,3.5-27.8-0.6-37.1c0,0,14.3-0.5,24.9-9.7c0,0,1.7,0.8,3.5,0.2c1.7-0.6,8.4-5.7,11.9-6.8
	c3.5-1.1,4.4-1.6,5.9-1.4c1.4,0.2,5.6,1.4,8.2,1.3s17-4,17-16.5S294,87.1,287.1,87.1c-7,0-13.3,3.5-20.3,14.3
	c-7,10.8-11.6,7-12.4,10.6c-0.8,3.6-20.8,0.3-20.8,0.3s-12.1-7.1-11.9-8.1c0.2-1,3.3-3.3,4.1-3.5c0.8-0.2,6.3,7.5,10,7.1
	c3.6-0.3,10.6-13.8,12.4-13.6c1.7,0.2,4.4,0.8,4.4-1.1c0-1.9-0.2-10.3,0.6-12.2c0.8-1.9,4.6-4,4.4-6.7c-0.2-2.7,0.6-10.3,1.1-12.2
	c0.5-1.9,4.6-4.8,1.9-8.4C258,50,246.6,33.8,231.9,36c-14.8,2.2-20.8,9.5-20.9,12.2s-5.1,7.6-5.6,11.1s-1.9,8.7-2.5,10
	s-2.5,1.3-1.3,4.6c1.3,3.3,2.4,3.6,0.8,6C200.8,82.3,197.9,85.3,196,84.4z"/>
</svg>
