<?xml version="1.0" encoding="utf-8"?>
<!-- Generator: Adobe Illustrator 26.3.1, SVG Export Plug-In . SVG Version: 6.00 Build 0)  -->
<svg version="1.1" id="Surfing" xmlns="http://www.w3.org/2000/svg" xmlns:xlink="http://www.w3.org/1999/xlink" x="0px" y="0px"
	 viewBox="0 0 500 500" style="enable-background:new 0 0 500 500;" xml:space="preserve">
<path id="Surfing_2" d="M456.2,295.8c-19.5,0.2-62.8,10.6-77.8,16c-15.1,5.4-91.5,33.4-91.5,33.4s-1.4-4.9-0.9-11.5
	c0.5-6.6,3.3-52.2,4-60.2c0.7-8-1.2-24-1.4-28.7c-0.2-4.7-4.9-4.9-20.9-17.9c-16-12.9-29.4-18.6-37.6-20.5
	c-8.2-1.9-10.6-8.7-10.1-10.3c0.5-1.6,39.5-36.9,39.5-36.9s15.5,37.4,18.3,42.6c2.8,5.2,16.7,7.8,31,7.8s36.2-4,41.4-3.1
	c5.2,0.9,8.5-1.9,11.5,0.5c3.1,2.4,4.5,1.2,4.5,1.2s-0.7-3.1-4-4.2c-3.3-1.2-3.8-2.6-3.8-2.6s4.9-2.6,7.1-0.5
	c2.1,2.1,3.1,0.2,4.7,1.4c1.6,1.2,4,4.5,4.9,3.1c0.9-1.4,0.5-2.8,0-4.7c-0.5-1.9-3.8-6.8-6.1-8c-2.4-1.2-12.9-0.7-18.6,1.9
	c-5.6,2.6-10.3,3.1-13.4,3.1s-12-1.4-22.1-6.1c-10.1-4.7-23-4.9-23.3-6.6c-0.2-1.6-7.1-36-8.5-44.4c-1.4-8.5-14.6-18.6-15.1-21.4
	c-0.5-2.8,0.7-4.5,4.2-3.8c3.5,0.7,10.1,0.7,10.8-4.2c0.7-4.9,3.1-8.2,4-8.2s3.3-0.2,2.4-3.5c-0.9-3.3,0.2-7.8,0.5-11.3
	c0.2-3.5,5.2-5.2,5.9-8.5S290.7,58,275.1,58s-23.8,7.1-27.8,16.2c-4,9.2-1.6,26.6-1.6,26.6s0.7,2.1-10.3,1.9
	c-11.1-0.2-23.8-0.5-30.3,2.1c-6.6,2.6-28.2,20.2-30.3,23c-2.1,2.8-6.6,5.4-14.1,9.2c-7.5,3.8-31.7,28.5-33.9,31.5
	c-2.1,3.1-3.3,0.5-8.5,3.1c-5.2,2.6-11.8,7.8-11.8,7.8s-1.2-2.6-3.3,0c-2.1,2.6-4.7,6.3-3.3,6.8c1.4,0.5,8,8.9,12.2,7.8
	c4.2-1.2,15.8-11.8,17.9-15.1c2.1-3.3,5.6-4,19-12.5c13.4-8.5,17.4-13.9,17.4-13.9l17.6-4.9c-3.5,29.6-28.2,40.7-28.2,62.1
	s39.5,81.6,39.5,81.6s-16.2,12.2-24.5,25.4c-8.2,13.2-16.2,44.4-19,52.2c-2.8,7.8-18.8,20.5-19.5,23.3s1.6,9.2,1.6,9.2L18.1,441.1
	h22.3H154c60.7-0.7,199.2-41.9,235.9-56.2s90.3-63,91.5-73.6C482.6,300.7,475.7,295.5,456.2,295.8z M163,392.2c0,0-1.3-11,0-18.5
	c1.3-7.5,31.4-40.8,44.5-53.3c13.2-12.5,17.9-18.5,17.6-30.4c-0.3-11.9-12.9-43.6-12.9-43.6l54.6,17.6c0,0-6.3,28.2-2.5,44.2
	c3.8,16,3.8,43.9,3.8,43.9L163,392.2z"/>
</svg>
