<?xml version="1.0" encoding="utf-8"?>
<!-- Generator: Adobe Illustrator 26.3.1, SVG Export Plug-In . SVG Version: 6.00 Build 0)  -->
<svg version="1.1" id="Surfing" xmlns="http://www.w3.org/2000/svg" xmlns:xlink="http://www.w3.org/1999/xlink" x="0px" y="0px"
	 viewBox="0 0 500 500" style="enable-background:new 0 0 500 500;" xml:space="preserve">
<path id="Surfing_1" d="M446.5,378.9c-3.9,0.7-55.6,17.3-58.7,18c-3.2,0.7-5.7-1.1-12-1.8c-6.4-0.7-12.7-2.1-17.3-4.6
	c-4.6-2.5-22.3-29-29-37.9c-6.7-8.8-40.7-54.5-43.2-57.3s-9.9-6.7-12.7-7.1c-2.8-0.4-19.5-18.8-30.1-23.4
	c-10.6-4.6-28.7-19.1-33.3-23c-4.6-3.9-4.6,0.4-5-24.8c-0.4-25.1,3.9-38.9,3.9-46.4c0-7.4-4.6-16.6-7-18.8c-2.4-2.1-0.4-6.7,1.3-6
	c1.8,0.7,7.8-0.7,11,0c3.2,0.7,23-15.9,26.9-23c3.9-7.1,4.2-6.7,6.4-8c2.1-1.3,8.8-12.2,1.8-20.8c-7.1-8.6-18-15.8-24.8-16.9
	c-6.7-1.1-13.1,1.8-22.6,9.9c-9.6,8.1-8.8,14.5-10.6,22.3c-1.8,7.8-3.5,5-5.3,5c-1.8,0-5.7-7.4-14.2-11
	c-8.5-3.5-13.1-10.6-17.7-17.3c-4.6-6.7-0.9-16.1-0.1-19c0.8-2.9,3.7-3.2,5.8-4.1c2.1-0.9,3.3-2,3.3-2s0.1-1.3-1.7-1.2
	c-1.9,0.1-5.8,3.1-5.2,0.7c0.7-2.4,7.7-11,9.3-13c1.6-2,0-1.9-0.5-3.2c-0.5-1.3-1.7-1.1-2.5-1.7s-1.5-0.4-2-1.1
	c-0.5-0.7-2.1,0.4-2.3-0.3c-0.1-0.7-1.9-0.8-1.9-0.8c-4.2-0.4-15.4,13.7-15.4,16.9c0,3.2-2.8,11.5-2.8,11.5s-3.2,10.7-3.5,24.4
	c-0.3,13.7,10.5,29.3,12.1,32.6c1.6,3.3-3.7,9.4-7.8,18.7c-4.1,9.3-3.7,22.7-3.7,22.7c-4.9,7.4-20.2,9.4-30.1,12.9
	c-10,3.5-15,10.6-25.3,12.9c-10.4,2.3-10.9,0.5-14.3-1.2c-3.5-1.7-8-10.5-9.2-11.1c-1.2-0.7-1.9,2.4-2.8,2.1
	c-0.9-0.3-1.2,2.8-2.4,2.9c-1.2,0.1-1.3,5-1.3,5s-0.8,0-1.2,1.3c-0.4,1.3,1.1,5.2,2.4,8.2c1.3,3.1,11.1,7.3,11.8,8.8
	c0.7,1.5-6.5,4.5-7.4,5.6c-0.9,1.1,0,5.9,0.7,4.1c0.7-1.8,10.3-4.2,13.1-3.9c2.8,0.4,12.4-8.1,12.4-8.1s17.3-4.6,24.1-6
	c6.7-1.4,25.8-6,25.8-6s6.4,52,8.5,60.5c2.1,8.5,1.4,25.1,7.8,37.2c6.4,12,33.3,15.2,45.3,16.6c12,1.4,36.4,8.1,36.4,8.1
	c-11.7,17.3-8.8,67.6-6.7,78.2c2.1,10.6,1.4,39.3,1.4,39.3c-7.4,4.6-103.3,10.6-111.5,11.3c-8.1,0.7-4.2,2.8-4.2,2.8
	c1.8,8.8,107.2,10.6,176.2,0c69-10.6,160.7-63.3,164.2-66.9C452.5,378.6,450.3,378.2,446.5,378.9z M333.6,411.2
	c-4.1,1.6-65.3,15.4-65.3,15.4s-23-7.4-23.2-11.9c-0.2-4.4,0.4-28.5,2.5-35.6c2.1-7.1,11.3-56.4,11.3-56.4s1.2-1.1,3.2,0
	c1.9,1.1,32.7,37,47.6,49c14.9,12,25.1,22.8,27.8,30.8C340.1,410.4,337.6,409.6,333.6,411.2z"/>
</svg>
