<?xml version="1.0" encoding="utf-8"?>
<!-- Generator: Adobe Illustrator 26.3.1, SVG Export Plug-In . SVG Version: 6.00 Build 0)  -->
<svg version="1.1" id="Basketball" xmlns="http://www.w3.org/2000/svg" xmlns:xlink="http://www.w3.org/1999/xlink" x="0px" y="0px"
	 viewBox="0 0 500 500" style="enable-background:new 0 0 500 500;" xml:space="preserve">
<path d="M479.6,99.8c-0.7-1-1.7-3.5-2.1-3.8s-0.7-2.7-1.6-3.2c-0.8-0.6-2.1-1.7-2.4-2.4c-0.3-0.7-0.3-0.7-0.3-0.7s0.7-4-0.4-5.1
	c-1.1-1.1-5.4-1.6-6.6-1.6c-1.3,0,0.4-1.6-5.9,0c-6.4,1.6-18.2,7.8-23.9,9c-5.6,1.3-11.9-2.5-15.8,0.8c-4,3.4-8.3,11.2-11.9,13.1
	c-3.5,2-50.4,14.8-64.8,26.1c-14.4,11.3-25,22.9-30.1,26c-5.1,3.1-39.8,14.3-40.3,14.5c-0.4,0.3,3.4-5.9,4-7.8
	c0.6-1.8-0.8-2.4-2-1.4c-1.1,1-2.4,1.1-2.4,1.1v-0.8c0,0-0.3-2.7-1.4-1.7c-1.1,1-1.8,0.6-5.5,2.7c-3.7,2.1-12.3,7.9-16.8,12.1
	c-4.5,4.2-7.9,8.5-11.7,10.6c-3.8,2.1-34.5,15.7-43.1,23c-8.6,7.3-21.8,19.8-24.3,21.3c-2.5,1.6-33.2,23.6-37.6,32.5
	c-4.4,8.9-1,23.7-1,23.7s-8.2-0.8-13.6,1.4c-5.4,2.3-16.9,18.4-13.8,26c3.1,7.6,4,12.4,5.4,13.6c1.4,1.1,1.4-0.3,2.5,0
	c1.1,0.3,8.5,5.9,11,5.9s5.6-1.4,8.5-4.8c2.8-3.4,11-10.2,15.5-9.9c0,0,0.6,1.7-3.1,7.3c-3.7,5.6-15.5,27.4-28.5,40.7
	c0,0-9.3,2-20.3,6.2s-30.8,13-33.9,14.1c-3.1,1.1-7.6-0.3-10.2,0c-2.5,0.3-20.3,9.6-22.3,9.3c-2-0.3-0.3,2.5,2,2.5
	c0,0-1.1,1.7-5.4,4s-5.1,4.7-4.4,5.1c0.7,0.4,1.6,0,1.6,0s0.6,0.8-0.1,1.3c-0.7,0.4-2.6,2.1-1.6,2.8c0.9,0.7,4.2,0,4.2,0
	s0.7,2,1.8,2c1.1,0,3.5-0.4,3.7,0c0.1,0.4-0.7,1.8,2.3,1.3c3-0.6,13.3-4.2,19.8-7.1s8.8-6.2,13.7-7.9c4.9-1.7,16.7-4.9,35.4-9
	c18.8-4.1,24.9-6.1,27.4-8.6c2.5-2.5,38.1-41,48-46.7c9.9-5.8,11.3-4.9,16.8-8.2c5.5-3.2,16.2-11.6,26.3-20.1
	c10-8.5,30.6-28.5,33.8-29.8c3.1-1.3,12.6-6.5,16.5-10.5c4-4,10.7-9.5,19.8-15.3c9-5.8,15.3-9.2,31.6-23.9
	c16.4-14.7,31.2-33.6,33.6-35.7c2.4-2.1,6.9-4.1,10.5-8.9c3.5-4.8,6.9-6.2,9-7.8s11.3-6.1,17.8-12.3c6.5-6.2,47.9-45.8,47.9-45.8
	s2.8-2,6.2-3.4c3.4-1.4,18.6-9.3,23-10.5c4.4-1.1,8.1-0.7,8.8-1.6C479.5,103.2,480.3,100.8,479.6,99.8z M211.7,236.4
	c-3,6.1-14.4,10.2-22.2,13.3c-7.8,3.1-11.3,3.4-11.3,3.4s15.5-16,20.1-17.9c4.5-2,28.1-24.2,28.1-24.2S214.6,230.3,211.7,236.4z"/>
</svg>
