<?xml version="1.0" encoding="utf-8"?>
<!-- Generator: Adobe Illustrator 26.3.1, SVG Export Plug-In . SVG Version: 6.00 Build 0)  -->
<svg version="1.1" id="Basketball" xmlns="http://www.w3.org/2000/svg" xmlns:xlink="http://www.w3.org/1999/xlink" x="0px" y="0px"
	 viewBox="0 0 500 500" style="enable-background:new 0 0 500 500;" xml:space="preserve">
<path d="M65.7,257.4c0,0-3.5-1-6.8,2.1c-3.3,3.1-8.3,8.9-12.4,9.9s-15.3,4.3-19.6,8.9s-8.5,12.2-5.2,14s2.1-1,5.4-1.4
	c3.3-0.4,21.5-0.6,24.8-2.3s18.2-5.8,24.2-5.8s61.6,1.9,67.4,5.6s17.1,7.6,25.6,8.3s42.6,3.1,75.4-5.6c32.8-8.7,61.6-0.4,80.8-7.2
	c19.2-6.8,35.9-19.4,37.6-19.4s20.9,6.8,33.5,4.1c12.6-2.7,19.4,2.9,29.3,2.7c9.9-0.2,24-4.5,28.1-4.1c4.1,0.4,7.4,1.4,11.6,1.2
	c4.1-0.2,6.4-2.1,11.4-1.2c5,0.8,6.8,1.9,8.1,1c1.2-0.8-8.9-7.6-16.5-9.1c-7.6-1.4-13.6-0.4-16.5-0.4s-22.5-7.4-32.4-7.4
	s-12.2,1.7-22.1,0c-9.9-1.7-17.1-8.1-20.5-8.1l2.7-4.1c0,0,7-8.1,8.7-12.2c1.7-4.1,1.2-13.8-5-19.6c-6.2-5.8-16.3-6.4-22.5-4.3
	c-6.2,2.1-14.3,11.6-17.1,21.9c0,0-13-8.7-16.9-9.3c-3.9-0.6-5.2-5-9.1-6.2c-3.9-1.2-11.2-1.9-18.2-4.8c-7-2.9-21.3-9.5-35.5-9.7
	c-14.3-0.2-32,4.1-37.4,4.1s-15.9-0.2-20.9,2.1c-5,2.3-12.2,8.7-11.8,10.3c0.4,1.7,10.3,2.3,13.8,4.3c3.5,2.1,8.1,0.8,10.1-0.2
	c2.1-1,4.1-4.3,14.9-5.6c10.7-1.2,19,3.1,37.6,1.4c0,0,7.6,8.9,23.8,14c0,0-9.5,12.4-16.9,14.9c-7.4,2.5-18.4,4.8-25.8,3.5
	c-7.4-1.2-18.4-2.5-24.8-1s-20.7,11.2-26.9,12.4c-6.2,1.2-34.3,9.5-38.4,8.9c-4.1-0.6-24.4-5.2-34.1-5.2s-32.4,6.6-38.8,6.4
	c-6.4-0.2-12.6-2.5-14.7-4.1S65.7,257.4,65.7,257.4z"/>
</svg>
