<?xml version="1.0" encoding="utf-8"?>
<!-- Generator: Adobe Illustrator 26.3.1, SVG Export Plug-In . SVG Version: 6.00 Build 0)  -->
<svg version="1.1" id="Table_tennis" xmlns="http://www.w3.org/2000/svg" xmlns:xlink="http://www.w3.org/1999/xlink" x="0px"
	 y="0px" viewBox="0 0 500 500" style="enable-background:new 0 0 500 500;" xml:space="preserve">
<g id="Table_tennis_1">
	<path id="_x30_1" d="M207.7,142.1c0,0-21.1,17.2-24,24c-2.9,6.8-27,66.8-27,70s0.2,3.9-2.2,7.3c-2.4,3.4-13.4,12.6-18.5,27
		c-5.1,14.3-18.7,41.3-25.7,50s-12.1,10.2-12.1,10.2s-8.7-4.9-15.1-4.9s-33,1.7-33,29.9s21.4,30.6,32.1,30.6s25.7-14.1,25.7-22.6
		c0,0,2.7,0,4.6-2.2c1.9-2.2,3.2-7,4.4-7.5c1.2-0.5,8.3-4.9,9-7.3c0.7-2.4-1.5-7.5-1.5-7.5s1.2-12.9,3.2-14.1
		c1.9-1.2,37.9-38.9,44.2-50.8c6.3-11.9,4.9-12.9,7.8-17.2c2.9-4.4,23.8-43.2,23.8-43.2s2.7-1,8,1.7c5.3,2.7,22.8,18.2,26.2,18.7
		c3.4,0.5,9.7,2.7,9.5,5.3c-0.2,2.7-5.3,5.8-9,7c-3.6,1.2-42.3,20.9-45.9,27.4c-3.6,6.6-4.6,21.6-1.7,35.9s19.4,69.2,19.4,74.8
		s0,6.8-2.9,10c-2.9,3.2-33,25-34,27c-1,1.9-1.7,7,1.7,9.5c0,0,17.7,0.7,21.9-1.2s13.6-7,24.8-8c11.2-1,19.2-4.4,19.2-9.2
		c0-4.9-2.7-21.9-4.4-22.8c-1.7-1-3.2-1-3.2-2.7s-3.6-25.7-3.4-31.1c0.2-5.3,7-40.3-2.2-56.1c0,0,14.1-2.9,17.7-2.2
		s32.1,1.7,38.6-0.2c6.6-1.9,13.8-5.3,16.8-4.6c2.9,0.7,17.2,15.3,20.2,17.2s42.3,30.4,46.9,35.5s11.2,14.6,14.1,23.1
		c2.9,8.5,14.8,19.7,15.3,21.9c0.5,2.2-2.7,7.8,2.7,12.6c5.3,4.9,22.8,18,26,21.6c3.2,3.6,11.4,5.1,15.1,5.1c3.6,0,9.7-5.1,9.7-9.2
		s-1.7-11.9-4.6-14.3c-2.9-2.4-27.7-16.5-28.7-20.6c-1-4.1-0.5-22.6-3.6-27.7s-7.8-11.9-8.5-17.5c-0.7-5.6-14.3-37.6-30.6-58.5
		c-16.3-20.9-20.9-33.5-24.5-41.5c-3.6-8-16-22.3-20.2-25s-5.3-9.5-7.8-11.2s-9.5-9.2-10.4-14.8c-1-5.6-3.2-18-1.7-18.9
		s24-1.9,31.1,0.7c7,2.7,20.9,4.4,29.6,4.6c8.7,0.2,22.6,1.9,32.8,3.6c10.2,1.7,14.1,0.2,15.3,2.9s1.9,12.6,4.6,13.1
		c2.7,0.5,1.5-8.3,2.9-8.3s3.2,10.7,5.3,10.7c2.2,0,1-7.8,2.9-7.5s4.1,7.8,6.3,6.6c2.2-1.2-1.5-10,0.5-11.7c1.9-1.7,5.1-0.5,6.1-2.2
		c1-1.7-8.5-11.9-8.3-13.4c0.2-1.5,3.2-8,1.5-9.2c-1.7-1.2-1.7,3.2-10.4,5.1s-29.6-3.2-37.9-6.6c-8.3-3.4-38.9-16.8-53.7-14.1
		s-24.3-14.1-34.7-17c-10.4-2.9-52.7-2.2-53.4-2.7s-3.6-1.7-3.6-7.8s4.9-23.1,2.4-29.1c-2.4-6.1-13.4-22.1-34.7-18.9
		s-27.2,16.3-27.7,26c-0.5,9.7,6.3,21.4,7.5,27c1.2,5.6,8,11.7,11.4,13.1C208.9,137,207.7,142.1,207.7,142.1z"/>
	<circle id="_x30_2" cx="404.7" cy="142.3" r="7.5"/>
</g>
</svg>
