<?xml version="1.0" encoding="utf-8"?>
<!-- Generator: Adobe Illustrator 26.3.1, SVG Export Plug-In . SVG Version: 6.00 Build 0)  -->
<svg version="1.1" id="Table_tennis" xmlns="http://www.w3.org/2000/svg" xmlns:xlink="http://www.w3.org/1999/xlink" x="0px"
	 y="0px" viewBox="0 0 500 500" style="enable-background:new 0 0 500 500;" xml:space="preserve">
<path id="Table_tennis_2" d="M127.3,416.3c0,0-1.8-2.5-8.6,8.4c-6.9,10.9-24.4,30-24.9,33.8c-0.5,3.8,0.3,7.9,9.9,7.6
	c9.7-0.3,20.9-9.2,26.4-15.5c5.6-6.4,21.1-16.3,21.6-18.3c0.5-2-0.3-6.4,0-10.4c0.3-4.1-4.3-7.9-4.3-7.9s12.5-28.7,13-39.4
	s-1-9.7,1.8-15s23.7-39.2,23.7-39.2s8.9,0.5,11.4,0c0,0,16-33.8,29-37.4c0,0,28,23.1,28.7,24.9c0.8,1.8,10.4-5.6,13.2-2.5
	c2.8,3.1,24.9,25.2,26.4,28.7c1.5,3.6-0.5,17.8,7.6,28.5c8.1,10.7,21.1,30.5,22.1,36.9c1,6.4,5.3,11.7,4.3,13.7
	c-1,2-1.8,4.6-1.5,7.6c0.3,3.1-0.5,12,1.7,15c2.1,3.1,13.3,7.6,16.1,10.4c2.8,2.8,16.3,19.3,27,18.8s13-3.6,13.2-5.8
	c0.3-2.3,1.8-7.4,0-7.9c-1.8-0.5-24.4-20.6-25.7-25.2c-1.3-4.6-6.6-9.9-8.1-10.2c-1.5-0.3-11.4-40.9-14-55.4
	c-2.5-14.5-12.2-31.8-12.5-35.4c-0.3-3.6-0.3-10.7-3.3-15.8c-3.1-5.1-16.3-24.9-16.3-24.9v-1.5c0,0-8.1-15.5-17.8-25.2
	c-9.7-9.7-10.9-12.2-13.2-16.5s-5.8-5.6-6.6-7.6c-0.8-2-1-5.8-3.3-10.2s-6.1-8.1-6.1-13.2c0-5.1,3.8-12.2,3.8-12.2
	s15.3,8.6,22.9,12.2c7.6,3.6,17.8,8.1,21.4,12.5c3.6,4.3,6.9,4.8,12.5,6.1s10.7,3.3,10.7,6.6c0,3.3-2.8,4.1-3.8,3.6
	c-1-0.5-1.5,1.8,1,2.8c2.5,1,3.6,0.8,5.8,0.5s5.8-2.3,6.4-4.6c0.5-2.3,1.8-5.6,1.5-8.9c-0.3-3.3-5.3-13.2-10.2-14
	c-4.8-0.8-11.2-0.5-13.5-2.3s-12.2-10.2-12.2-10.2s15.8-0.8,30.5-5.6c14.8-4.8,22.4-8.9,25.2-8.1c2.8,0.8,4.1,2.8,12,2.8
	s11.4-7.4,11.2-12s-2.3-13.2-2.3-13.2s10.9,0.5,16.8-5.3c5.8-5.8,9.2-13,9.2-22.4s-8.1-20.6-21.9-20.3
	c-13.7,0.3-23.9,18.3-23.7,28.7c0.3,10.4,8.1,16,8.1,16s-3.1-1.5-6.4,1.5c-3.3,3.1-6.6,6.6-9.2,6.6c-2.5,0-50.6,0.5-58,2.3
	L285.7,162c0,0,11.7-24.7,10.7-31.8c-1-7.1-9.2-15-9.2-15s7.9-2.3,13-10.7c5.1-8.4,9.4-18.8,9.9-23.7c0.5-4.8,4.1-14.2,3.6-20.9
	c-0.5-6.6-6.4-27.2-28.2-27.2s-31.3,14.5-30.8,31.3c0,0,0.5,5.6,0,6.6c-0.5,1-2.8,1.5-1.5,7.1c1.3,5.6,2,9.7,3.3,9.9
	c1.3,0.3,0.8,3.8,0.8,3.8s-3.1,1-4.8,3.6c-1.8,2.5-2.1,4.1-2.1,4.1s-16-3.3-24.9,4.6s-27.7,33.3-29.8,37.6s-6.1,18.8-8.4,22.4
	c-2.3,3.6-3.8,12-3.6,15.8c0.3,3.8-5.3,9.7-6.6,14c-1.3,4.3-1.8,12-4.6,15.3c-2.8,3.3-6.6,8.9-6.9,14c-0.3,5.1-0.5,10.7-2.8,16
	c-2.3,5.3-8.4,17.3-8.6,23.4c-0.3,6.1-5.8,27-7.6,32s-6.9,17.5-6.9,17.5l2,1c0,0-8.4,32.3-11.4,37.9c-3.1,5.6-4.8,19.3-4.8,26.2
	C125.5,383.8,127.3,416.3,127.3,416.3z"/>
</svg>
