<?xml version="1.0" encoding="utf-8"?>
<!-- Generator: Adobe Illustrator 26.3.1, SVG Export Plug-In . SVG Version: 6.00 Build 0)  -->
<svg version="1.1" id="Taekwondo" xmlns="http://www.w3.org/2000/svg" xmlns:xlink="http://www.w3.org/1999/xlink" x="0px" y="0px"
	 viewBox="0 0 500 500" style="enable-background:new 0 0 500 500;" xml:space="preserve">
<path id="Taekwondo_3" d="M230.1,135.3c0,0-5.3,7-5.3,9.3s-14.6,13.7-21.6,22.5c-7,8.8-30.9,38.2-30.7,50.2s9.3,16.3,16.3,14
	c7-2.3,14.6,4.4,20.4,0.6c5.8-3.8,5.8,1.2,5.8,1.2s-1.5,13.4,2,17.5s5,7.9,3.8,9.1c-1.2,1.2-5.3-0.6-14.3,19.3
	c-9.1,19.9-30.7,50.8-34.2,56.1c-3.5,5.3-17.5,21.9-17.5,21.9s-24.2,5-33.3,12.3s-50.5,51.7-60.4,56.6s-17.2,9.1-17.5,14.3
	c-0.3,5.3,6.7,7.3,11.7,11.1s19.3,7.6,27.7,7.6s12.3-2.6,10.8-4.7c-1.5-2-7-3.8-3.8-5.5s2.9-5.5,2.9-5.5s33.6-12,41.2-17.8
	c7.6-5.8,49.6-35.6,55.8-40.6c6.1-5,62.2-51.4,70.9-54c8.8-2.6,28.6,2,40.9,4.4s34.5,3.5,43.2,13.7c8.8,10.2,15.8,40.3,16.9,40.9
	s2,1.2,2,2s-2,14.9,0,17.2c2,2.3,1.2,4.7,3.8,5s28.6-1.2,39.1,0.3c10.5,1.5,16.1,0.9,16.1-2.3c0-3.2-9.1-2.3-11.4-3.2
	s-12.3-8.5-15.8-9.9s-6.7-3.2-6.7-5.3s16.6-7.3,17.2-8.2s-26.9-87.3-32.1-91.1c-5.3-3.8-89-27.2-89-27.2s3.2-27.2,0.6-29.8
	c-2.6-2.6-4.7-6.7-2.9-9.3c1.8-2.6,0.6-12,0.6-12s-1.2-9.9,0-11.4s33.9-12.3,36.8-11.7c2.9,0.6,3.5,3.2,10.2,3.2s12.3-2,12-5.5
	s-0.3-5.8,4.7-5.5c5,0.3,16.6,0,30.9-5c14.3-5,17.8-8.2,22.2-8.2s12,3.5,13.7,5.5s6.4,4.1,9.1,3.8s6.1-1.8,6.1-8.5
	c0-6.7-2.3-12-6.7-12.8s-12.6-1.8-19-0.9c-6.4,0.9-6.1,2-15.2,1.8s-43.5-1.5-43.5-1.5s-3.8-2.3-8.2-2.3s-9.3,0.9-13.4,3.2
	s-35.3,2.6-37.7,1.5s-8.8-6.7-13.1-6.7s-11.1-3.5-11.1-5.3s4.1,0.6,7.3-3.8s5.8-15.8,5.8-27.7s-1.8-31.8-30.1-31.8
	s-18.7,38.2-17.2,40.6C228.7,129.1,231.1,133.9,230.1,135.3z"/>
</svg>
