<?xml version="1.0" encoding="utf-8"?>
<!-- Generator: Adobe Illustrator 26.3.1, SVG Export Plug-In . SVG Version: 6.00 Build 0)  -->
<svg version="1.1" id="Taekwondo" xmlns="http://www.w3.org/2000/svg" xmlns:xlink="http://www.w3.org/1999/xlink" x="0px" y="0px"
	 viewBox="0 0 500 500" style="enable-background:new 0 0 500 500;" xml:space="preserve">
<path id="Taekwondo_1" d="M154.8,171.1c0,0-1.7-6.4-3.2-8.1s-2.9-2.9-3.2-6.6c-0.3-3.7-5.1-13-13.7-15.7c-8.6-2.6-23.3-1.5-29.9,7.8
	c-6.6,9.4-7.1,15.3-6.4,22.6c0,0-5.5,2.8-7.5,20.6c-2,17.8-17,17.5-20.4,24.6s-3.7,17.2,2.5,26.9c0,0-0.6-4.8,1.2-6.3
	c0,0,0.9,6.8,4,11.1c3.1,4.3,3.5,7.8,3.5,7.8s5.7-9.5,6-12.6c0.3-3.1,10.7-8.7,10.7-8.7s0.3,4.3-0.6,5.4c-0.9,1.1,7.7-2.9,8.7-7.4
	s3.1-9.8,4.9-11.7c1.8-1.8,3.6-9.2,2.6-16.1s-4.3-9.4-4.1-16.6c0,0,13.8,8.4,16,9.6s2.5,2.2,2.6,3.9c0.2,1.7-0.6,7.7,2,12.4
	s3.7,7.4,3.4,9.5s-4,9.5-2.9,15.5c1.1,6,2.1,10.4,8.7,15.2s11.5,8.4,16.7,14.9c5.2,6.4,13.7,16.6,23.6,17.7
	c10,1.1,17.3,3.7,23.2,2.9c5.8-0.8,23.8-15.8,24.3-18.3c0.5-2.5-4.1-20.1-4.1-20.1s8.1,3.7,10.6,7.2c2.5,3.5,3.8,7.2,4.6,11.8
	c0.8,4.6,4.1,20.5,4.1,36.9c0,16.5-1.6,32-1.6,32l9.9-6.1c0,0,0.5,4.2,1.5,9.7c1,5.5-4.5,46.5-4.8,49.9c-0.2,2.4-2.1,10.5-3.2,15.1
	c-0.4,1.5,0.5,3,2,3.5c0.9,0.3,1.6,0.9,1.4,2c0,0-2.1,20.3-3.2,22.7c-1,2.5-4.6,9.9-15.8,16.1c-11.2,6.1-26.1,10.3-26.2,14.5
	s3.5,4.6,10.1,4.6s28.8-3.3,35.3-3.3c6.5,0,16.3,0.2,18.1-4.7c1.8-4.9-0.4-12,0-16s7-33.1,7-33.1s13.8,0.5,17.9-3.6
	c4.1-4.1,4.8-4.9,3.8-7.4c-1-2.5-4.3-8.4-2.5-11.1c1.8-2.7,2.6-7.6,2.3-13.7s-0.2-14.6,1.2-19.2c1.4-4.6,0.6-22.2,0.6-22.2
	s-4.4-78.5-3.3-81.7s0.6-9.9,2.5-12.4c1.8-2.5,17-23.9,19.7-30.3c2.8-6.3,22.8-46.1,27.8-54.2c5-8.1,22.6-32.8,22.6-32.8
	s40.1-51.2,41-52.8c0.9-1.6,2.9-4,2.3-5.5c-0.6-1.5,0.1-1.6,0.1-1.6s3.5-5.5,9.7-8.9c0,0,1.6-1.8,2.5-4.8s5.9-10.1,7.3-11.7
	c1.3-1.7,3.3-4.1,3.3-7.5s-2.1-8.8-6.9-8.6c0,0-1.2-3.3-3-3.8c-1.8-0.5-3.1-0.3-3.1-0.3s-2-1.6-4.6-0.2c0,0-0.9-1.1-2.4-0.2
	s-1.5,1.7-2,1.7s-1.5,1-1.5,2.2c0,1.2-0.9,11.4-3.7,16.6s-11.4,14.2-11.4,14.2s-7.2-3.9-9.7-3.3c-2.6,0.6-3.7,0.9-10.8,10.4
	s-25.1,35.5-33.7,42.7s-11.9,12.3-13.2,15.2s-12.6,7.9-16.6,13c-4,5.1-5.9,6.1-12.7,12.2c-6.8,6-20.6,14.1-27.1,22.5
	c-6.5,8.4-19.6,16.1-19.6,16.1s0.4-11.1-0.5-13.3s-3.2-3-2.6-10.8c0.6-7.9,1.2-17.6-4.5-20.9c-5.7-3.3-16.1-3.2-27.2,0.1
	c-11.2,3.3-11.5,5.4-19,7.7s-14.4,9.3-17.2,10.3c-2.8,1-14.7,7.3-21.1,14.3C158,170.6,156.4,172.8,154.8,171.1z"/>
</svg>
