<?xml version="1.0" encoding="utf-8"?>
<!-- Generator: Adobe Illustrator 26.3.1, SVG Export Plug-In . SVG Version: 6.00 Build 0)  -->
<svg version="1.1" id="Taekwondo" xmlns="http://www.w3.org/2000/svg" xmlns:xlink="http://www.w3.org/1999/xlink" x="0px" y="0px"
	 viewBox="0 0 500 500" style="enable-background:new 0 0 500 500;" xml:space="preserve">
<path id="Taekwondo_2" d="M217.6,111.2c0,0,0.5,5.6,0,7.4c-0.5,1.8-3.3,6.6-5.6,8.7c-2.3,2-29.3,16.8-25.7,42.6s9.2,22.9,9.4,34.2
	c0.3,11.2-1.8,24-3.6,25.2c-1.8,1.3-6.1,2-7.6,0c-1.5-2-7.9-4.1-8.7-2.8s-1.5,5.6,0,8.4c1.5,2.8,2.5,5.9,2.5,9.4s-2.5,6.6,0.8,7.1
	c3.3,0.5,7.6-0.8,10.2,0s6.2,0.3,7.1,2.3s1.9,9.7,3.9,12.2c2,2.5,5.1,4.8,4.3,6.1c-0.8,1.3-6.5,4.3-8.2,3.6s-11.9-3.6-14.7,1.3
	c-2.8,4.8-85.1,59.1-85.1,66c0,6.9-3.6,61.9,0,67.5c3.6,5.6,19.4,10.2,23.7,6.9c4.3-3.3,17.1-8.2,17.6-5.4c0.5,2.8,3.1,10.7,2,13
	c-1,2.3-21.2,16.3-25.7,17.8c-4.6,1.5-7.9,0.3-7.9,4.6c0,4.3,3.6,2.5,7.1,2.5c3.6,0,19.9-0.8,28.5-4.3s24.5-2,25-7.1
	s-4.6-16.1-5.6-21.7c-1-5.6-5.2-14.8-4.9-19.4c0.3-4.6,3.1-2.8,1.8-9.9s-6.5-9.2-1.8-13c4.6-3.8,35.2-19.9,35.2-19.9
	s25.5-8.9,31.6-7.4c6.1,1.5,21.2-8.2,24.5-2.5c3.3,5.6,25,11.2,29.3,16.3c4.3,5.1,5.9,7.6,8.9,18.1c3.1,10.4,11.7,19.4,23.7,23.7
	c12,4.3,36.7,12,42.1,3.8c5.4-8.2,5.6-9.9,7.9-7.9c2.3,2,21.9,19.1,24.2,30.8c2.3,11.7,3.1,28,4.8,29.1c1.8,1,12.5,3.3,18.9,1.3
	s12-2.3,10.7-6.4s-17.1-30.6-18.9-32.6c-1.8-2-8.7-10.7-9.9-17.1c-1.3-6.4-13.5-32.9-13.5-32.9s0.5-7.6-1-8.9
	c-1.5-1.3-26.8-37.2-30.6-37.2s-13.3-1.5-15.3-7.1c-2-5.6-10.7-30.6-16.1-39.2c-5.4-8.7-16.1-12.5-18.4-19.6
	c-2.3-7.1,5.1-16.1,4.8-31.9c-0.3-15.8,2.5-26.5,2.5-26.5s29.8-0.3,42.6-4.3c12.7-4.1,28.8-7.9,28.5-19.1c-0.3-11.2-12-31.3-26-30.1
	c-14,1.3-22.4-3.8-26.5-9.4s-22.2-18.1-38.2-17.1c-16.1,1-21.4,1-23.7-1.8c-2.3-2.8-5.9-7.9-7.9-8.4c-2-0.5-2.3-3.6-2.3-3.6
	s3.8-1.5,5.1-5.4c1.3-3.8,3.9-20.1,3.1-27.3c-0.8-7.1,0.7-23.7-7.2-29.3s-19.1-6.4-22.7-4.6c-3.6,1.8-19.1,9.7-21.4,15.5
	s-0.3,17.8-0.3,17.8s-2,1.5-0.8,6.1s2.8,11.7,4.8,12.2c2,0.5,4.6,14.8,6.4,16.3S217.6,111.2,217.6,111.2z"/>
</svg>
