<?xml version="1.0" encoding="utf-8"?>
<!-- Generator: Adobe Illustrator 26.3.1, SVG Export Plug-In . SVG Version: 6.00 Build 0)  -->
<svg version="1.1" id="Tennis" xmlns="http://www.w3.org/2000/svg" xmlns:xlink="http://www.w3.org/1999/xlink" x="0px" y="0px"
	 viewBox="0 0 500 500" style="enable-background:new 0 0 500 500;" xml:space="preserve">
<path id="Tennis_3" d="M346.4,438.7c-5.3-3.3-19.6-17-20-20.3c-0.3-3.3-2.3-14.5-1.3-21.5c1-6.9,10.6-53.1,7.6-66.8
	c-3-13.7-64.4-77.1-64.4-77.1s-4.8-5.4-5.1-9.1c-0.3-3.6-3.1-12.4,3-18.8c6.1-6.4,16.3-27.7,18-34c0,0,30.5-1,37.3-4.3
	c6.8-3.3,12.7-13.9,14-22.8c1.3-8.9-0.8-25.1,0.3-28.1c1.2-3,2.5-6.4,4.7-6.7c2.2-0.2,9.5-3.3,8.4-4.4c-1.1-1.1-7,0-7,0
	s7.5-5.9,7-7.3c-0.4-1.3-0.7-2.6-3.3-1.5c-2.6,1.1-7.3,3.3-7.3,3.3s9.7-9,9.5-9.9c-0.2-0.9-1.8-2-3.1-1.8c-1.3,0.2-7.9,4.2-7.9,4.2
	s7-9.2,6.6-11c-0.4-1.8-1.8-3.7-4-2.2c-2.2,1.5-9.9,16.1-10.8,16.1s-4-3.7-4-3.7s0.3,7.6-0.5,11V70.6c2.2-5.9,3.6-13.3,3.6-22.1
	c0-20.9-7.2-29.4-11.6-32.7c-1.9-1.4-4.3-1.9-6.7-1.3c-12.2,3.1-20.5,20.6-20.5,43.5c0,20.4,7.9,29.4,13.8,31.9l16.4,13.1v22.5h0.4
	c0.2,3.2,3.7,3.8,3.7,6.8c0,3.1,0.9,2.6-0.2,7.9c-1.1,5.3-9.2,15.2-13.9,17.8c-4.6,2.6-16.3,4-22.2,4.2c-5.9,0.2-16.5-8.6-17.2-10.6
	c-0.7-2,0-4,0-4s5.3-0.2,6.8-2.4c1.5-2.2,7.3-13.2,8.4-22.2c1.1-9,1.3-27.7-18.7-28.2c-3.8-0.1-7,0.4-9.7,1.2
	c-4.1,1.2-7.1,3.2-9.3,5.6c-4.3,4.6-5.6,10.5-5.6,14.3c0,4,0.9,12.7,2.9,17.2c1.6,3.7,4.5,3.4,4.3,5.2c-0.4,4-0.4,5.1-2.4,5.5
	c-2,0.4-10.1,5.5-15,14.1c-4.8,8.6-12.1,19.8-15.2,39.2c-3.1,19.4,2,23.1-4,32.3c-5.9,9.2-17.2,29.9-17.4,53.9
	c-0.2,24,14.5,85.6,13,87.8c-1.5,2.2-18,1.5-25.3,7.3c-7.3,5.7-48,47.5-52.8,51.7c-4.8,4.2-7.3,6.6-10.3,8.1
	c-3.1,1.5-7.5,6.2-5.3,10.1c2.2,4,7.9,13.2,8.1,14.3c0.2,1.1,2.4,1.5,3.1,3.5c0.7,2,4.8,15.4,8.4,17.4c3.5,2,11.3,2.1,11.3,2.1h8.6
	c0,0,6.4,1,5.9-5.6c-0.5-6.6-7.4-9.4-8.9-11.4s-3.3-8.3-3.3-16s0.7-10.9,1.6-11.4c1-0.5,51.5-34.3,67.5-42.1
	c16-7.8,17.5-5.1,21.3-10.6c3.8-5.4,7.9-29.4,8.9-45.4c1-16,0.5-29.2,3.3-30c2.8-0.8,26.2,10.4,38.8,16.7s12.5,8.9,12.5,8.9
	s-3.5,15.2-1.8,32.8c1.7,17.7,7.9,35.8,4.5,49.7c-3.5,13.9-5.3,18.8-3.3,21.9c2,3.1,12.7,6.1,16.2,6.1s5.4-1.6,8.1,0.5
	c2.6,2.1,9.7,5.6,17,5.6c7.3,0,20.1-0.5,19.8-5.9C361.6,444.1,351.7,442,346.4,438.7z M292.5,57.9c0-21,7.4-37.5,17.9-40.2
	c1.3-0.3,2.7-0.1,3.8,0.8c3.8,2.9,10.2,10.6,10.2,30c0,28.2-15,38.7-18.1,38.7C302,87.3,292.5,79.9,292.5,57.9z M308.6,90.1
	c3.5-1.3,8.2-5.3,12.2-12.1v21.9L308.6,90.1z"/>
</svg>
