<?xml version="1.0" encoding="utf-8"?>
<!-- Generator: Adobe Illustrator 26.3.1, SVG Export Plug-In . SVG Version: 6.00 Build 0)  -->
<svg version="1.1" id="Tennis" xmlns="http://www.w3.org/2000/svg" xmlns:xlink="http://www.w3.org/1999/xlink" x="0px" y="0px"
	 viewBox="0 0 500 500" style="enable-background:new 0 0 500 500;" xml:space="preserve">
<path id="Tennis_1" d="M341.9,250.8c-2.4-4.1-2.2-11.7-4.1-18.9c-1.9-7.3-4.4-16.3-7.3-23.3c-2.9-7-4.6-56.3-14.1-70.4
	c-9.5-14.1-34-25.5-35.4-26.2c-1.5-0.7-1.2-1.7,1-1.9c2.2-0.2,9-16.7,8.5-27.4C290,72,287.6,60.6,279.3,55s-20.6-5.6-30.6,1.9
	c-10,7.5-8.3,19.2-8.3,19.2c-0.8,0.7-1.8,5.1-1.8,9.1l0,0c0,0-2.2,0.9-2.1,3.6c0.1,2.7,0,2.3,0,2.3s-2.2-0.4-5,0.8
	c-2.8,1.2-6,6.3-11.2,5c-5.3-1.3-7-1.7-11.2,0.3c1.3,0.2,3.5,0.4,3.6,1.2c0,0-8.9,2.1-11.9,4.9s-3.9,9.6-3.9,9.6s6.9-4,13.7-1.9
	c6.8,2.1,17.7,1.5,23.4-7.1c0,0,2.7-3.8,3.8-9.7c0,0,2.9,2.4,4.3-1.1c0.6,0.9,1.4,2.2,2.2,4.1c1,2.2,2,4.3,3.2,6.3
	c1.7,2.9,4,7.3,4,9.5c0,3.4-12.9,0.7-17.5,3.9c-4.6,3.2-11.9,27.4-12.6,33.3c-0.7,5.8-1.5,18.4-4.1,22.3c-2.7,3.9-14.8,25-17,27.4
	c-2.2,2.4-3.6,0.7-5.8-0.5c-2.2-1.2-10-2.4-10-2.4s-5.8-20.1-4.9-58.3c1-38.1-32.9-55.8-37.4-57.5c-8-3.2-44.7-8.5-44.2,29.1
	s33.5,54.6,51.2,63.3c17.7,8.7,30.1,25.7,30.1,25.7s-3.6,2.2-4.4,3.9s2.4,4.4,4.6,8.3c2.2,3.9,5.8,7.8,7,7.8c1.2,0,2.1,4.4,2.1,4.4
	s0.8,1,0.1,3.2c-0.7,2.2,3.6,4.4,5.8,9.2c2.2,4.9,8,6.3,10.9,6.3c2.9,0,10.2-3.2,12.1-3.6c1.9-0.5,11.4,0,14.6,0
	c3.2,0,21.8-8.3,24.8-10c2.9-1.7,6.6-1.9,6.6-1.9c1.5,2.4-1.5,19.9-2.2,21.1c-0.7,1.2-21.6,18.2-22.8,20.1c-1.2,1.9,1,3.9,1,3.9
	S197,322.7,199,342.1c1.9,19.4,51.2,57,51.2,57l2.9,18.4c0,0-9.7,14.8-15.8,20.1c-6.1,5.3-6.3,5.8-5.3,9.5s10.4,2.7,10.4,2.7
	s-8.3,11.4-17.2,15.8c-9,4.4-6.6,7.3-6.6,10c0,2.7,4.4,4.1,10.7,4.6c6.3,0.5,23.1-4.6,28.4-7.3c5.3-2.7,19.7-8,21.6-11.4
	c1.9-3.4-1-6.1-1-12.6c0-6.6-0.7-20.6-0.7-20.6s13.6-17,13.3-20.4c-0.2-3.4-10.7-11.9-10.7-11.9s0-14.8-2.7-30.6s-0.5-23.1-0.5-23.1
	s55.6-47.6,58.3-48.5c2.7-0.9,7-1.1,9.7-0.3c2.7,0.7,3.9,0,3.9,0C351.6,288.2,344.4,255,341.9,250.8z M132.3,161
	c-14.9-9.5-30.6-24.6-30.9-49.5c-0.4-34.7,33.4-29.8,40.8-26.9c4.2,1.6,33,17.9,34.5,53.1c0.7,17.2-7,24.5-19.9,27.2
	C143.9,167.6,132.3,161,132.3,161z M154.6,169.8c0,0,17-4.6,21.1-9.5l5.8,35L154.6,169.8z M236.3,216.9c-3.4,1-15.5,8.7-17,8.5
	c-1.5-0.2-15-7-16.7-7s-3.4-2.7,0-3.4c3.4-0.7,14.6-4.4,18.4-8.3c3.9-3.9,16.5-17,18.7-33.5c0,0,4.4,10.9,7.8,14.3
	c3.4,3.4,9.5,16,9.5,16S239.7,215.9,236.3,216.9z M233.7,346.6l8.7-8c-1,7,1.8,14.4,1.8,14.4L233.7,346.6z"/>
</svg>
