<?xml version="1.0" encoding="utf-8"?>
<!-- Generator: Adobe Illustrator 26.3.1, SVG Export Plug-In . SVG Version: 6.00 Build 0)  -->
<svg version="1.1" id="Tennis" xmlns="http://www.w3.org/2000/svg" xmlns:xlink="http://www.w3.org/1999/xlink" x="0px" y="0px"
	 viewBox="0 0 500 500" style="enable-background:new 0 0 500 500;" xml:space="preserve">
<path id="Tennis_2" d="M306.7,259.2c-2.9-16-4.4-54.1-4.4-66.8c0-12.7-0.9-25.9,0.4-37.6s-13.4-40.2-15.4-45.1
	c-2-4.8-6.6-13.8-7.5-19.1c-0.9-5.3-4-16-14.7-40.4c0,0-1.8-11-1.8-14.7c0-3.7,1-12.2,0.9-13.5c-0.1-1.3-1.3-2.3-1.8-2
	c-0.4,0.3-0.9,1.6-0.9,1.6s-0.9-4.7-2.3-4.9c-1.4-0.2-2.1-0.3-1.9,2.1c0.2,2.4,0.3,4.1,0.3,4.1s-4.1-5.7-5.5-4.4
	c-1.4,1.3-0.7,2.1,0.8,4.6c1.4,2.5,1.3,4.5,1.3,4.5s-4.6-4.1-5.3-4.1s-2.1-0.4-2.3,1.7c-0.2,2.1,5.1,6.1,5.1,6.9
	c0,0.8,0,5.2-0.9,5.4c-0.9,0.2-2.3,0-3.4-1.6c-1.1-1.6-4.6-4.1-6.2-3.4c-1.5,0.7-2.4,2-1.8,2.7c0.7,0.8,3.3,1.1,4.3,3.2
	c1,2.1,2.7,5.2,4.4,8.2c1.6,3.1,5.5,4.3,6.7,6.3c1.2,2,3.1,6.9,4.5,15.2c1.4,8.2,2.7,23,5.3,27.1c2.5,4.2,3.1,4.3,3.5,7.1
	s1.9,18.5,1.9,18.5s-5.3-9-16.5-9s-19.1,9.2-19.1,24c0,14.7,13.2,25.1,13.2,25.1s1.9-0.9-0.5,3.4c-2.4,4.3-17.9,15.5-21.9,19.5
	c-4,4-26.6,22.1-26.6,22.1s-16.5-21.8-18.6-24.1c-2.1-2.3-1.5-12-1.5-14s-8.1-7.8-8.1-7.8v-28.1h-0.5c0.9-10.9,16.3-34.5,17.1-35.7
	c6.5-7.5,10.7-18.5,10.7-30.7c0-22.4-13.7-40.6-30.6-40.6s-30.6,18.2-30.6,40.6c0,12.2,4.1,23.2,10.6,30.7l0,0
	c0.2,0.3,16.2,24.6,17.2,35.8h-0.6v29.5c0,0-3.1-0.2-3.1,4.8s-1.3,10.8,0,13c1.3,2.2,4.2,2,7,5.1c2.9,3.1,3.3,2,4.8,6.6
	c1.5,4.6,4.4,18.5,9.7,26.2c5.3,7.7,8.9,12.5,14,12.5c5.1,0,35-18.2,38.8-19.1c3.7-0.9,5.1-1.8,5.5,3.5c0.4,5.3,0.9,8.6,2.2,12.1
	c1.3,3.5,3.3,18.9,1.5,25.1c-1.8,6.2-2.4,12.5-5.3,19.1c-2.9,6.6-4.6,15.4-7.9,27c-3.3,11.7-13.2,42.2-15.2,47.9
	c-2,5.7-5.7,7.7-5.7,18.5c0,10.8,9.9,40.2,10.1,42.9c0.2,2.6-1.8,6.8-2.9,7c-1.1,0.2-1.3,0.9-1.1,4.2c0.2,3.3-1.3,11-3.1,13
	c-1.8,2-3.7,9.7-2.9,17.8c0.9,8.1,0.4,9.2,5.1,9.7c4.6,0.4,16.3-11.2,17.8-17.6c1.5-6.4-0.2-11.2,2.4-14.3c2.6-3.1,6.8-5.1,5.7-10.3
	c-1.1-5.3-6.4-5.5-5.3-11.7c1.1-6.2,3.3-30.6,2.2-36c-1.1-5.5-3.3-3.5-1.1-9c2.2-5.5,31-39.8,32.8-39.8c1.8,0,0.2,16.3,1.5,31.7
	c1.3,15.4,1.8,23.5,0,27.5c-1.8,4-7.5,17.6-6.8,31.2c0.7,13.6,0.7,22.2,0,25.9c-0.7,3.7-2.2,2.2-2.6,5.9c-0.4,3.7-1.5,9.2,0.2,12.1
	c1.8,2.9,0.9-2.2,5.5,6.8c4.6,9,15.2,10.1,19.8,10.1c4.6,0,6.8-1.1,6.2-4.8c-0.7-3.7-4.8-7.5-7.7-13.6c-2.9-6.2-3.7-16-4.8-16.7
	c-1.1-0.7-3.1,0.4-3.1-2.2c0-2.6,0.2-10.8,3.7-19.1c3.5-8.4,8.8-20,12-24.8c3.2-4.8,3-11.6,3-15.8c0-4.2,13.8-28.1,15.2-55.6
	C313.3,290.2,309.6,275.3,306.7,259.2z M138.9,65.3c0-21.2,12.7-38.4,28.3-38.4c15.6,0,28.3,17.2,28.3,38.4c0,11.8-4,22.4-10.2,29.5
	l0,0c0,0-0.1,0.1-0.1,0.2c-4.9,5.4-11.1,8.7-18,8.7C151.7,103.6,138.9,86.4,138.9,65.3z M153.3,101.3c4.2,2.9,9,4.5,14,4.5
	c5,0,9.7-1.6,13.9-4.5c-5,8.3-12.7,22.3-13.4,30.3h-1.2C166.1,123.7,158.3,109.6,153.3,101.3z"/>
</svg>
