<?xml version="1.0" encoding="utf-8"?>
<!-- Generator: Adobe Illustrator 26.3.1, SVG Export Plug-In . SVG Version: 6.00 Build 0)  -->
<svg version="1.1" id="Basketball" xmlns="http://www.w3.org/2000/svg" xmlns:xlink="http://www.w3.org/1999/xlink" x="0px" y="0px"
	 viewBox="0 0 500 500" style="enable-background:new 0 0 500 500;" xml:space="preserve">
<g id="Volleyball_2">
	<path d="M354.7,459.8c-2.7-1.6-9-20.4-9.3-25c-0.3-4.7,23-92.9,23-100.3c0-7.3-7-14-16-34.3c-9-20.3-29-38.6-29-38.6
		c-3.7-21-22.7-80.3-22.3-85.6c0.3-5.3,36.6-35.3,40.3-46c3.7-10.7,10-62.3,11.7-63.3c1.7-1,9.3-11.7,10.3-14.7c1-3-0.7-6-2.7-7.3
		c-2-1.3-1.3-4.3-2-9.3c-0.7-5-10.7-4.3-13.3-4.3c-2.7,0-3,3.3-7,8.7c-4,5.3-3.3,14-3.3,14s-41.3,39-45.6,46
		c-4.3,7-30.3,26.3-30.3,26.3s-6.3-10.3-13-19.7s-15-8.7-25-8.7c-10,0-18.3,10.3-18.3,20c0,9.7,4.3,19.3,12,25.7
		c7.7,6.3,17.3,6.3,19.3,8.3c2,2,3,32,6,48s15.3,38,15.3,42c0,4-4.3,7.7-9.7,15.7c-5.3,8-4.7,25.3-4.7,25.3
		c-8,13-19.3,39.3-21.3,46.6c-2,7.3-4.7,7.3-20,20c-15.3,12.7-15.3,17.7-20.7,33.6c-5.3,16-12.7,24-12.7,24s-9,8-10.3,11.7
		c-1.3,3.7-19.7,26.7-22,31.3c-2.3,4.7,1,9.7,10,10c9,0.3,12-2,12-2s11.3-21.3,14.7-24c3.3-2.7,6.3-9.7,8-18
		c1.7-8.3,20.7-18.3,28.6-31.6c8-13.3,17.7-21,22.7-24c5-3,57-55.6,58.3-55.6c1.3,0,47.6,33,48.6,37c1,4-1.7,12-4.3,23
		c-2.7,11,0,59-2.7,67.3c-2.7,8.3-11,12.3-11,18c0,5.7,6,7.7,9.7,13s7,8,15.3,7.3c8.3-0.7,14.3-2.3,14.3-5
		C358.3,462.5,357.3,461.5,354.7,459.8z M284.6,151.9l-7.6-6.7c0,0,32.2-31.3,35.5-35.3c3.3-4,24.9-35.3,24.9-35.3
		c-5.1,9.1-20,53.1-20,53.1C306.6,132.8,284.6,151.9,284.6,151.9z"/>
	<circle cx="263" cy="53.7" r="25.3"/>
</g>
</svg>
