<?xml version="1.0" encoding="utf-8"?>
<!-- Generator: Adobe Illustrator 26.3.1, SVG Export Plug-In . SVG Version: 6.00 Build 0)  -->
<svg version="1.1" id="Basketball" xmlns="http://www.w3.org/2000/svg" xmlns:xlink="http://www.w3.org/1999/xlink" x="0px" y="0px"
	 viewBox="0 0 500 500" style="enable-background:new 0 0 500 500;" xml:space="preserve">
<g id="Volleyball_1">
	<path d="M221.4,79.8c0,0-0.2,0.5,0,5.5c0.2,5.1-0.9,17.5-3.2,18.9s-31.1,39.6-30.2,51.1s30.2,47.2,29.7,56s0.9,37.3-3.7,53.2
		c-4.6,15.9-26.1,70.5-26,75.1c0,4.6,1.4,0.5,0,4.6c-1.4,4.1-11.3,16.8-12.7,24c-1.4,7.1,5.8,49.1,5.3,54.1s0,6.9-0.9,6.9
		c-0.9,0-3.7,2.1-3.5,4.4c0.2,2.3,0.1,6.2-1.1,8.1s-17.6,16.6-15.9,19.6c1.6,3,12.2,3.2,16.4,1.4c4.1-1.8,8.3-9.7,11.3-9.9
		c3-0.2,7.6-5.3,7.6-6.9c0-1.6-0.7-21.7,0-23.7c0.7-2.1,7.1-35.2,8.1-48.1c0.4-5.6,7.2-12.5,15.5-19.5c0.9-0.7,2.7,0.7,3.6,0
		c8.3-6.8,16.9-15.1,22.5-21.7c1.8-2.2,5.1-2.2,7.1-0.2c7.2,7.6,22.9,24.1,28.5,30.4c0.8,0.9,2.9-0.6,3.2-0.1c3,5.1,4.6,7.1,3,12.4
		c-1.6,5.3-15.2,54.1-18,59c-2.8,4.8-8.1,15.7-4.4,19.8s16.4,4,24.9,9.7c8.5,5.7,19.1,0.7,19.1-1.2c0-1.8-12.9-12-16.6-13.8
		c-3.7-1.8-10.1-2.1-10.1-6.2s9.7-24.2,24.2-41c14.5-16.8,10.6-37.5,10.6-37.5l-2.3-6.9l1.2-0.7c0,0-0.7-24.6-16.4-48.1
		c-15.7-23.5-11.7-31.3-10.6-38.5c1.2-7.1,11.5-63.1,13.8-65.4c2.3-2.3,40.3-45.4,40.8-60.1s-33.6-56.7-34.3-56.9s-5.8-3-7.1-4.6
		c-1.4-1.6-4.1-4.4-6-3s3,4.6,1.6,6.4c-1.4,1.8-6,5.3-10.6,5.3s-5.3-1.2-9.2,3.2c-3.9,4.4-3.5,6.2,4.4,5.5
		c7.8-0.7,14.1-4.8,19.3,0.2c5.3,5.1,7.8,4.8,10.6,11.3c2.8,6.4,12.7,31.6,11.7,32.9c-0.9,1.4-18.4,19.1-23.3,21.2
		s-17.7,5.8-20.3,9.2c-2.5,3.5-8.3-3.7-8.3-5.3c0-1.6-0.9-6.2,0-7.1c0.9-0.9,4.8-5.8,5.1-7.4c0.2-1.6-2.3-5.1-2.3-5.1
		s-0.2-24.4-17-24.4s-19.8,16.8-19.3,25.1c0,0-1.8,2.3-0.9,5.1c0.9,2.8,3.9,6.2,4.6,6.7c0.7,0.5,2.8,2.3,1.8,6s-3,8.1-4.4,8.1
		c-1.4,0-4.8-9-16.1-11.3c-11.3-2.3-12.4-12-12.4-12s18.2-44.9,19.3-45.1c1.2-0.2,14.3-6.9,15.7-9.9c1.4-3-6.4,0-9,0
		c-2.5,0-0.9-3.7-2.3-4.8c-1.4-1.2-3.2-2.1-4.8-3.7C227,88.3,223.7,78,221.4,79.8z"/>
	<circle cx="260.4" cy="50.8" r="20.7"/>
</g>
</svg>
