<?xml version="1.0" encoding="utf-8"?>
<!-- Generator: Adobe Illustrator 26.3.1, SVG Export Plug-In . SVG Version: 6.00 Build 0)  -->
<svg version="1.1" id="Basketball" xmlns="http://www.w3.org/2000/svg" xmlns:xlink="http://www.w3.org/1999/xlink" x="0px" y="0px"
	 viewBox="0 0 500 500" style="enable-background:new 0 0 500 500;" xml:space="preserve">
<path id="Volleyball_3" d="M366.2,441.7c-0.5-0.8-7.5-7.1-7.8-11.5c-0.3-4.4-8.1-44.1-12.3-53.4c-4.2-9.3-17.4-22.4-17.9-26.1
	c-0.5-3.7-8.3-69.7-11.7-79.4c-3.4-9.7-17-22.1-17.9-26c-0.8-3.9-2.8-14.9,0.8-22.5c3.6-7.6,15.6-34.1,17.4-35.4
	c1.8-1.3,41.2-31.3,42.2-46.6c0,0,0.8-6.8-7.5-19.6c-8.3-12.8-14.9-23.9-15.3-25.3c-0.3-1.5-1.5-20.8-2.3-20.9
	c-0.8-0.2-1.3-0.3-1.3,1.6c0,1.9-0.8,6.3-0.8,6.3s-5.4-12.8-6.2-13c-0.8-0.2-1.9-0.3-1.8,1.1c0.2,1.5,4.1,9.6,3.4,10.4
	c-0.6,0.8-5.8-10.2-6.8-10.7c-1-0.5-1.8-0.6-1.9,0.5c-0.2,1.1,5.4,9.6,4.9,10.1s-6.7-9.1-7.6-8.8c-1,0.3-1.9,1.6-0.8,3.2
	c1.1,1.6,5.5,6.3,5.5,7.5s-1.9,0.3-1.9,0.3s-5.7-5.5-6.5-4.9c-0.8,0.6-0.6,1.6,0.3,2.6c1,1,6.2,6.5,7.5,9.1c1.3,2.6,0.3,3.1-0.6,2.9
	c-1-0.2-5.2-2.8-6.8-2.9c-1.6-0.2-2.9,1.3-2.4,2.3c0.5,1,1.6-0.2,3.7,1.1c2.1,1.3,4.9,4.4,8.3,7s3.6,1,5.5,3.7
	c1.9,2.8,14,31.8,14,33.4s-28.6,26.5-29.7,26.5c-1.1,0-9.3,0.6-10.4-0.2c-1.1-0.8-6.2-3.4-6.5-6c-0.3-2.6-0.2-7.1,0.5-7.3
	c0.6-0.2,8.1,0.3,11.4-1.6c3.2-1.9,7.6-10.4,7.6-17.5c0,0,1.6-1.8,4.9-1.9c3.2-0.2,6-4.2,3.2-7.8c-2.8-3.6-6.5-7-9.6-5.7
	c-3.1,1.3-3.9,3.2-3.9,3.2S300,109,290.9,109c-9.1,0-16.7,9.6-17.4,12c-0.3,1-0.9,3.9-2,5.9c-1.5,2.8-3.7,4.7-4.3,5.1
	c-1.2,0.9-2.9,1.3-1,2.9c1.2,1,1.6,1.6,1.1,3.2c-0.5,1.6-2.6,6.7-1.8,8.4c0.8,1.8,13.6,4.1,12.1,6.7c0,0-0.6,5.5-2.6,5.5
	s-9.7,1-11.7,0c-1.9-1-49.3-39.9-51.6-43.5c-2.3-3.6-39.9-29.5-39.9-31.8c0-2.3-1-7-2.1-9.4c-0.5-1.1-0.9-2.5-1.3-3.6
	c4.8-4.2,7.8-10.4,7.8-17.3c0-12.8-10.4-23.2-23.2-23.2c-12.8,0-23.2,10.4-23.2,23.2c0,9.3,5.5,17.3,13.4,21c0,0-0.1,0-0.1,0.1
	c-0.8,1-1.1,1.6-1.8,1.6c-0.6,0-1.6,1-1.6,1s-1.9,0.5-1.8,1.8c0.2,1.3,1.8,1.5,1.8,1.5s-1,1.5,0.5,2.3c1.5,0.8,7.5,1.1,11.2,3.7
	s13.1,3.7,14.4,5.2c1.3,1.5,35.1,36.4,40.1,38.9c5,2.6,16.2,20,28.4,30.5c12.2,10.5,16.7,18.8,16.9,22.6c0.2,3.7-2.8,15.1-1.9,21.3
	c0.8,6.2,2.6,27.9,3.2,34.2c0.6,6.3,1.8,29.5,1.1,30.9c-0.6,1.5-17.7,32.6-20.9,45.1c-3.2,12.5-11.5,32.5-12,37.9
	c-0.5,5.4,0,11.7,2.9,19.3c2.9,7.6,12.7,55.3,12.5,67c0,0,0.5,1-1,2.6c-1.5,1.6-13.5,13.5-16.2,15.4c-2.8,1.9-12.5,1.6-12.7,2.9
	c-0.2,1.3-0.3,4.2,3.4,6.7c3.7,2.4,27.8,0,29.2,0c1.5,0,15.4-2.6,16.7-4.5c1.3-1.9,1.6-6.5,0.6-11.7c-1-5.2-2.3-8.3-2.4-11
	c-0.2-2.8,2.8-54.5,0.2-62.5c-2.6-8-5.4-15.1-5.4-15.1s31.8-49.1,33.3-53.9c1.5-4.9,8.9,31.9,20.3,49.4c11.4,17.5,5,12.7,14.8,19
	c9.7,6.3,28.2,57.1,28.2,60c0,2.9-0.5,7-1.8,8.4c-1.3,1.5-8,6.2-11,6.3c-3.1,0.2-5.5,2.4-4.7,5.5c0.8,3.1,14.8,3.6,17.5,3.6
	c2.8,0,15.3-6.2,20.3-8.4C370.6,449.5,366.7,442.5,366.2,441.7z M165.8,77.5c-0.6,0-5.4-0.5-8.5-1.5c3.2-0.6,6.2-1.8,8.8-3.6
	C166.7,74.3,166.5,77.5,165.8,77.5z"/>
</svg>
