<?xml version="1.0" standalone="no"?>
<!DOCTYPE svg PUBLIC "-//W3C//DTD SVG 20010904//EN"
 "http://www.w3.org/TR/2001/REC-SVG-20010904/DTD/svg10.dtd">
<svg version="1.0" xmlns="http://www.w3.org/2000/svg"
 width="992.000000pt" height="1056.000000pt" viewBox="0 0 992.000000 1056.000000"
 preserveAspectRatio="xMidYMid meet">

<g transform="translate(0.000000,1056.000000) scale(0.100000,-0.100000)"
fill="#000000" stroke="none">
<path d="M4485 9071 c-126 -12 -203 -45 -257 -110 -51 -60 -63 -167 -23 -211
17 -19 16 -23 -8 -101 -24 -76 -24 -84 -10 -114 15 -31 14 -33 -29 -101 -69
-108 -70 -124 -12 -149 31 -13 33 -17 27 -46 -4 -24 -2 -35 11 -45 15 -10 15
-15 5 -33 -11 -17 -10 -23 6 -41 14 -15 18 -33 16 -73 -3 -73 21 -95 120 -108
93 -13 143 -43 109 -64 -18 -11 -11 -61 11 -81 21 -18 58 -88 59 -109 0 -6
-36 -30 -79 -54 -96 -53 -130 -87 -169 -166 -39 -79 -60 -170 -68 -286 -5 -73
-18 -132 -59 -264 -29 -93 -60 -200 -70 -237 l-17 -66 -54 24 c-146 65 -194
94 -235 147 -23 28 -53 60 -68 69 -14 9 -40 36 -56 59 l-31 43 18 102 19 103
-27 62 c-16 39 -28 90 -31 136 -7 84 -22 114 -50 97 -30 -18 -42 -72 -36 -161
4 -54 2 -83 -4 -83 -11 0 -94 96 -193 222 -72 94 -103 117 -132 99 -10 -6 -28
-9 -39 -6 -26 9 -61 -22 -54 -45 3 -10 -1 -23 -10 -30 -8 -7 -15 -20 -15 -29
0 -19 64 -200 86 -243 8 -16 13 -32 10 -35 -5 -5 -39 48 -67 102 -9 18 -23 30
-34 30 -37 0 -21 -65 52 -207 59 -119 76 -142 150 -215 46 -45 83 -88 83 -96
0 -7 18 -31 41 -52 22 -22 57 -67 76 -100 65 -109 148 -197 323 -345 97 -82
340 -247 378 -257 29 -7 80 17 157 75 50 38 69 67 124 192 l28 65 13 -45 c7
-25 34 -97 60 -160 27 -63 53 -135 60 -160 6 -25 18 -62 25 -83 8 -20 17 -83
19 -140 3 -56 14 -145 25 -197 11 -52 27 -127 36 -166 13 -64 13 -76 0 -108
-8 -19 -15 -51 -15 -69 0 -43 -65 -146 -180 -283 -235 -281 -322 -417 -559
-879 l-185 -360 0 -85 c1 -69 6 -98 28 -155 73 -182 108 -309 147 -515 22
-118 58 -296 80 -395 88 -392 90 -405 96 -562 l6 -153 -26 0 c-34 0 -54 -31
-63 -98 -8 -64 -29 -92 -122 -160 -137 -100 -251 -156 -426 -208 -101 -30
-126 -53 -126 -112 0 -35 6 -49 28 -72 81 -80 401 -110 682 -64 47 8 172 19
278 24 260 13 360 39 386 102 16 36 5 99 -23 138 -10 14 -21 49 -25 79 -4 30
-18 86 -31 125 -13 39 -26 83 -29 98 -4 18 -15 30 -31 34 -13 3 -26 13 -29 22
-20 70 -42 324 -52 597 -5 153 -3 216 11 325 27 207 15 331 -61 625 -14 55
-34 126 -45 158 -19 57 -19 57 1 97 24 47 120 131 330 289 88 66 201 163 263
225 59 59 109 107 111 105 2 -2 34 -60 71 -129 96 -176 157 -272 284 -448 60
-84 151 -219 202 -299 60 -94 106 -155 130 -172 20 -15 79 -39 130 -54 294
-86 374 -117 550 -214 96 -52 283 -148 416 -213 274 -134 386 -203 556 -345
109 -91 117 -100 100 -112 -43 -31 -53 -44 -53 -67 0 -33 39 -62 103 -77 51
-11 54 -13 109 -98 121 -185 157 -292 158 -467 0 -97 12 -137 46 -153 68 -31
130 14 187 136 70 149 88 240 98 493 5 124 13 261 18 305 13 109 13 253 0 315
-15 70 -59 120 -106 120 -18 0 -46 -6 -61 -14 -17 -8 -83 -16 -176 -20 -83 -4
-155 -11 -162 -17 -25 -21 -158 66 -422 277 -203 162 -224 182 -325 297 -95
107 -190 169 -368 236 -306 117 -343 138 -393 224 -32 55 -61 165 -81 307 -32
226 -70 367 -159 588 -70 173 -73 198 -41 317 21 75 28 127 30 211 1 61 5 116
9 123 10 15 -44 178 -99 301 -23 52 -51 118 -61 147 l-18 52 30 43 c17 24 43
66 59 93 26 47 57 83 87 102 7 4 30 29 51 56 21 26 57 57 80 69 69 35 238 224
385 431 85 120 252 406 252 432 0 24 -77 133 -144 204 -54 57 -367 309 -453
364 -37 24 -99 60 -138 79 -72 35 -105 59 -160 116 -17 17 -36 32 -41 32 -5 0
-23 14 -39 32 -55 58 -174 98 -292 98 -40 0 -81 10 -151 39 -54 21 -122 46
-152 56 -112 36 -138 59 -156 140 -3 17 -13 40 -20 52 -18 29 -6 59 73 192 66
111 89 167 103 255 13 84 -2 184 -36 246 -22 39 -23 46 -10 56 21 15 10 24
-31 24 -21 0 -33 5 -33 13 0 27 -72 97 -128 124 -54 27 -64 28 -207 29 -82 1
-186 -1 -230 -5z m1560 -2163 c28 -7 61 -20 73 -30 27 -19 26 -26 -18 -123
-15 -33 -42 -94 -60 -135 -39 -89 -131 -237 -160 -257 -11 -8 -29 -32 -40 -53
-11 -21 -28 -41 -39 -45 -11 -3 -31 -21 -46 -40 -44 -58 -49 -48 -42 88 6 126
45 627 53 684 l5 32 112 -54 c62 -30 135 -60 162 -67z"/>
</g>
</svg>
