<?xml version="1.0" encoding="utf-8"?>
<!-- Generator: Adobe Illustrator 26.3.1, SVG Export Plug-In . SVG Version: 6.00 Build 0)  -->
<svg version="1.1" id="Basketball" xmlns="http://www.w3.org/2000/svg" xmlns:xlink="http://www.w3.org/1999/xlink" x="0px" y="0px"
	 viewBox="0 0 500 500" style="enable-background:new 0 0 500 500;" xml:space="preserve">
<g>
	<path d="M483.3,256.9c-0.2-5.7-5-12.2-10-16.4c-5-4.2-14.4,0.5-23.7-0.5c-9.2-1-45.3-11.5-53.8-12.2c-8.5-0.7-22.2,4.7-37.1,6
		c-14.9,1.2-11.5,2.2-18.4,4.2c-7,2-11.7,0-24.9,0.2s-19.7,8.2-19.7,8.2l-14.3-0.7c0,0-2.6-8.5-2.8-10.5c-0.2-2,1.5-4,2.5-4.7
		c1-0.7-0.2-4-2-5.2c-1.7-1.2-2.2-7.2-3.5-18.4c-1.2-11.2-22.2-19.9-31.9-19.9c-9.7,0-25.7,4.7-25.7,25.2
		c0,20.4,12.5,28.1,12.5,28.1s2.5,8.2,1.5,15.4c-1,7.2-7.5,7.7-12,8.7c-4.5,1-5,0-16.2-1c-11.2-1-35.4,8-35.4,8
		c-15.9-9.2-39.4-6.2-39.4-6.2s-20.7-32.9-22.7-37.6c-2-4.7-5.2-20.7-6.2-27.1c-1-6.5-4-8-5.2-13.7c-1.2-5.7-2.2-11.2-4.5-14.4
		s-1.7-9-3-11.7c-0.7-1.5-2.5-2.2-4-2.5c-3.1-15.4-16.7-26.9-33-26.9c-18.6,0-33.6,15.1-33.6,33.6c0,18.6,15.1,33.6,33.6,33.6
		c7.9,0,15.3-2.8,21-7.4c1.1,0.9,2.5,2.1,4.4,3.4c4.6,3.2,3.7,8.2,5.2,16.4c1.5,8.2,6,37.1,6.7,42c0.7,4.9,11.7,20.8,11.5,26
		c-0.2,5.2,2.2,7.2,3.7,9.7c1.5,2.5,11,5.5,16.4,7.7c5.5,2.2,13.2,3.2,15.2,3.2s20.7,8.7,26.4,8.7c5.7,0,10-1.2,15.2-1.7
		c5.2-0.5,10.2,2.2,11.2,2.7c0.9,0.4,21.2,29.1,25.6,35.4c-1.5,1-2.9,2.1-4.5,3c-6.5,3.7-20.2,3.7-24.7-3.1
		c3.6,6.9,13.2,7.9,20.3,7.3c3.8-0.4,7.5-2.6,10.5-4.6c3-1.9,6.1-2.7,9.6-2.4c7.4,0.3,13,5.1,20.2,7.5c8,2.8,16-0.5,22.8-4.3
		c3.2-1.7,6.4-3.3,9.5-3.7c3.2-0.4,6.4,0.6,9.5,2c6.9,3.4,15.4,7.1,22.8,1.7c5.4-3.6,9.1-9.1,15.9-8.8c7.6-0.3,18.2,1.5,24.2-4.3
		c-6.7,4.9-16.3,2-24.1,1.7c-1.9-0.2-3.8,0-5.7,0.5l-1.4-2c-14.2-29.9-9.2-38.6-4-44.8c5.2-6.2,4.5-11,5.7-14.4
		c1.2-3.5,3.7-6.5,12.7-7.5c9-1,52.3-15.4,54.5-15.4c2.2,0,5.5,2.7,18.2,3.2c12.7,0.5,34.1-4.7,37.1-4c3,0.7,10.5,7,13.5,8.7
		c3,1.7,10.7-1.5,10.7-0.7s-0.5,5.5,2,6.7c2.5,1.2,4.7-0.5,4.7-0.5s-0.2,9.7,1,9.5c1.2-0.2,3.5-5.7,3.5-5.7s1.7,2.7,3.2,2.7
		S483.5,262.7,483.3,256.9z M309.4,343.1c0.7-0.9,2.2-1.8,3.8-2.5c-1.5,1.1-3.1,2.3-4.6,3.3C308.9,343.7,309.2,343.4,309.4,343.1z"
		/>
	<path d="M329.5,349.7c-3.1-0.3-6.4,0.4-9.1,1.9c-6.3,3.5-11.2,10.3-19,8.1c-3.4-0.7-6.5-2.6-10.1-4.3c-3.6-1.7-7.9-3.1-12.3-2.6
		c-8.2,1.1-14.1,6.7-21.5,8.8c-7.3,2.2-13.7-1.4-20.4-4.5c-4.6-2.1-9.9-3.3-15-2.6c-0.9,0.1-2.2,0.4-3.1,0.7
		c-3.9,1.1-6.9,4-10.2,5.9c-6.7,3.9-21,3.8-25.6-3.3c3.8,7.1,13.7,8.2,21,7.5c3.9-0.5,7.7-2.7,10.9-4.7c3.1-1.9,6.3-2.8,10-2.5
		c7.7,0.3,13.5,5.3,21,7.7c8.3,2.9,16.5-0.5,23.6-4.4c3.4-1.8,6.6-3.4,9.9-3.9c3.4-0.4,6.7,0.6,9.9,2.1c7.2,3.6,15.8,7.4,23.5,1.8
		c5.6-3.7,9.5-9.4,16.5-9.1c7.9-0.3,18.9,1.6,25.1-4.4C347.5,352.9,337.5,349.9,329.5,349.7z"/>
</g>
</svg>
