<?xml version="1.0" encoding="utf-8"?>
<!-- Generator: Adobe Illustrator 26.3.1, SVG Export Plug-In . SVG Version: 6.00 Build 0)  -->
<svg version="1.1" id="Weightlifting" xmlns="http://www.w3.org/2000/svg" xmlns:xlink="http://www.w3.org/1999/xlink" x="0px"
	 y="0px" viewBox="0 0 500 500" style="enable-background:new 0 0 500 500;" xml:space="preserve">
<path id="Weightlifting_1" d="M455.5,279.4v-9.2h-4c0-35-2.6-38.9-2.6-38.9h-11.2l-0.8,0.8l-0.6-0.6h-9.9l-0.8,0.8l-0.8-0.8
	c0,0-5,0-10.9,0c-5.9,0-7.3,47.9-7.3,47.9h-13.4h-12.9c0,0-1-4.9-8.2-15.9c-7.2-11-8.2-20.6-15.6-34.2
	c-7.4-13.6-16.3-22.2-16.3-22.2c-6.4-14.9-16.7-21.3-16.7-21.3c-15.9-21.2-21.9-19.7-28.5-25.6c-6.6-5.9-11.4-6.6-14.4-9.3
	c-3-2.7-9.3-1.6-10.3-2.1c-1-0.6-0.3-5-0.3-7c0-2,1.1-2.7,3.1-4c2-1.3,1.9-8,1.9-10.6c0-2.6-1.1-3.3-1.1-3.3s0.9-1.7,0-11.7
	c-0.9-10-10.6-20.2-24-19.9c-13.4,0.3-19.2,11.9-19,19.3c0.1,7.4,1,15.4,1.6,16c0.6,0.6,0.6,1.9,1,5.4c0.4,3.6,2.1,13.9,2.1,13.9
	s-5.6,0.1-9.4,1.9c-3.9,1.7-9,5.9-11.6,8.3c-2.6,2.4-8.6,3.6-11.9,7.3c-3.3,3.7-10.6,14.3-15.9,17c-5.3,2.7-14.7,12.7-20.6,22.5
	c-5.9,9.7-15,19-18.6,26.5s-9.7,26-12.9,29.6c-3.1,3.6-10.9,13.9-11.6,18.4c-0.1,0.3-0.1,0.7-0.2,1H96.9v-9.2h-4
	c0-35-2.6-38.9-2.6-38.9H79.2l-0.8,0.8l-0.6-0.6h-9.9l-0.8,0.8l-0.8-0.8c0,0-5,0-10.9,0c-5.9,0-7.3,47.9-7.3,47.9H18.9v9.3l29.3,0
	c0,0,0.9,41,7.3,47h9.1l0.9-0.9l1,1h11l0.8-0.8l0.8,0.8h11.3c3.6-3.3,2.6-39.8,2.6-39.8h4.1v-8h25.6c0.1,0.5,0.3,0.9,0.6,1
	c1.4,0.7,7.4-1,9-0.4c0.8,0.3,1.8-0.1,2.8-0.6h35.8c-0.3,3.9-0.3,6.6-0.3,6.6c-3.1,4.1-1.4,12.2-1.4,34.6s11.2,51.1,11.2,51.1
	c-0.7,1-2.2,7.5-3,11.5c-0.4,2-1.3,3.8-2.7,5.3c-1.5,1.6-3.2,4-3.7,5.9c-0.9,3.4,0.1,3.9,12.9,3.9c12.7,0,13.4-2.3,15.2-4
	c1.7-1.7,0.4-4.4,0.6-9.3c0.1-4.9-2.3-12.3-3.9-16.4s-1.6-6.9-1.6-6.9c-0.3-6.6,5.5-16,6.3-26.6c0.9-10.6-4.9-25.5-2-28.5
	c2.9-3,6.4-12.6,6.4-12.6c6.2-2.1,15.8-9.1,22.6-14.6h47.8c10.3,7,23.8,15.1,23.8,15.1c0.8,2,3.8,9.5,6.2,12.1
	c2.9,3-2.9,17.9-2,28.5c0.9,10.6,6.6,20,6.3,26.6c0,0,0,2.7-1.6,6.9s-4,11.6-3.9,16.4c0.1,4.9-1.1,7.6,0.6,9.3c1.7,1.7,2.4,4,15.2,4
	s13.7-0.4,12.9-3.9c-0.5-2-2.3-4.3-3.7-5.9c-1.3-1.5-2.2-3.3-2.7-5.3c-0.9-4-2.4-10.5-3-11.5c0,0,11.2-28.6,11.2-51.1
	s1.7-30.5-1.4-34.6c0,0-0.5-2.7-1.6-6.6h27.2l0.1,0.8c0,0,1.7,3.1,2.3,3.4c0.6,0.4,10.9,0.2,14.7,0c3.8-0.2,5.4-3.5,5.4-3.5h25.6
	c0,0,0.9,41,7.3,47h9.1l0.9-0.9l1,1h11l0.8-0.8l0.8,0.8H449c3.6-3.3,2.6-39.8,2.6-39.8h4.1v-8h25.8v-8.6H455.5z M243.5,273.9
	c5.6-1.1,18.9,0.6,20.6,4.9c0.1,0.2,0.2,0.4,0.3,0.6h-27.8C238.3,277,239.2,274.8,243.5,273.9z M145.2,279.4
	c0.1-0.7,0.2-1.1,0.2-1.1l-0.3-7c0.9-4.3,11-20,20.7-30.6c9.7-10.6,9.3-15.3,9.3-15.3s-0.3-1,12.2-8.9C199.7,208.6,209,199,209,199
	l6,12c0,0,2.1,11.9,0.4,13.6c-1.7,1.7-3.7,5.1-5.7,6.1s-0.3,2.4-5.7,7.6c-5.4,5.1-26.2,25.2-29.9,34.5c-0.8,2.1-1.5,4.3-1.9,6.6
	H145.2z M328.9,279.4c-2-6.1-4.7-12.6-8-17c-7.6-10.2-28.2-23.3-28.2-23.3s-2.4-4.4-4.7-7.1c-2.3-2.7-2.7-4.7-3.4-9.2
	c-0.7-4.4,0.6-8.2,0.6-8.2c6.3-10.2,8.9-18,8.9-18c4.6,5.6,31.5,26.7,31.5,26.7s5.7,10.6,9.7,16c4,5.4,18.7,21.9,20.2,24.3
	c1.4,2.4,2.3,14.7,2.3,14.7l0.1,1H328.9z"/>
</svg>
