<?xml version="1.0" encoding="utf-8"?>
<!-- Generator: Adobe Illustrator 26.3.1, SVG Export Plug-In . SVG Version: 6.00 Build 0)  -->
<svg version="1.1" id="Weightlifting" xmlns="http://www.w3.org/2000/svg" xmlns:xlink="http://www.w3.org/1999/xlink" x="0px"
	 y="0px" viewBox="0 0 500 500" style="enable-background:new 0 0 500 500;" xml:space="preserve">
<path id="Weightlifting_2" d="M482.5,166.9h-24.7v-5.2h-3.3c0,0,2.6-32.8-11.9-42.1h-43.3c0,0-13.4,9.8-13.4,46.4h-42
	c0,0-1.8-5.2-3.6-5.4c-1.7-0.2-2.9-0.2-3.2-0.5c-0.3-0.2-0.9-1.5-1.8-1.6c-0.9-0.1-2,0.2-3-0.6c-1-0.8-3.1-0.7-3.8-0.6
	s-1.4-0.1-2.4-0.1c-1,0-1.8,2.1-3.9,3c-2.1,0.9-5.6,1.3-6,5.5h-36.7c0,0-13.7-3.5-33.5-3.2c0,0-0.6-1.3,0.1-2.2
	c0.7-0.9,4.3-6.8,4.1-9.1c-0.2-2.3-3.3-3-3.3-3s0-14.4-1.5-20c-1.5-5.6-9.1-12.7-10.7-12.4c-1.6,0.2-2.8,1.1-4,0
	c-1.3-1.1-3.3-2.4-5.8-1.8s-3.3,2.2-6.1,2.6c-2.8,0.5-11.1,2.6-12.7,5.3c-1.6,2.6-4,7.1-4.1,10.5c-0.1,3.3-0.7,7.7,0,11.5
	c0.7,3.8,5,20.2,5,20.2v1h-41.9c0,0-1.7-7.4-5.4-8.2c-3.7-0.8-3.9,0.2-5.2-0.1c-1.3-0.3-3.2-1.3-4.7-0.1c-1.5,1.2-7,4-6.9,5.4
	c0.1,1.4,0.2,2.4,0.2,2.4h-31.8c0,0-0.2-40.7-21.2-45.8l-40.5,0.9c0,0-18.4,7.4-17.7,44.5H18.1c0,0-1.6,2.4-1.6,5.6s1.6,5.1,1.6,5.1
	h13.6c0,0-1,29.8,18.1,41.5h45.5c0,0,16.1-10.6,16.1-34.3v-11.2h32.2c0,0-1.5,2.8-1.5,7.3s3.6,6.3,4.5,7.8c0.9,1.5,2.4,2.1,3.7,2.1
	c0,0,15.3,15.5,23.4,19.1c8.1,3.6,19.1,6.1,21.1,7.5c2,1.4,4.4,0.9,6-0.5c1.6-1.4,2.2-1.3,2.2-1.3s0,5.5,4.4,9.1
	c4.4,3.6,11.2,12.4,10.9,13.8c-0.2,1.4-0.6,0.5-3.6,0c-3-0.5-9.4-2-11.1-1.2c-1.6,0.8-3.9,3.7-5.1,3.7s-16.9,9.4-18.7,9.8
	c-1.7,0.3-2.8,0.2-4.1,2.9c-1.4,2.6-3.3,2.3-4,4.6c-0.7,2.3,0.2,2.5-2.5,5c-2.8,2.4-5.9,4.5-5.9,13.1s1.7,10.2,1.4,13.2
	c-0.3,3,3.7,9.8,4.8,16.1c1.2,6.3,11.9,25.6,17.3,33.4c0,0,0.6,2.1,0.6,3.3c0,1.3-0.3,2.5,0.1,4c0.5,1.5,1.5,2.4,0.5,3.5
	c-1,1-1.6,4.4-3,6.2c-1.4,1.8-0.6,3.6-4.4,6.6c-3.8,3-6.1,5.9-11.4,7.7c-5.3,1.8-5.1,5.9-5.1,5.9s0.2,4.8,9.4,4.8s21.1-4.4,26.3-5.2
	c5.2-0.8,16-0.7,17.4-4c1.4-3.3,0.2-12-0.1-13c-0.3-1-3.9-11.3-4.8-11.6c-0.9-0.3-3.2-0.1-3.6-0.8c-0.3-0.7-6.8-17.7-6.8-20.8
	c0-3.1,1-14.5-1-23.3c-2.1-8.8-7.8-17.8-7.8-17.8s15.3,2.6,25.2,1.4c9.9-1.3,29.2-9.6,32.6-8.8c3.3,0.8,10.9,0.5,13.6,0
	c2.6-0.5,5.5-1,7-0.1c1.5,0.9,7.3,5.3,7.8,8.3c0.6,3,5.4,6.1,7.3,7.1c1.8,1,4.6,1.5,4.3,4c-0.3,2.5-1.4,10.8,0,14.7
	c1.5,3.9,8.3,38.5,7.5,41.6c-0.8,3.1-3,7.9-2.6,9.8c0.3,1.8,3.1,5.6,2.7,9.2c-0.4,3.6,1.9,3.9,3.8,6.3c2,2.4,3.3,9.8,12.7,10
	c9.3,0.2,12.6-2.1,12.3-6c-0.2-3.9-4.5-6.2-5.5-9.2c-1-3-4.3-11.4-4.5-13.6c-0.2-2.2-0.8-5.9-2.1-6.6c-1.3-0.7-2.6,1-2.5-1.5
	c0.1-2.5,6.2-29.4,6.4-41.1c0.2-11.7-1.2-21.5-3.1-25.6c-2-4-1.7-12.5-0.6-14.4c1-1.9,1-9.7-0.3-13.1c-1.4-3.5-4.1-8.3-4.8-14.5
	c-0.7-6.2-4-15-8.3-18c-4.3-2.9-12.6-8.3-12.6-8.3l1.6-3.6c0,0,17.1,14.5,21.9,14.5s17.1-0.5,22.3-14.7c5.2-14.2,4.1-23.3,5.5-26.3
	c1.4-2.9,3.5-11.7,3.5-11.7h42.1c0,0-2.4,43.2,13.3,51.1h43.2c0,0,11.6-6.6,11.9-40.3h3.3v-5h24.7
	C484.1,174.1,484.1,170.5,482.5,166.9z M182.5,185.2c-1.8,0.3-8.7-0.1-11.6-1s-9.7-4.8-10.3-5.3c-0.6-0.5-0.7-1.8-0.3-2.5
	c0.4-0.7,3.2-4.7,3.2-4.7h24.7c0,0-4.3,7.1-4.3,12.3C184,184,184.3,184.8,182.5,185.2z M320.2,190.6c-3.8,1.9-7,3.7-7,3.7
	s-5.2-1.3-6.9-1.4c-1.7-0.2-1.8-2.5-3.5-2.8c-1.7-0.2-1.6-0.6-1.8-2.7c-0.3-2.1-5.4-13.1-11.2-15.1h26.4c0,0,2.6,3.4,4.8,5.1
	c2.2,1.7,4.1,4.1,4.1,5.6S324,188.7,320.2,190.6z"/>
</svg>
