<?xml version="1.0" encoding="utf-8"?>
<!-- Generator: Adobe Illustrator 26.3.1, SVG Export Plug-In . SVG Version: 6.00 Build 0)  -->
<svg version="1.1" id="Weightlifting" xmlns="http://www.w3.org/2000/svg" xmlns:xlink="http://www.w3.org/1999/xlink" x="0px"
	 y="0px" viewBox="0 0 500 500" style="enable-background:new 0 0 500 500;" xml:space="preserve">
<path id="Weightlifting_3" d="M443.6,72.9v-4.2h-12.5c-2.5-30.6-8.3-39-8.3-39h-8.8l-0.9,0.9l-1.2-0.9h-8.4l-1.8,0.6l-1-0.6h-7.9
	c-6.9,5.2-6.8,42.5-6.8,42.5l-2.3-0.1c-2.7-2.7-3.4-0.3-7.1-2.5c-3.8-2.2-2.3,0-7.9,0.3c-5.6,0.3-7.5,5.8-7.5,5.8l-225.4,1.6
	c0,0-0.3-5.5-3-5.5s-4.5,0.6-4.5,0.6c-3-2.8-5.4-1-5.4-1c-2.7-1.6-5.4,1.1-5.4,1.1c-3.7-0.2-4.9,2.4-4.9,2.4h-1.3
	c0,0,0.8-36.1-8.1-40.5c0,0-5.2-1.9-9.1,0L92.3,35c0,0-5.8-2.9-10.3-0.1c0,0-6-3.6-10.1,0.9c-4.2,4.5-6.5,22.6-6.5,37.8H52.8v4.2
	H19.4v9.9h33.4v4h12.5c0,0,3,33,6.9,35.6c3.9,2.6,9.1,2.6,10.4,0c0,0,3.8,3.9,11.4,0.4c0,0,9,2.5,12.1-0.8
	c3.1-3.2,5.1-19.9,5.1-33.2c0,0,31.4,29.4,35.3,32.3c3.9,2.9,15.6,4.7,23.8,12.7c8.2,8,23.4,18.3,26.5,19.3c3.1,1,6,3.1,7.8,4.9
	c1.8,1.8,1.4,8,1.6,10.9c0.2,2.9,3.7,12.1,4.3,19.3c0.6,7.2,6.2,19.9,8,26.1c1.8,6.2,3.5,25.5,2.9,30.6c-0.6,5-14.8,43.9-14.8,57.1
	c0,13.2,1,22.2,1.9,36c1,13.8-5.8,27.5-6.6,38.4c-0.8,10.9,2.9,43,3.7,50.3c0.8,7.2,0.8,6-2.3,10.1c-3.1,4.1-2.9,6.2-3.3,9.4
	c-0.4,3.1-8,12.9-8.2,14c-0.2,1.2-0.8,4.5,9.4,4.5c10.1,0,13.8-4.5,19.5-9.2c5.6-4.7,3.1-7.4,3.3-11.3c0.2-3.9-4.1-7-3.9-13.4
	s7-30.2,10.3-37.6c3.3-7.4,2.9-10.5,2.5-20.6c-0.4-10.1,1.6-12.5,4.3-18.5s19.1-46.9,19.1-46.9s3.1,6,4.5,8.4
	c1.4,2.3,5.5,11.7,6,19.3c0.6,7.6,4.1,19.3,8.2,26.5c4.1,7.2,3.5,16,3.1,22.4c-0.4,6.4,11.9,40.9,11.9,47.3s-2.7,10.5-1.8,13.1
	s1.9,18.9,11.7,19.7c9.7,0.8,19.9-1.9,19.7-4.7c-0.2-2.7-2.7-7.2-4.7-9.2c-1.9-1.9-2.7-5.1-3.3-7.8c-0.6-2.7-4.7-4.5-6.8-7
	c-2.1-2.5,4.9-42.7,4.9-51c0-8.4-4.3-19.5-6.2-28.1s0.6-24.2,0.6-42.3c0-18.1-4.9-43.4-7.2-54.7c-2.3-11.3-4.1-18.7-4.1-31.9
	c0-13.2,5.1-34.9,7.4-44.6c2.3-9.7,3.5-23.4,3.5-23.4c13.8-7,24.3-19.9,26.3-23.2c1.9-3.3,8.2-12.5,14.8-14.6
	c6.6-2.1,24.5-15,28.2-20.8c3.7-5.8,13.4-15,13.4-15s2.1,31.2,4.7,34.5c2.5,3.3,10.3,0.4,10.3,0.4c3.5,4.1,11.7-0.2,11.7-0.2
	s7.8,1.4,11.6,0.1c3.8-1.3,7.1-37.5,7.1-37.5h11.7v-4.7H481v-9.7H443.6z M357.9,95c-3.5,2.4-7.3,3.4-13.7,5.8
	c-6.4,2.4-9.4,4.5-13,7.3c-3.5,2.8-4.9,7.3-13.8,10.8c-9,3.5-10.3,6.8-12.8,9c-2.4,2.1-4.4,3.3-11.6,4c-7.2,0.7-14.2,7.1-16.1,7
	c-1.9-0.1-6.5-2.8-7.6-3.7c-1.1-0.9-1.7-4.7-1-6c0.7-1.4,3.9-5.8,3.5-10.6c-0.4-4.8-1.8-4.3-1.8-4.3c-1.3-9-5.7-20.3-19.9-20.3
	c-23.5,0-19.9,25.2-19.9,25.2c-1.5,0.5-1.4,2-1.4,2c0.2,4.4,4,11.5,4.5,13.5c0.5,2-0.8,2.4-2.1,2.2c-1.4-0.2-5.6-2.2-5.6-2.2
	c-9.7-3.9-24.9-3.3-26.7-3.9c-1.8-0.6-7.4-5.5-14.8-8c-7.4-2.5-11.3-8.2-15.6-12.3c-4.3-4.1-18.7-8.2-24.9-10.5
	c-6.2-2.3-13.1-10.1-13.1-10.1c2.1-1,4.1-6.6,4.1-6.6h226.4c0.4,1.7,6.1,3.5,6.1,4.3C367.2,88.5,361.4,92.6,357.9,95z"/>
</svg>
