<?xml version="1.0" standalone="no"?>
<!DOCTYPE svg PUBLIC "-//W3C//DTD SVG 20010904//EN"
 "http://www.w3.org/TR/2001/REC-SVG-20010904/DTD/svg10.dtd">
<svg version="1.0" xmlns="http://www.w3.org/2000/svg"
 width="3000.000000pt" height="3000.000000pt" viewBox="0 0 3000.000000 3000.000000"
 preserveAspectRatio="xMidYMid meet">

<g transform="translate(0.000000,3000.000000) scale(0.100000,-0.100000)"
fill="#000000" stroke="none">
<path d="M4943 19626 c-89 -22 -163 -65 -237 -140 -114 -114 -169 -252 -182
-461 -8 -117 3 -106 -109 -120 -68 -9 -392 -88 -489 -120 -112 -37 -274 -107
-354 -154 -269 -157 -475 -424 -586 -761 -95 -286 -100 -532 -16 -782 62 -184
170 -364 414 -691 l118 -158 120 -60 c145 -71 267 -143 318 -186 68 -59 154
-183 230 -336 87 -175 108 -197 168 -179 21 6 56 27 79 47 53 45 92 46 173 3
83 -43 146 -45 188 -5 l30 28 21 -30 c26 -36 45 -38 86 -11 44 29 80 25 234
-26 152 -51 181 -53 242 -11 52 35 104 111 175 255 52 104 72 136 92 144 34
13 279 4 457 -17 262 -31 637 -105 665 -131 13 -13 15 -68 16 -362 1 -201 7
-379 13 -422 17 -109 54 -243 95 -342 65 -156 79 -223 79 -403 1 -88 -6 -239
-16 -335 -9 -96 -21 -258 -27 -360 -17 -283 -48 -475 -114 -702 l-17 -57 -62
-5 c-77 -7 -753 -34 -1062 -42 -247 -7 -469 5 -570 31 -94 24 -181 72 -244
134 -63 61 -103 131 -152 264 -80 220 -132 249 -237 131 l-47 -54 -106 9
c-108 9 -190 2 -231 -20 -90 -47 -202 -167 -257 -276 -17 -35 -28 -44 -73 -58
-87 -29 -141 -61 -185 -108 -58 -63 -75 -102 -81 -182 -4 -52 -11 -80 -30
-108 -33 -49 -31 -88 7 -136 38 -47 38 -63 5 -135 -21 -46 -25 -66 -20 -104 3
-26 10 -85 14 -131 8 -76 12 -87 38 -108 65 -52 241 -83 481 -83 103 0 140 4
167 17 33 15 40 15 133 -5 158 -35 230 -44 372 -44 153 0 176 -5 475 -100 218
-68 785 -213 986 -252 74 -14 236 -37 360 -51 124 -14 361 -48 525 -75 389
-66 559 -84 663 -71 93 12 118 20 161 56 61 52 73 90 127 416 l28 166 83 10
c46 6 86 13 89 16 9 9 115 462 199 852 140 651 201 972 266 1393 18 121 24
142 38 138 52 -16 208 -28 287 -22 217 15 310 50 489 182 130 97 258 168 323
180 20 4 90 -2 166 -15 148 -24 359 -49 716 -85 327 -33 465 -43 780 -56 419
-17 601 -42 845 -116 209 -63 233 -67 465 -69 232 -3 283 -6 490 -36 336 -48
693 -118 1065 -209 310 -77 517 -140 920 -282 537 -190 825 -266 1327 -353
591 -101 1178 -156 1818 -171 361 -8 853 11 1350 51 177 15 280 26 573 61 133
16 208 14 402 -7 184 -20 393 -69 925 -214 456 -124 562 -146 920 -190 303
-37 489 -78 874 -190 l58 -17 49 -102 c77 -163 94 -240 94 -436 0 -208 -17
-275 -120 -487 -41 -84 -80 -173 -86 -198 -33 -130 53 -211 275 -260 62 -14
107 -16 220 -12 123 4 158 10 271 41 142 40 268 97 329 147 129 108 238 379
266 662 7 70 15 127 19 127 3 0 77 -32 165 -72 l158 -72 -70 -17 c-84 -21
-108 -35 -123 -70 -9 -22 -7 -35 6 -64 33 -67 204 -218 435 -382 182 -130 247
-209 276 -340 22 -99 15 -204 -25 -383 -68 -300 -30 -371 214 -400 128 -15
522 7 692 40 204 38 343 158 462 396 87 177 126 348 118 524 -8 179 -56 322
-186 560 -102 184 -139 262 -156 327 -19 74 -19 207 1 336 18 117 20 310 4
382 -45 206 -148 390 -263 469 -68 47 -144 73 -256 87 l-86 11 -399 -106
c-220 -58 -401 -104 -403 -102 -3 2 3 39 12 81 20 97 22 207 5 263 -26 85
-111 152 -245 195 -89 29 -217 36 -425 25 -754 -39 -1111 57 -2355 632 -817
378 -1290 550 -1666 604 -132 20 -304 20 -792 1 -416 -16 -612 -10 -836 24
-246 38 -621 128 -1136 273 -137 38 -475 128 -750 198 -722 186 -1018 278
-1252 391 -57 27 -212 122 -345 212 -581 389 -920 552 -1288 619 -150 27 -428
29 -609 4 -212 -29 -452 -84 -656 -151 -274 -90 -684 -113 -1105 -63 -124 15
-279 32 -345 38 -485 45 -617 79 -1185 312 -424 174 -682 254 -1075 333 -221
44 -679 120 -845 140 -421 50 -1093 45 -1305 -10 -33 -9 -109 -39 -170 -68
l-110 -52 -105 1 c-246 1 -519 91 -705 232 -150 114 -142 102 -154 227 -14
144 -31 209 -90 330 -54 112 -111 189 -212 285 l-69 65 71 95 c277 375 288
598 42 846 -208 209 -494 320 -700 270z"/>
</g>
</svg>
