<?xml version="1.0" standalone="no"?>
<!DOCTYPE svg PUBLIC "-//W3C//DTD SVG 20010904//EN"
 "http://www.w3.org/TR/2001/REC-SVG-20010904/DTD/svg10.dtd">
<svg version="1.0" xmlns="http://www.w3.org/2000/svg"
 width="1024.000000pt" height="1024.000000pt" viewBox="0 0 1024.000000 1024.000000"
 preserveAspectRatio="xMidYMid meet">

<g transform="translate(0.000000,1024.000000) scale(0.100000,-0.100000)"
fill="#000000" stroke="none">
<path d="M5005 9014 c-75 -11 -206 -79 -252 -132 -32 -37 -73 -168 -73 -232 0
-30 7 -87 15 -125 19 -90 19 -95 -4 -95 -26 0 -32 -32 -20 -98 18 -95 58 -172
89 -172 11 0 30 -98 30 -153 -1 -81 -18 -139 -53 -174 l-31 -33 -569 0 -569 0
-46 38 c-26 20 -55 47 -65 60 -20 24 -65 30 -84 11 -8 -8 -17 -7 -34 5 -31 21
-52 20 -73 -3 -14 -16 -22 -17 -46 -8 -26 10 -33 8 -54 -12 -17 -16 -32 -22
-47 -18 -24 6 -69 -31 -69 -58 0 -13 -29 -15 -224 -15 -195 0 -225 2 -230 16
-3 9 -6 55 -6 102 0 139 -43 441 -72 510 -27 62 -26 62 -209 62 -195 0 -199
-2 -220 -96 l-12 -54 -76 0 c-78 -1 -101 -9 -115 -45 -11 -28 -35 -210 -36
-267 0 -43 -2 -47 -29 -53 -40 -9 -51 -24 -58 -84 l-6 -51 -332 0 c-293 0
-334 -2 -346 -16 -18 -22 -24 -134 -9 -178 8 -25 19 -38 37 -42 14 -4 164 -3
334 1 254 5 310 4 312 -7 23 -86 33 -103 60 -106 15 -2 27 -6 27 -10 1 -22 30
-267 35 -296 11 -54 30 -65 125 -68 l85 -3 6 -35 c10 -54 26 -88 48 -99 21
-12 289 -15 328 -5 60 16 110 227 122 519 l6 150 205 0 205 0 5 -55 c3 -30 13
-69 23 -87 10 -19 17 -54 17 -89 0 -31 11 -107 24 -168 33 -149 34 -154 51
-290 24 -185 57 -292 140 -453 19 -38 40 -90 47 -118 16 -64 43 -104 82 -120
46 -19 176 -29 220 -17 36 10 273 140 385 210 70 45 123 93 168 155 20 27 38
46 39 41 14 -54 57 -181 74 -219 34 -75 68 -200 81 -301 9 -72 9 -109 -2 -175
-14 -94 -16 -165 -4 -254 7 -58 6 -64 -34 -142 -43 -85 -81 -215 -106 -363
-29 -178 -56 -326 -60 -339 -33 -91 -91 -477 -101 -670 -8 -148 2 -244 43
-411 53 -219 55 -234 48 -413 -6 -156 -9 -177 -42 -280 -89 -281 -85 -487 23
-1132 14 -82 31 -198 38 -257 l12 -106 -32 -35 c-24 -26 -34 -48 -39 -84 -13
-109 -64 -214 -151 -312 -86 -97 -107 -140 -108 -220 -1 -61 0 -65 29 -82 19
-11 70 -22 136 -29 129 -13 241 0 316 36 54 26 56 29 65 114 2 20 10 26 43 32
89 18 128 92 90 172 -15 32 -17 54 -11 161 8 126 2 159 -30 178 -11 6 -14 41
-14 146 0 178 38 451 86 616 70 240 78 325 49 535 -25 183 -26 179 87 500 24
70 42 146 67 291 25 139 63 249 176 504 42 94 96 284 115 403 10 59 15 72 30
72 15 0 21 -13 30 -57 30 -150 84 -325 135 -438 13 -27 37 -86 55 -130 18 -44
39 -96 48 -115 8 -19 19 -48 23 -65 29 -115 39 -160 53 -238 9 -48 48 -183 87
-300 l71 -212 -6 -100 c-3 -55 -10 -152 -16 -215 -7 -63 -9 -142 -6 -175 7
-59 33 -161 47 -180 15 -21 50 -187 71 -340 16 -111 23 -209 23 -320 0 -153
-1 -162 -24 -190 -22 -29 -23 -34 -16 -160 5 -107 4 -137 -9 -167 -9 -21 -16
-55 -16 -77 0 -33 6 -44 37 -70 20 -16 53 -33 75 -36 35 -6 38 -10 38 -38 0
-50 21 -79 75 -106 43 -21 67 -25 170 -29 139 -5 248 9 277 35 17 15 20 27 15
79 -6 79 -32 131 -112 223 -85 97 -123 178 -135 284 -9 77 -11 84 -46 114
l-37 32 12 98 c6 54 15 121 20 148 4 28 22 133 39 235 93 552 94 733 8 1010
-22 69 -29 118 -38 266 -11 193 -12 181 40 389 38 148 56 320 47 440 -10 144
-35 376 -45 420 -4 22 -14 67 -20 100 -6 33 -21 96 -31 140 -11 44 -38 186
-60 315 -43 260 -64 338 -115 421 -36 60 -42 107 -25 197 5 27 3 82 -5 150
-13 99 -13 115 6 226 11 66 39 172 61 236 22 63 50 144 61 180 11 36 22 72 25
80 4 11 9 9 21 -10 9 -14 45 -54 81 -90 59 -59 136 -110 281 -189 25 -13 75
-41 111 -61 84 -47 160 -62 250 -46 92 16 113 32 140 113 12 37 46 118 74 178
71 147 89 202 114 325 39 201 50 256 70 350 11 52 25 135 31 184 6 49 15 97
21 107 5 10 12 45 16 79 l6 60 201 -2 201 -3 2 -50 c15 -322 61 -552 120 -604
23 -20 34 -22 71 -17 25 3 98 6 162 6 l118 0 18 38 c9 20 20 51 24 67 l6 30
89 5 c87 5 90 6 104 34 14 31 41 187 41 246 0 60 10 81 41 87 29 5 44 33 51
93 l3 25 312 -4 c172 -2 323 -1 337 3 17 4 28 17 36 42 15 44 9 156 -9 178
-12 14 -53 16 -347 16 l-334 0 0 30 c0 48 -26 100 -49 100 -29 0 -38 24 -46
130 -8 114 -22 187 -41 218 -13 20 -22 22 -98 22 l-84 0 -12 52 c-6 29 -20 63
-32 75 -21 22 -28 23 -189 23 l-168 0 -19 -27 c-43 -63 -86 -299 -99 -535 l-6
-128 -229 0 -228 0 0 23 c0 31 -32 59 -63 55 -14 -1 -34 5 -46 16 -15 14 -29
17 -57 13 -25 -4 -41 -2 -51 8 -19 20 -67 19 -83 0 -9 -11 -16 -13 -24 -5 -20
20 -57 9 -110 -32 -30 -24 -57 -51 -61 -60 -6 -17 -43 -18 -578 -18 l-572 0
-37 25 c-46 31 -62 76 -62 180 0 96 17 161 43 170 19 6 41 50 67 135 20 66 18
105 -7 121 -20 14 -20 18 -10 92 6 43 11 98 11 121 0 94 -66 219 -146 278 -87
63 -243 105 -339 92z m-585 -1384 c-15 -11 -50 -19 -99 -23 -95 -8 -160 -30
-232 -78 -94 -63 -177 -175 -224 -302 -14 -38 -33 -61 -89 -106 -72 -59 -143
-131 -165 -167 -11 -18 -12 -18 -29 6 -9 13 -34 44 -55 69 -21 24 -45 54 -53
66 -20 30 -101 246 -120 319 -18 71 -12 81 76 120 58 26 110 74 110 102 0 12
69 14 443 16 243 2 446 1 451 -1 5 -2 -2 -12 -14 -21z m2210 6 c0 -28 45 -69
113 -102 94 -45 99 -51 91 -88 -9 -44 -114 -327 -129 -349 -7 -9 -41 -51 -75
-92 l-64 -74 -19 32 c-10 18 -65 77 -122 132 -85 83 -110 114 -143 180 -49 98
-100 167 -171 230 -76 66 -144 95 -239 102 -67 5 -132 24 -132 38 0 3 200 5
445 5 369 0 445 -2 445 -14z"/>
</g>
</svg>
