<?xml version="1.0" standalone="no"?>
<!DOCTYPE svg PUBLIC "-//W3C//DTD SVG 20010904//EN"
 "http://www.w3.org/TR/2001/REC-SVG-20010904/DTD/svg10.dtd">
<svg version="1.0" xmlns="http://www.w3.org/2000/svg"
 width="469.000000pt" height="466.000000pt" viewBox="0 0 469.000000 466.000000"
 preserveAspectRatio="xMidYMid meet">

<g transform="translate(0.000000,466.000000) scale(0.100000,-0.100000)"
fill="#000000" stroke="none">
<path d="M1895 4278 c-218 -104 -325 -180 -365 -259 -38 -74 -14 -195 56 -282
18 -23 54 -81 78 -128 52 -100 88 -135 195 -189 l78 -39 6 -58 c10 -99 34
-156 120 -282 149 -221 145 -206 93 -383 -18 -63 -37 -135 -41 -159 -5 -31
-25 -68 -70 -129 -125 -171 -199 -299 -228 -397 -8 -28 -18 -93 -22 -145 -11
-172 -24 -227 -76 -333 -95 -195 -182 -497 -210 -728 -22 -183 -75 -341 -133
-396 -12 -11 -39 -26 -61 -33 -49 -16 -56 -40 -19 -65 21 -14 48 -18 109 -18
114 0 127 6 154 64 13 27 33 53 45 59 41 18 85 63 91 92 4 18 0 50 -10 81 -21
62 -12 106 45 225 28 58 61 105 113 160 41 44 80 90 87 104 25 46 40 125 46
235 5 96 10 115 32 148 39 59 143 135 235 173 102 42 153 93 217 219 l45 88 8
-39 c18 -91 31 -119 71 -163 62 -67 151 -199 174 -256 34 -88 35 -117 7 -155
-13 -18 -38 -66 -55 -106 -37 -90 -42 -192 -11 -252 35 -69 51 -154 51 -273
-1 -80 -5 -121 -15 -139 -8 -14 -14 -41 -15 -61 0 -19 -7 -60 -16 -89 l-16
-54 26 -23 c25 -21 34 -22 185 -21 87 0 164 -3 170 -7 21 -12 91 6 102 27 16
30 -6 46 -90 64 -117 24 -149 57 -158 162 -5 63 -3 74 32 152 67 153 88 254
106 525 24 348 23 336 53 399 29 58 29 63 27 210 -2 175 -15 239 -71 342 -104
196 -139 388 -113 631 14 131 17 138 119 278 47 64 89 156 117 254 l21 77 61
22 c201 75 216 85 274 171 50 74 121 236 121 277 0 51 -115 184 -230 266 -227
161 -189 143 -304 143 -133 0 -178 -14 -216 -67 -31 -42 -38 -85 -20 -119 6
-10 15 -19 21 -19 6 0 26 -7 45 -16 33 -16 38 -15 77 1 23 10 49 27 59 37 21
24 26 23 80 -11 51 -32 118 -122 118 -158 0 -21 -5 -23 -45 -23 -53 0 -102
-18 -129 -49 -15 -17 -31 -21 -75 -21 -82 0 -127 -16 -172 -61 -38 -38 -43
-40 -82 -34 -23 4 -47 11 -53 16 -14 12 -6 51 12 62 30 17 50 147 24 147 -4 0
-9 29 -12 64 -3 48 -10 74 -32 106 -63 96 -220 108 -308 23 -36 -34 -45 -67
-52 -188 -5 -77 -3 -106 8 -127 8 -15 17 -40 21 -57 5 -24 2 -32 -15 -41 -18
-9 -27 -6 -62 25 -46 38 -119 65 -180 65 -28 0 -50 8 -76 29 -46 36 -101 54
-162 52 l-47 -1 17 64 c23 83 42 118 82 151 51 43 78 53 89 32 6 -9 19 -17 30
-17 11 0 33 -10 49 -21 22 -17 37 -20 67 -16 21 4 44 14 50 24 18 24 17 128
-1 146 -22 22 -103 44 -186 51 -73 6 -77 6 -165 -36z"/>
</g>
</svg>
