<?xml version="1.0" standalone="no"?>
<!DOCTYPE svg PUBLIC "-//W3C//DTD SVG 20010904//EN"
 "http://www.w3.org/TR/2001/REC-SVG-20010904/DTD/svg10.dtd">
<svg version="1.0" xmlns="http://www.w3.org/2000/svg"
 width="1024.000000pt" height="1024.000000pt" viewBox="0 0 1024.000000 1024.000000"
 preserveAspectRatio="xMidYMid meet">

<g transform="translate(0.000000,1024.000000) scale(0.100000,-0.100000)"
fill="#000000" stroke="none">
<path d="M5106 9329 c-243 -37 -389 -132 -471 -306 -20 -43 -40 -84 -44 -92
-4 -8 -20 -15 -35 -17 -15 -2 -36 -9 -45 -17 -9 -8 -41 -25 -71 -39 -126 -58
-201 -169 -268 -398 -42 -142 -50 -197 -67 -465 -16 -257 -32 -346 -100 -551
-54 -165 -86 -222 -166 -299 -58 -56 -66 -80 -19 -55 49 26 29 -6 -60 -95 -52
-52 -88 -95 -80 -95 9 0 26 7 38 16 39 27 23 -4 -54 -106 -43 -55 -75 -102
-73 -105 3 -2 26 14 52 36 26 22 47 37 47 33 0 -9 -81 -118 -92 -122 -4 -2 -8
-10 -8 -18 0 -11 9 -8 37 10 20 14 39 24 41 22 2 -2 -13 -36 -32 -74 -20 -39
-45 -99 -57 -134 -12 -35 -32 -76 -44 -93 -31 -41 -75 -168 -75 -214 0 -20
-11 -59 -25 -87 -13 -27 -40 -95 -60 -152 -70 -205 -71 -205 -320 -360 -83
-51 -173 -114 -201 -141 -51 -46 -83 -69 -234 -166 -357 -229 -549 -574 -526
-943 12 -198 62 -315 191 -447 44 -46 108 -102 141 -124 75 -50 192 -111 214
-111 9 0 20 -4 26 -9 15 -15 183 -52 284 -63 111 -12 387 -4 587 17 183 20
272 20 279 0 4 -8 -26 -63 -71 -131 -235 -358 -286 -552 -391 -1479 -19 -175
-21 -190 -34 -263 -8 -47 -8 -72 1 -96 9 -26 8 -46 -5 -105 -28 -125 -36 -137
-90 -143 -55 -7 -82 -28 -96 -77 -17 -59 -59 -272 -66 -335 -4 -35 -21 -87
-41 -128 -52 -108 -43 -170 32 -210 66 -36 132 -51 365 -84 63 -9 155 -30 205
-46 107 -35 292 -60 390 -53 271 21 461 59 582 116 35 17 44 27 49 56 17 88
-44 171 -174 235 -48 23 -91 46 -97 51 -5 4 -31 22 -56 40 -145 101 -267 200
-329 268 -19 21 -46 67 -59 101 -44 116 -59 146 -81 168 -18 18 -20 28 -15 63
4 23 11 47 15 52 4 6 10 38 13 73 7 61 14 89 62 242 24 76 108 259 280 605 52
105 115 242 141 305 65 162 116 265 204 415 137 231 157 269 190 355 19 47 34
86 35 87 1 1 50 12 111 24 87 17 134 20 232 17 73 -3 128 -10 134 -16 7 -7 25
-12 40 -12 34 0 34 -1 5 -48 -51 -80 -127 -231 -160 -317 -83 -212 -105 -326
-116 -580 -5 -110 -14 -231 -21 -270 -19 -113 -90 -487 -99 -528 -5 -21 -7
-45 -5 -55 3 -9 -8 -55 -24 -102 l-28 -85 -52 -6 c-29 -4 -61 -14 -71 -23 -24
-22 -81 -277 -81 -363 0 -16 -20 -69 -45 -119 -50 -101 -53 -116 -25 -161 49
-81 183 -108 520 -105 223 1 258 -1 410 -25 230 -38 406 -38 575 0 66 16 149
42 185 60 56 28 67 37 79 73 18 52 8 106 -27 145 -30 33 -128 73 -269 110 -55
15 -104 35 -132 56 -25 18 -77 53 -116 79 -38 26 -79 56 -90 67 -11 10 -47 39
-80 65 -84 63 -165 154 -165 183 0 8 -9 29 -20 47 -11 18 -20 40 -20 50 0 22
32 119 118 367 89 254 148 394 219 520 61 106 74 132 120 235 169 373 193 439
264 735 43 178 51 343 20 443 -31 102 -123 225 -229 304 -161 120 -654 264
-1207 353 -290 47 -400 67 -409 76 -13 11 27 54 79 84 22 13 72 29 110 36 223
38 315 115 493 409 11 19 39 53 61 74 26 26 42 51 46 75 9 51 20 62 125 126
124 74 192 152 235 270 10 28 20 52 21 54 2 1 47 -15 101 -37 190 -78 481
-157 549 -149 34 3 63 21 154 93 61 49 117 93 124 98 7 5 43 -7 96 -32 212
-99 430 -164 595 -177 70 -5 84 -4 112 14 18 11 42 40 54 63 12 24 48 84 80
135 140 219 214 416 329 873 71 283 99 381 115 407 8 12 35 41 61 65 46 43
132 158 173 231 29 52 27 98 -6 137 -21 25 -24 36 -16 49 21 34 25 79 8 110
-8 17 -20 31 -25 31 -6 0 -7 19 -4 44 6 39 3 48 -19 70 -15 14 -38 26 -52 26
-20 0 -25 5 -25 23 0 48 -62 93 -105 77 -22 -9 -27 -7 -35 15 -21 56 -96 69
-151 26 -13 -10 -37 -21 -54 -24 -61 -11 -120 -28 -132 -39 -7 -5 -33 -47 -58
-92 -25 -44 -55 -95 -65 -112 -20 -31 -31 -94 -50 -278 -6 -60 -18 -123 -27
-139 -24 -47 -443 -456 -579 -567 -129 -104 -266 -200 -284 -200 -7 0 -64 51
-128 113 -151 147 -216 199 -297 236 -37 17 -71 31 -76 31 -5 0 -37 13 -71 29
-89 40 -115 49 -185 61 -63 11 -158 43 -220 75 -28 14 -33 22 -33 54 0 49 89
315 123 369 47 73 71 82 207 75 97 -5 122 -3 152 11 46 22 63 61 54 123 -5 40
-2 52 21 86 23 33 25 41 14 59 -10 16 -10 23 3 37 19 21 20 44 5 73 -16 29 -2
67 29 80 74 32 80 68 24 142 -50 65 -72 109 -72 139 0 13 14 51 31 85 l30 62
-20 104 c-11 57 -29 126 -39 153 -38 101 -146 234 -242 299 -132 89 -395 148
-554 123z m-568 -658 c10 -6 11 -21 3 -72 -16 -97 -13 -172 14 -303 35 -175
86 -267 186 -333 22 -14 42 -36 45 -49 9 -34 -13 -120 -43 -176 -42 -78 -49
-78 -56 0 -3 38 -15 95 -27 128 -114 312 -160 507 -160 677 0 91 6 137 19 137
3 0 12 -4 19 -9z m120 -954 c3 -58 1 -76 -12 -86 -9 -8 -18 -12 -19 -10 -2 2
-1 46 1 97 5 114 25 112 30 -1z m2645 -829 c-43 -95 -73 -146 -206 -350 -64
-99 -102 -148 -114 -148 -21 0 -103 32 -103 41 0 3 33 44 73 90 39 47 117 141
172 209 55 69 102 127 105 130 3 3 28 34 55 68 27 35 51 59 53 54 2 -6 -14
-48 -35 -94z"/>
</g>
</svg>
